<svg width="87" height="98" viewBox="0 0 87 98" fill="none" xmlns="http://www.w3.org/2000/svg">
<g clip-path="url(#clip0_8_123)">
<path d="M72.27 0.0535965L70.5956 0.0842133V0.336823C70.5956 0.482262 71.1047 3.91924 71.7269 7.99155C72.3492 12.0562 72.8583 15.4473 72.8583 15.5315C72.8583 15.6463 72.7451 15.7075 72.3831 15.7688C72.1116 15.8147 71.5459 15.9372 71.1047 16.0443C70.6748 16.1515 70.2336 16.251 70.1317 16.274C69.9847 16.3123 69.9394 16.2281 69.8715 15.83C69.8036 15.4013 69.3172 13.9622 69.2153 13.8934C69.204 13.8781 68.1858 14.4675 66.9753 15.1947C65.7648 15.9295 64.7466 16.5266 64.7126 16.5266C64.6787 16.5342 64.5655 16.4271 64.4524 16.2893L64.2488 16.052L63.1174 17.1926C62.4952 17.8202 61.7259 18.624 61.4091 18.9838C61.0923 19.3435 60.8095 19.6497 60.7869 19.6727C60.7529 19.6956 60.5832 19.5961 60.3909 19.4584C60.2099 19.3129 60.0402 19.2134 60.0289 19.2287C60.0062 19.2364 59.9271 19.3282 59.8592 19.4201C59.7913 19.5196 59.6329 19.5961 59.5198 19.5961C59.3274 19.5961 59.3161 19.5732 59.4519 19.3053C59.6103 18.9991 60.8661 15.7075 60.8661 15.6004C60.8661 15.5697 60.6624 15.5621 60.4135 15.5851L59.9723 15.631L60.2438 14.9574C60.8774 13.3652 61.6467 11.2907 61.6014 11.2678C61.5788 11.2448 61.3525 11.2678 61.0923 11.3137C60.8434 11.352 60.6398 11.375 60.6398 11.3596C60.6398 11.3367 60.8661 10.709 61.1489 9.95117C61.4317 9.19335 61.658 8.56567 61.658 8.5427C61.658 8.52739 61.4544 8.55035 61.2055 8.58863C60.9453 8.63455 60.719 8.64986 60.6964 8.63455C60.6624 8.61159 60.7077 8.48146 60.7982 8.33602C60.9905 8.01452 62.3594 4.37086 62.3142 4.28667C62.2689 4.20246 59.9497 4.60816 58.8862 4.89139C58.3884 5.02152 57.6304 5.28178 57.2005 5.47315C56.7706 5.66452 56.4086 5.81761 56.3973 5.81761C56.386 5.81761 56.2615 5.58797 56.1144 5.3124C55.8429 4.76126 55.0284 3.52119 54.9378 3.52119C54.8813 3.52119 51.7022 6.29986 51.4646 6.56012L51.3062 6.73618L50.9668 6.50654L50.6274 6.28455L49.5866 7.9839C49.0209 8.91778 48.4892 9.8287 48.41 10.0048C48.3308 10.1885 48.2403 10.3339 48.1951 10.3339C48.1498 10.3339 48.0027 10.2497 47.8557 10.1425C47.7086 10.0354 47.5276 9.95117 47.4597 9.95117C47.2674 9.95117 45.9437 14.1077 45.9324 14.7583C45.9324 14.8272 45.8306 14.8119 45.6043 14.7048C45.4233 14.6129 45.2423 14.544 45.2083 14.544C45.1744 14.544 45.1404 14.7277 45.1404 14.9574C45.1404 15.187 45.1065 15.3937 45.0612 15.409C45.0047 15.432 44.9594 15.0492 44.9481 14.5593C44.9255 13.7556 44.439 10.6018 44.3259 10.5253C44.3033 10.5023 44.0883 10.5789 43.862 10.6784L43.4434 10.8697L43.3869 10.6631C43.2737 10.3033 41.8369 6.85866 41.7464 6.75149C41.6899 6.66729 41.5993 6.69025 41.3505 6.82804L41.0337 7.01941L39.5064 5.30475C38.6692 4.37086 37.9564 3.59774 37.9112 3.59774C37.8094 3.59774 36.9835 4.5163 36.4857 5.18227L36.0784 5.73341L35.4675 5.3966C34.585 4.91435 33.4763 4.49335 32.1866 4.14123C30.6706 3.73553 30.433 3.69725 30.433 3.87331C30.433 4.12592 31.1231 7.46338 31.225 7.7313C31.4286 8.23651 31.406 8.27478 30.8856 8.15231C30.467 8.0528 30.433 8.0528 30.433 8.17527C30.433 8.35899 30.9761 11.1377 31.1118 11.6276C31.2815 12.2629 31.2929 12.2552 30.7724 12.1328L30.3199 12.0256V12.2323C30.3199 12.3471 30.4783 13.1738 30.6593 14.0771C30.8403 14.9803 30.9761 15.7305 30.9648 15.7458C30.9421 15.7535 30.433 15.6463 29.8221 15.4932L28.7021 15.2253L28.77 15.7075C28.8039 15.9754 28.8039 16.1285 28.77 16.052C28.7247 15.9372 28.6681 15.9448 28.3061 16.1515L27.8875 16.3888L27.6726 16.0214C27.5481 15.8223 26.9146 14.9344 26.2697 14.0465L25.0931 12.4466L24.799 12.6916L24.4935 12.9365L24.1541 12.6533C23.9731 12.4925 23.0906 11.796 22.1856 11.1147L20.5451 9.85931L20.2736 10.2727C20.1265 10.4947 19.855 11.0228 19.6627 11.4515L19.3007 12.217L18.2259 11.8572C17.6263 11.6582 16.6533 11.4056 16.065 11.2984C14.8545 11.0841 13.3611 10.908 13.2706 10.9692C13.1801 11.0381 14.6848 14.1919 15.2052 15.0109L15.3749 15.2865L14.8771 15.2482C14.5943 15.2329 14.368 15.2482 14.368 15.2865C14.368 15.3248 14.7866 16.2281 15.307 17.2921L16.246 19.2287L15.7596 19.1751C15.488 19.1522 15.2731 19.1522 15.2731 19.1904C15.2731 19.2211 15.6691 20.086 16.1668 21.1041L17.0493 22.9642H16.7778C16.5854 22.9642 16.5176 22.9948 16.5515 23.0637C16.5854 23.125 16.9135 23.8215 17.2869 24.6176C17.6602 25.4137 18.0901 26.294 18.2485 26.5773L18.5427 27.0978H18.2485C18.0675 27.0978 17.9883 27.136 18.0222 27.1896C18.0449 27.2432 18.4408 28.0623 18.8934 29.0115C20.2849 31.9509 21.2352 32.9919 23.1698 33.6579C23.9618 33.9335 24.3917 34.0253 26.1 34.2626C26.281 34.2856 26.3602 34.3545 26.3602 34.4846C26.3602 34.6683 26.3602 34.6683 26.7675 34.5535C26.9938 34.4846 27.22 34.4616 27.2653 34.4999C27.3105 34.5305 27.5594 35.2654 27.8196 36.1304C28.0798 36.9953 28.8831 39.6133 29.5958 41.948C31.01 46.5408 32.1074 50.2457 32.0848 50.2687C32.0622 50.2916 26.6996 49.8859 23.7016 49.641C17.1172 49.0975 9.74084 48.3244 3.51847 47.5283C1.86671 47.3216 0.429913 47.1532 0.305465 47.1685C-0.158384 47.2144 0.0113172 47.3905 1.04084 47.9033C9.19779 51.9757 19.9116 55.1907 32.3563 57.2957C33.2614 57.4488 34.0307 57.6019 34.0759 57.6325C34.2456 57.7397 35.8974 64.6289 36.6667 68.3951L37.0174 70.1557L36.8817 72.7583C36.6667 77.0985 36.6328 77.2822 35.9766 79.15C35.1168 81.5918 34.1212 84.7379 33.499 87.0344C32.8994 89.2083 32.3563 91.4129 32.3563 91.6731C32.3563 91.7956 32.6278 91.9717 33.3066 92.3008L34.2456 92.7678L33.9176 94.0537C33.7365 94.758 33.4085 95.9215 33.2048 96.641C32.9899 97.3529 32.8428 97.95 32.8654 97.9653C32.888 97.9806 33.9402 97.7586 35.2073 97.4678L37.5039 96.9319L37.6397 96.4803C37.7754 95.9981 38.2166 93.7705 38.5447 91.8951C38.7371 90.7928 38.7484 90.7699 38.7823 91.3057C38.8049 91.7726 38.8502 91.8645 38.986 91.8262C39.0765 91.8033 40.072 92.0712 41.1921 92.4309C42.3121 92.7907 43.2624 93.0816 43.2964 93.0816C43.3303 93.0816 43.319 92.7984 43.2737 92.4539C43.2285 92.1018 43.1719 90.8694 43.1606 89.7135C43.1493 88.5576 43.0927 87.1721 43.0475 86.6287L42.957 85.6565L43.715 85.8938C44.1336 86.0239 44.4956 86.1158 44.5295 86.1005C44.5521 86.0775 44.5069 85.4422 44.4051 84.692C44.1222 82.4339 44.0091 80.8111 43.9073 77.8946C43.8055 75.2767 43.9186 68.9998 44.0657 67.7444C44.1109 67.3923 44.439 66.4661 44.9142 65.3332C46.0229 62.7153 47.471 59.485 47.5615 59.4237C47.6068 59.3931 48.2629 59.4314 49.0209 59.5079C55.6732 60.1662 61.0923 60.5566 73.7068 61.2762C77.0668 61.4752 79.8499 61.6513 79.8839 61.6819C79.9178 61.7125 80.0083 62.1641 80.0875 62.6923C80.2007 63.5573 80.2346 63.6644 80.4948 63.8175C81.5243 64.4299 84.5789 64.1314 86.2873 63.2511C86.9434 62.9066 87.0226 62.6923 86.8303 61.6206C86.6945 60.7786 86.6945 60.6638 86.8416 60.5872C86.9887 60.5184 86.9208 59.9749 86.2081 55.9944C85.5971 52.5421 85.3596 51.4092 85.2012 51.1719C85.0541 50.9652 84.907 50.4064 84.7373 49.4496C84.6129 48.6688 84.2282 46.4107 83.8888 44.4358C77.5533 7.57055 76.2636 0.153107 76.1957 0.0842133C76.1505 0.030632 75.7092 0.00766754 75.0304 0.0153198C74.4308 0.0229797 73.1863 0.0459442 72.27 0.0535965ZM73.7633 21.1194C73.7633 21.2343 74.3177 25.0004 75.0078 29.4784C75.6866 33.9564 76.7161 40.6773 77.2931 44.4128C77.8588 48.156 78.3113 51.2255 78.2774 51.2408C78.1529 51.325 74.9512 51.4475 71.0142 51.524C67.7899 51.5929 65.3009 51.5929 61.1489 51.524C56.0918 51.4398 51.4759 51.3174 51.3968 51.2561C51.3628 51.2332 58.0377 37.8068 58.1169 37.7455C58.1395 37.7225 58.3319 37.7685 58.5468 37.8374C59.0559 37.9981 59.0333 37.9981 59.0785 37.7914C59.1125 37.6383 59.1917 37.623 60.142 37.5771C61.6241 37.5006 62.8685 37.2326 63.6944 36.804C64.294 36.4901 65.0973 35.9237 65.5046 35.518C66.025 35.0051 66.387 34.5152 67.6654 32.6475C68.661 31.2084 68.661 31.1931 68.3895 31.1701L68.1066 31.1471L68.7176 30.3281C69.3964 29.4019 70.8219 27.3045 70.8219 27.2279C70.8219 27.1973 70.6861 27.1743 70.5277 27.1743C70.3014 27.1743 70.2562 27.1514 70.3467 27.0748C70.4146 27.0289 70.9916 26.2022 71.6477 25.2377L72.8356 23.5001H72.3265C71.9645 23.5001 71.8287 23.4694 71.874 23.4005C72.2813 22.7499 73.6163 20.9051 73.6841 20.8974C73.7294 20.8974 73.7633 20.997 73.7633 21.1194ZM45.1744 33.7115L45.9324 34.209L45.6495 35.5333C45.2309 37.4699 44.1788 42.767 43.7942 44.9333C43.319 47.5359 42.7646 50.7203 42.7646 50.8198C42.7646 50.8657 42.6402 50.904 42.4931 50.904H42.2329L42.1537 47.4364C42.1198 45.538 42.0519 42.7364 42.0179 41.2208L41.9501 38.4651L42.346 38.1206C43.2964 37.3092 43.7489 36.3677 44.1562 34.4234C44.2919 33.7651 44.4051 33.2216 44.4051 33.2216C44.4051 33.2216 44.7445 33.4436 45.1744 33.7115ZM54.5984 36.0309L55.2207 36.4748L54.0101 38.8095C53.3427 40.0955 51.6909 43.3794 50.3333 46.1198L47.867 51.0954L47.2674 51.1183C46.9393 51.126 46.5999 51.1107 46.532 51.0724C46.3623 51.0035 46.5772 49.8706 48.4779 40.9682C49.1341 37.9063 49.6658 35.3725 49.6658 35.3419C49.6658 35.3037 49.7563 35.296 49.8694 35.319C50.6161 35.4721 50.684 35.4644 50.684 35.2654C50.684 35.0893 50.7519 35.0664 51.5099 34.9439C51.9511 34.875 52.5281 34.7525 52.777 34.6836L53.2295 34.5458L53.6029 35.0664C53.8178 35.3496 54.259 35.7782 54.5984 36.0309ZM33.6121 39.2612C33.9741 39.3989 34.5511 39.5673 34.8792 39.6439C35.3544 39.7587 35.4788 39.8123 35.5014 39.973C35.5354 40.1491 35.5693 40.1644 35.9653 40.1108L36.4065 40.0572L36.4744 41.1366C36.5083 41.7336 36.5875 43.609 36.6554 45.316C36.712 47.0231 36.7912 48.9138 36.8251 49.5108L36.893 50.6131L36.2934 50.5595C35.9653 50.5289 35.6598 50.483 35.6259 50.4524C35.5919 50.4294 35.2639 49.3731 34.9018 48.11C34.3248 46.0586 32.2319 39.1387 32.0508 38.6564C31.983 38.4804 32.0056 38.488 32.4581 38.7483C32.7183 38.8937 33.2388 39.131 33.6121 39.2612Z" fill="#4CAF50"/>
</g>
<defs>
<clipPath id="clip0_8_123">
<rect width="87" height="97.9806" fill="white"/>
</clipPath>
</defs>
</svg>
