<svg width="229" height="156" viewBox="0 0 229 156" fill="none" xmlns="http://www.w3.org/2000/svg">
<g clip-path="url(#clip0_7_27)">
<path d="M139.547 48.8718C139.547 49.0668 139.422 50.8462 139.261 52.8206C138.974 56.3793 138.939 56.5256 137.328 62.4975L135.665 68.5669L135.557 67.2506C135.486 66.5194 135.432 65.13 135.432 64.1306C135.432 60.84 135.182 62.595 135.092 66.6169L134.985 70.5656L133.858 68.4206C133.231 67.2506 132.695 66.3 132.641 66.3C132.605 66.3 133.106 67.3969 133.75 68.7375L134.949 71.175L134.448 73.0031C134.18 74.0025 133.911 74.7825 133.84 74.7094C133.768 74.6606 133.428 73.3931 133.106 71.9062C132.48 69.0544 132.122 68.3719 132.659 71.0531C132.82 71.9306 132.945 72.7106 132.909 72.7594C132.874 72.8081 132.194 70.0537 131.407 66.6412C130.637 63.2287 129.94 60.3037 129.85 60.1331C129.779 59.9869 129.707 60.5962 129.707 61.5469C129.707 62.5462 129.635 63.1069 129.546 62.8875C129.474 62.6925 129.009 60.6937 128.544 58.4512C128.061 56.2087 127.632 54.405 127.596 54.4537C127.56 54.5268 128.025 57.3544 128.616 60.7425L129.707 66.9337L129.564 71.8575L129.439 76.8056L128.598 74.88L127.757 72.9544L128.025 71.4187C128.365 69.3712 128.258 69.0056 127.846 70.8825L127.506 72.3694L126.701 70.5169C126.022 68.9081 125.932 68.5912 126.111 68.0794C126.397 67.2262 126.344 67.08 125.968 67.7381L125.646 68.3231L125.288 67.0069C125.091 66.2756 124.286 62.8144 123.517 59.28C122.748 55.77 122.086 52.9669 122.05 53.0887C122.014 53.2594 123.678 62.9606 123.893 63.7894C124.089 64.5937 123.714 63.7894 121.835 59.475C120.726 56.9156 119.796 54.8437 119.76 54.8437C119.724 54.8437 120.386 56.6475 121.209 58.8169C122.05 61.0106 122.73 62.9362 122.73 63.0825C122.73 63.2531 121.817 65.4712 120.69 68.0306L118.669 72.6619L118.024 71.6381L117.398 70.59L117.935 69.2981C118.221 68.5912 118.418 68.0062 118.364 68.0062C118.311 68.0062 118.06 68.4937 117.792 69.1031C117.541 69.7125 117.291 70.1756 117.237 70.1269C117.201 70.0537 117.255 69.5419 117.345 68.9569C117.577 67.5919 117.452 67.3969 117.184 68.7131C117.076 69.2737 116.951 69.7125 116.915 69.7125C116.879 69.7125 116.504 69.2494 116.092 68.6644C115.287 67.5675 115.341 67.7625 116.289 69.3956L116.879 70.4194L116.575 71.4675C116.414 72.0525 116.092 72.8325 115.86 73.2225L115.448 73.9537L115.323 72.9787C115.126 71.5162 114.84 70.1269 114.768 70.2487C114.715 70.2975 114.804 71.3212 114.965 72.4912L115.234 74.6606L114.589 75.9525C114.25 76.6837 113.91 77.2687 113.856 77.2687C113.802 77.2687 113.802 77.1712 113.874 77.025C113.928 76.9031 113.874 76.5862 113.749 76.3181C113.552 75.8794 113.605 75.7087 114.232 74.8069C114.911 73.8319 114.822 73.71 114.071 74.5631C113.766 74.9287 113.749 74.9287 113.838 74.4656C113.963 73.9294 114.929 68.2987 115.305 65.9344C115.448 65.13 116.039 61.7419 116.629 58.4025C117.237 55.0631 117.702 52.2843 117.667 52.2356C117.631 52.1869 117.506 52.6256 117.38 53.1862C116.182 58.8656 112.621 74.5875 112.532 74.5875C112.46 74.5875 112.443 71.4431 112.46 67.5675C112.496 63.7162 112.478 60.7425 112.443 60.9375C112.407 61.1325 112.192 64.155 111.995 67.6406C111.799 71.1262 111.584 74.3925 111.53 74.88C111.423 75.8794 111.083 76.1719 110.51 75.7819C110.153 75.5625 110.153 75.5625 110.421 75.8794C110.725 76.1962 110.725 76.245 110.421 76.635C110.242 76.8544 110.045 77.025 110.009 77.025C109.956 77.025 109.723 76.2694 109.491 75.3187L109.061 73.6369L109.365 71.0287C109.544 69.5906 109.652 68.3719 109.598 68.3231C109.562 68.2744 109.401 68.9812 109.24 69.8831C108.793 72.3694 108.703 72.4425 108.238 70.5412C107.702 68.3962 107.558 68.8837 108.041 71.1262C108.453 72.9787 108.507 73.4419 108.238 72.8812C108.113 72.6131 108.059 72.7594 108.041 73.4906C108.024 74.4169 108.006 74.3925 107.863 73.1494C107.773 72.4181 107.612 70.8825 107.523 69.7369C107.433 68.5912 107.201 66.2025 107.004 64.4719L106.646 61.3031L106.718 64.8375C106.771 67.5187 106.735 68.1281 106.61 67.3969C106.199 65.1544 105.716 62.2781 105.09 58.2075C104.714 55.8187 104.374 53.9175 104.338 53.9662C104.302 54.015 104.624 56.94 105.036 60.45L105.805 66.8119L105.268 68.2012L104.75 69.5906L104.66 64.9594C104.553 59.7919 104.606 59.475 104.123 68.2012C103.962 70.8094 103.891 71.2969 103.479 72.15C102.835 73.4906 102.728 73.1981 103.318 71.7356L103.801 70.5656L103.265 71.4187L102.71 72.2719L102.549 71.6625C102.46 71.3212 102.209 70.3706 101.977 69.5419L101.583 68.0306L102.406 64.6912C102.853 62.8631 103.175 61.425 103.104 61.5225C103.05 61.5956 102.621 62.8875 102.155 64.3744L101.297 67.08L100.814 65.3494C100.331 63.6431 100.331 63.5944 100.635 62.5706C101.118 60.9375 101.136 60.7425 100.671 61.9125L100.223 63.0094L99.9728 62.1562C99.8297 61.6931 99.2393 59.5237 98.6668 57.3544C98.0943 55.185 97.5934 53.43 97.5576 53.4787C97.5218 53.5275 98.0227 55.9162 98.6668 58.8169L99.8476 64.0575L99.2572 65.6906L98.6489 67.2994L98.4521 66.495C98.3269 66.0562 97.8617 63.5456 97.4145 60.9375C96.6631 56.5987 96.5915 55.9893 96.6809 53.9906C96.7704 51.7969 96.7704 51.7969 96.5378 53.1375C96.4126 53.9662 96.2695 54.3318 96.1979 54.1125C96.1442 53.9175 96.1263 54.1368 96.18 54.6244C96.2516 55.3068 95.3034 64.4962 94.4088 71.6625C94.3731 72.0037 94.3194 69.4931 94.3015 66.0806C94.3015 62.6681 94.2299 59.9625 94.1584 60.0356C94.1047 60.1331 93.9437 62.1562 93.8184 64.5206C93.3891 72.5644 93.3533 73.0519 93.1923 72.4425C93.1028 72.15 92.9597 71.9062 92.8523 71.9062C92.7629 71.9062 92.6734 71.6137 92.6734 71.2237C92.6734 70.6144 93.2996 64.8619 94.3731 55.8431C94.6235 53.6494 94.8024 51.7481 94.7845 51.6506C94.7488 51.5287 94.1047 55.4287 93.3354 60.3281C91.6716 70.8581 91.5106 71.6869 91.3495 71.1506C91.278 70.9069 91.3138 70.2731 91.4211 69.7125C91.7431 68.1037 91.5284 68.3231 91.0812 70.0781C90.8486 70.9556 90.6339 71.6625 90.616 71.6625C90.5802 71.6625 90.3119 71.1262 90.0256 70.4681C89.5963 69.5419 89.2206 67.8112 88.326 62.7412C87.682 59.1337 87.0737 55.7456 86.9663 55.2094C86.7874 54.2587 86.7695 54.2587 86.8411 55.0875C86.8948 55.5506 87.2884 58.8412 87.7356 62.3756C88.2008 65.91 88.5228 68.8594 88.487 68.9081C88.2724 69.2006 87.682 67.5431 87.3242 65.6906C87.0021 64.0819 86.9306 63.2287 87.02 62.205C87.0916 61.4494 87.0916 60.8887 87.0558 60.9619C86.9663 61.0594 86.5906 64.2037 86.3044 66.9094C86.0181 69.8587 85.8213 71.4187 85.7677 71.3456C85.7319 71.2969 85.3741 69.1762 84.9984 66.6412C84.1933 61.4006 84.1217 61.425 84.6227 66.7875C84.8016 68.8594 84.9626 70.785 84.9626 71.0531C84.9626 71.3212 85.0163 72.2475 85.0878 73.125L85.2131 74.7094L84.5869 73.6125C84.2649 73.0031 83.8355 72.0525 83.6566 71.4919C83.3167 70.4437 82.5652 69.2737 82.3684 69.5175C82.3148 69.615 82.3506 69.9319 82.4758 70.2487C82.6726 70.785 82.6547 70.785 82.3863 70.3219C82.2432 70.0537 82.1359 69.7369 82.1895 69.5906C82.2253 69.4687 82.5652 68.4694 82.9231 67.3969C83.6924 65.13 83.6566 65.13 82.601 67.3725L81.8138 69.03L81.3308 67.9087C80.9193 66.9337 80.7404 65.8369 80.0963 60.1819C79.6849 56.5744 79.327 53.6981 79.2913 53.82C79.2734 53.9418 79.3986 56.2331 79.6133 58.89C79.8101 61.5469 79.9711 63.8869 79.9711 64.1062C79.9711 64.3012 79.5059 63.2775 78.9334 61.815L77.8779 59.1581L78.1999 57.5494C78.6651 55.3068 78.5935 54.8437 78.1105 56.9156L77.7169 58.5975L77.2875 57.5737C76.715 56.1843 76.6256 56.4525 77.1623 57.9394C77.5916 59.085 77.5916 59.1337 77.2875 60.45L76.9834 61.7906L76.3214 59.8406C75.9636 58.7681 75.409 57.1106 75.1049 56.1843C74.5145 54.405 74.0314 53.3812 74.4608 54.8437C74.6039 55.3068 75.1764 57.2812 75.7489 59.2312L76.7866 62.79L75.8563 66.7387L74.9438 70.7119L74.0493 69.6881C73.5663 69.1519 73.1369 68.5912 73.0832 68.4937C73.0295 68.3719 73.2621 67.3237 73.6199 66.1537C73.9598 64.9594 74.2461 63.96 74.2282 63.8869C74.2282 63.8137 73.8704 64.6912 73.4589 65.8612L72.7075 67.9575L71.4731 66.4706L70.2207 64.9837L71.3478 66.5681C71.9561 67.4212 72.457 68.2744 72.457 68.445C72.457 68.6156 72.3855 68.6887 72.2781 68.6156C72.1887 68.5425 72.1529 68.6156 72.2066 68.8106C72.2602 69.0056 71.8666 70.3706 71.3299 71.8087L70.3459 74.4656L70.1313 73.7344C69.6482 72.0769 69.6124 72.0037 69.6124 72.4425C69.5945 72.6619 69.684 73.1494 69.7913 73.5394L69.9702 74.2219L69.4872 73.5637L68.9863 72.9056L69.2188 71.0044C69.3441 69.9562 69.4693 68.8837 69.523 68.6156C69.5945 68.2256 69.5766 68.2012 69.4335 68.4937C69.3262 68.6887 69.1473 69.4444 69.022 70.1756C68.8252 71.4187 68.8074 71.4675 68.6642 70.8094C68.5927 70.4194 68.4853 69.225 68.4138 68.1525C68.3243 66.6169 68.3601 65.9587 68.5927 65.2031C68.8252 64.3987 68.8252 64.3012 68.6105 64.6912C68.4674 64.9594 68.3243 65.3006 68.3243 65.4225C68.3064 65.5687 68.2348 65.3494 68.1633 64.9594C68.0381 64.3012 68.0202 64.3256 68.0023 65.3494C67.9844 66.105 67.7518 67.1531 67.2866 68.5181C66.8931 69.6394 66.571 70.4194 66.571 70.2487C66.5531 69.8587 67.4656 61.2787 67.9844 56.94C68.1991 55.2337 68.3243 53.7712 68.2885 53.7225C68.2348 53.6494 67.0362 61.2544 65.8554 69.03C65.6944 70.0781 65.5155 70.9312 65.4618 70.9312C65.4081 70.9312 65.2829 70.5656 65.1756 70.1269C65.0861 69.7125 65.0145 69.5419 65.0503 69.7612C65.0682 70.005 65.0145 70.2 64.9251 70.2C64.8356 70.2 64.7462 68.2256 64.7462 65.7394L64.7104 61.3031L64.4778 64.5937C64.3526 66.3975 64.2452 68.1525 64.2452 68.4937C64.2273 69.0544 64.1737 69.0056 63.4402 67.8844C62.5814 66.5681 62.5456 66.2269 63.0823 64.2769C63.4044 63.1069 63.3865 62.8387 63.0645 63.6187C62.8319 64.1794 62.814 64.1062 62.7782 62.4L62.7603 60.5718L62.5993 62.0344C62.5277 62.8387 62.4025 64.0819 62.3488 64.8131C62.2594 65.6662 62.1699 66.0319 62.0447 65.8612C61.9373 65.715 62.0447 64.0331 62.3309 61.0106C62.5814 58.4756 62.7961 56.2331 62.7961 56.0625C62.7961 55.2094 62.5993 56.2575 62.1699 59.5969C61.9016 61.5956 61.6153 63.4481 61.5616 63.6675C61.4901 63.96 61.0607 62.6194 60.3988 59.9625C59.8084 57.6956 59.3074 55.8675 59.2716 55.9162C59.2001 56.0137 60.8997 64.0087 61.1859 65.0081C61.4006 65.7394 60.7924 69.8344 60.2735 71.2237L59.8799 72.2719L59.7189 71.5406C59.4506 70.1756 57.1963 56.4281 57.1963 56.0625C57.1784 55.8675 57.2321 55.2094 57.3037 54.6C57.3931 53.6494 57.3931 53.6006 57.2142 54.21C57.1069 54.5756 56.9816 54.795 56.9101 54.6487C56.8564 54.5025 56.8027 54.9656 56.8027 55.6481C56.7848 57.1594 56.0156 61.7906 55.8188 61.4981C55.7472 61.4006 55.4609 59.4262 55.1747 57.1594C54.8884 54.8681 54.638 53.1862 54.6022 53.3812C54.5843 53.6006 54.7453 55.8431 54.9958 58.3537L55.4431 62.9606L54.5485 65.3981C54.0476 66.7144 53.6182 67.7625 53.5645 67.7137C53.5288 67.6406 53.3677 67.1044 53.2425 66.5194L52.992 65.4469L53.0457 66.4219C53.0636 66.9581 53.1531 67.6894 53.2067 68.0306C53.2962 68.4694 53.2246 68.8106 52.9741 69.2494C52.6521 69.7856 52.6163 69.81 52.4911 69.3712C52.4195 69.1031 52.4911 68.64 52.67 68.2012C52.8489 67.8112 52.9563 67.4212 52.9026 67.3481C52.8489 67.2994 52.7237 67.47 52.5984 67.7381C52.4911 68.0306 52.348 68.25 52.2585 68.25C52.187 68.25 51.2924 65.8125 50.2727 62.8144C49.2529 59.8406 48.3584 57.3056 48.2868 57.1837C48.1973 57.0375 48.9309 59.67 49.9148 63.0094C50.8988 66.3487 51.7039 69.2006 51.7039 69.3469C51.7039 69.4931 51.5787 69.8587 51.4177 70.1756L51.1314 70.7362L50.7915 70.0294C50.6126 69.6637 50.4516 69.4444 50.4516 69.5419C50.4516 69.6394 50.5768 70.005 50.7378 70.3462C51.0241 70.9312 51.0241 71.0044 50.3621 72.2962C49.8612 73.2712 49.6286 73.5637 49.5213 73.32C49.1277 72.5156 48.4836 70.6631 48.6446 70.8094C48.8951 71.0044 48.913 69.2494 48.6625 68.7375C48.4657 68.3231 48.1973 68.5912 48.09 69.3469C48.0363 69.6881 47.9469 69.5175 47.7859 68.7375C47.5891 67.86 47.5891 67.4944 47.768 66.9094C48.1258 65.6662 48.8414 63.0094 48.8235 62.8875C48.8235 62.8144 48.5194 63.5944 48.1437 64.5937C47.5533 66.1294 47.4459 66.3244 47.3386 65.8612C47.267 65.5687 47.1955 64.9837 47.1955 64.5937C47.1776 63.4969 46.8734 63.4237 46.8556 64.5206C46.8377 65.0325 46.784 65.715 46.6945 66.0562C46.5872 66.5925 46.3725 66.1537 45.1202 62.6437C44.3151 60.4256 43.671 58.7194 43.6531 58.8412C43.6531 58.9387 44.1362 60.5718 44.7445 62.4244C45.4064 64.545 45.7821 66.0075 45.7106 66.3C45.6569 66.5437 45.2096 67.4212 44.7445 68.2256L43.8678 69.7125L43.671 68.9569C43.5279 68.3719 43.5279 68.0794 43.671 67.8356C43.832 67.5919 43.832 67.5431 43.6173 67.6406C43.4384 67.7381 43.3132 67.6162 43.2416 67.2994C43.188 66.9581 43.0448 66.8362 42.7944 66.9094C42.4723 66.9825 42.4187 66.8119 42.3113 65.4225C42.2398 64.545 42.2219 62.9362 42.2756 61.8394C42.3113 60.7425 42.3113 60.1331 42.2756 60.4987C42.1503 61.5956 41.8641 61.2787 41.8462 60.0112C41.8462 59.3775 41.7925 58.4268 41.7209 57.8906C41.6136 57.135 41.5063 57.9637 41.2558 61.5469C41.0769 64.0819 40.898 66.2269 40.8622 66.2756C40.7906 66.3731 40.3255 65.0081 38.6974 59.8894C38.1428 58.1831 37.6598 56.8181 37.624 56.8669C37.5882 56.9156 38.0891 58.8169 38.7332 61.0837C39.3773 63.3262 39.8961 65.4712 39.8961 65.8125C39.8961 66.1537 39.7351 66.9094 39.5383 67.4944C39.3415 68.0794 39.1805 68.8106 39.1805 69.1519C39.1805 69.5175 39.1089 69.6881 38.9837 69.5662C38.8584 69.4687 38.8227 69.0056 38.8942 68.2987C38.9837 67.3237 38.9658 67.2262 38.769 67.6162C38.5543 68.0062 38.5006 67.8356 38.2502 66.0806C38.0891 64.9837 37.7671 63.57 37.5524 62.9362C37.1588 61.8637 37.1231 61.8394 37.0157 62.4C36.8905 63.0581 36.9084 63.18 36.4074 58.6219L36.157 56.4281L36.2106 58.3293C36.2464 59.3531 36.2285 60.1819 36.1927 60.1331C36.157 60.06 35.9244 58.4512 35.6739 56.5256C35.4234 54.6 35.173 52.9669 35.1193 52.8937C35.0656 52.8206 35.0656 53.1131 35.1193 53.5518C35.3519 55.1362 35.4592 58.6706 35.2982 58.8169C35.2088 58.89 34.9583 57.6956 34.7257 56.16C34.4931 54.6244 34.2606 53.4056 34.2248 53.4787C34.189 53.5275 34.2784 54.5756 34.4395 55.8187C34.6005 57.0619 34.6899 58.11 34.6541 58.1587C34.6363 58.2075 34.2427 56.7694 33.8133 54.9656C33.3839 53.1618 33.0082 51.7237 32.9724 51.7725C32.9366 51.8212 33.366 54.015 33.9027 56.6719L34.8867 61.4981L34.3321 63.96C34.028 65.325 33.5807 66.8606 33.3481 67.3969L32.9188 68.3719L33.0082 66.7875C33.0619 65.91 33.1871 63.8381 33.2945 62.205C33.4018 60.5475 33.4376 59.1337 33.4018 59.085C33.366 59.0362 33.1513 60.5962 32.9366 62.5706C32.2926 68.25 32.3999 68.1281 31.3981 64.2281C30.7719 61.815 30.5393 60.4987 30.5393 59.6212C30.5572 58.9387 30.5214 58.6219 30.4677 58.9144C30.432 59.2312 30.3246 59.475 30.2352 59.475C29.8595 59.475 29.931 58.1587 30.4141 55.965C31.0939 52.8937 31.076 52.455 30.3962 54.9656C30.1099 56.0381 29.8237 57.0862 29.77 57.2812C29.5553 58.0368 28.8039 54.5268 28.786 52.65L28.7502 50.8218L28.625 52.1625C28.5534 52.8937 28.4998 53.2837 28.4819 53.04C28.464 52.7719 28.4103 52.6256 28.3566 52.6987C28.303 52.7719 28.3566 53.3325 28.4819 53.9418C28.625 54.6975 28.6429 55.2094 28.5177 55.5993C28.3566 56.0625 28.303 55.8675 28.0883 54.3318C27.963 53.3325 27.8199 52.65 27.7841 52.7962C27.7484 52.9669 27.8736 54.405 28.0883 56.0381C28.3566 58.1831 28.4282 59.5237 28.3566 60.9862C28.2493 63.0825 27.9452 65.0812 27.7484 65.0812C27.6768 65.0812 27.319 62.1562 26.9433 58.5487C26.5676 54.9656 26.2098 51.9919 26.1561 51.9187C26.1203 51.8456 26.1203 52.455 26.1919 53.2594C26.4781 56.9644 26.997 65.1056 27.0506 66.4219C27.0685 67.5431 26.9791 68.2987 26.5855 69.6394L26.0845 71.4187L25.3152 70.1756C24.8859 69.4931 24.4923 68.5912 24.4386 68.1769C24.3849 67.7381 24.045 64.2037 23.7051 60.3281C23.3652 56.4281 23.0252 52.7231 22.9716 52.0893C22.739 49.4812 22.7748 51.4069 23.0789 57.7687C23.6156 68.25 23.5798 67.2994 23.2757 66.9581C23.061 66.7387 23.061 66.8119 23.3115 67.3237C23.4904 67.7381 23.6156 68.4694 23.6156 69.2494C23.6156 70.8094 23.4904 70.7119 22.1307 67.9331C20.9678 65.5687 20.7531 64.9106 20.7531 63.5456C20.7531 62.985 20.6637 62.3512 20.5742 62.1562C20.3774 61.7662 20.3416 62.4244 20.3953 64.7156L20.4132 65.9344L19.5723 64.8375L18.7136 63.7406L19.5723 65.13C20.0554 65.9344 20.3953 66.7144 20.3595 66.9581C20.3059 67.2994 20.1627 67.1287 19.7155 66.3244C19.3934 65.7394 19.143 65.3494 19.143 65.4469C19.143 65.5687 18.9283 65.3981 18.642 65.0569C18.3737 64.74 18.4631 64.9106 18.8209 65.4469C19.7334 66.7875 20.4311 68.9325 20.3595 70.2244L20.3059 71.2237L17.9443 68.7131L15.5827 66.1781L14.5988 62.1562C14.062 59.9381 13.3643 57.0131 13.0602 55.6237C12.7381 54.2344 12.4698 53.1375 12.434 53.1862C12.3982 53.235 12.9349 56.2087 13.6148 59.8406C14.2946 63.4481 14.8313 66.5194 14.7955 66.6169C14.7777 66.7387 13.8295 64.9837 12.7202 62.7169C9.66094 56.5744 9.64305 56.6231 12.5234 63.2531C13.6327 65.7881 14.5988 67.9819 14.6524 68.1281C14.7061 68.25 14.4556 68.0794 14.0978 67.7137C13.74 67.3481 13.3464 67.0069 13.2212 66.9825C13.078 66.9337 12.9349 66.8606 12.8813 66.7875C12.8276 66.7144 12.3088 66.0562 11.7184 65.325L10.6449 63.9844L11.45 65.2031C11.8973 65.8612 13.0244 67.5431 13.9547 68.9081C15.5291 71.2481 16.0658 72.15 15.8511 72.15C15.7974 72.15 14.2946 69.9562 12.5055 67.275C10.7165 64.5937 9.23156 62.4 9.17789 62.4C9.14211 62.4 10.0188 63.9112 11.1101 65.7394C12.2193 67.5919 13.8652 70.3706 14.7598 71.9062L16.4057 74.7094L16.9782 77.9512C17.3002 79.755 17.5149 81.3637 17.4613 81.5587C17.4076 81.7294 17.4434 81.9487 17.5328 82.0219C17.6402 82.1194 17.7117 82.29 17.7117 82.4606C17.7117 82.6069 17.4613 82.4119 17.1571 81.9975C16.6741 81.3394 16.5667 80.9494 16.3878 79.1944L16.191 77.1469L16.1016 78.7069L16.0121 80.2912L11.6289 73.3444C9.21367 69.5419 6.56586 65.3494 5.74289 64.0331C4.91992 62.7412 4.2043 61.6687 4.16852 61.6687C4.11484 61.6687 4.59789 62.5706 5.22406 63.6919C7.72875 68.055 15.1534 81.3394 15.5648 82.1437C15.9227 82.875 15.9405 82.9237 15.6364 82.5581C15.4396 82.3387 15.1891 82.1437 15.0818 82.1437C14.885 82.1437 12.4698 78.6581 8.33703 72.4425C7.0668 70.5412 5.99336 68.9812 5.95758 68.9812C5.9218 68.9812 6.4943 70.0537 7.2457 71.3456C11.3248 78.5362 12.3445 80.4619 11.9867 80.1937C11.772 80.0231 10.6449 79.1456 9.49992 78.2194C7.0668 76.245 7.2457 76.4644 10.8954 80.0719C12.3982 81.5344 13.7758 83.0212 13.9726 83.4112L14.3304 84.0694L12.6666 83.1431C11.7541 82.6069 10.6091 81.9487 10.1082 81.6562C7.78242 80.2669 7.8182 80.5106 10.144 82.1437C11.1101 82.8262 11.7005 83.3137 11.45 83.2406C11.1995 83.1919 11.4858 83.4356 12.0762 83.7769C14.8492 85.4831 15.6543 86.1656 16.1731 87.2137C17.1392 89.0906 16.6025 88.9931 13.579 86.7019C12.0583 85.5562 9.82195 83.8744 8.5875 82.9481C6.4943 81.3637 6.33328 81.2175 6.02914 80.1937L5.70711 79.0969L5.81445 80.0475L5.9218 80.9737L4.34742 79.8281C3.48867 79.17 2.43313 78.39 2.02164 78.0731C0.536719 76.9031 1.28813 77.7075 3.73914 79.9256C5.58188 81.5831 6.26172 82.3387 6.35117 82.8019C6.40484 83.1431 6.42273 83.46 6.38695 83.5331C6.33328 83.5819 5.59977 83.1919 4.74102 82.6312C3.86438 82.095 3.14875 81.6806 3.11297 81.705C3.09508 81.7537 3.86438 82.3875 4.84836 83.1187C6.74477 84.5569 6.63742 84.3619 7.08469 86.8481C7.19203 87.4819 7.15625 87.5306 6.79844 87.4575C6.51219 87.4087 6.2975 87.1162 6.13649 86.5312L5.90391 85.6781L6.01125 86.4581C6.19016 87.9206 5.38508 87.4087 4.40109 85.4587C3.64969 83.9719 3.32766 83.6062 3.90016 84.8981C4.09695 85.3125 4.40109 86.0194 4.59789 86.4581C4.7768 86.8725 5.25984 87.9937 5.67133 88.92C6.08281 89.8462 6.44063 90.7481 6.47641 90.9431C6.51219 91.1381 6.58375 91.3331 6.63742 91.4062C6.70898 91.4794 6.81633 91.8937 6.88789 92.3569L7.01313 93.1612L6.44063 92.7225C6.11859 92.4544 5.43875 91.7475 4.91992 91.1137C4.40109 90.48 3.95383 90.0169 3.90016 90.09C3.84648 90.1387 3.38133 89.5781 2.84461 88.7981C2.32578 88.0181 1.96797 87.5306 2.03953 87.7012C2.14688 87.945 3.22031 92.7956 3.22031 93.0394C3.22031 93.0637 2.68359 93.0394 2.02164 92.9662C1.00188 92.8444 0.733516 92.7225 0.375703 92.1619C0.0178906 91.6256 -0.0178906 91.6012 0.0357813 92.0156C0.0894531 92.2837 1.21656 94.4287 2.55836 96.7931C4.61578 100.425 5.02727 101.278 5.25984 102.497C5.40297 103.301 5.51031 103.984 5.47453 104.008C5.42086 104.081 1.19867 97.8412 0.322031 96.4275C0.143125 96.135 0.0178906 96.0131 0.0178906 96.1594C0.0178906 96.2812 1.25234 98.5969 2.77305 101.278C4.29375 103.959 5.49242 106.177 5.45664 106.226C5.43875 106.275 4.45477 105.519 3.29188 104.544C-0.0357813 101.814 0.0357813 101.961 3.70336 105.519C6.06492 107.835 6.61953 108.517 6.61953 109.176C6.61953 109.468 6.33328 109.346 4.0075 107.957C2.52258 107.055 2.29 106.811 1.25234 105.154C-0.0357813 103.057 -0.393594 102.911 0.697734 104.91C1.10922 105.641 1.43125 106.348 1.43125 106.494C1.43125 106.616 1.48492 106.762 1.57438 106.811C1.69961 106.884 2.84461 108.981 3.13086 109.687C3.25609 109.98 3.2382 110.004 3.02352 109.785C2.88039 109.639 2.14688 109.054 1.39547 108.493C0.0178906 107.494 0 107.494 0 108.054C0 108.542 0.339922 108.956 1.75328 110.199C4.04328 112.222 4.09695 112.296 2.41523 111.272C1.62805 110.784 0.769297 110.102 0.500938 109.736L0 109.102V109.882C0 110.321 0.0715625 110.662 0.143125 110.662C0.214688 110.662 0.751406 111.442 1.32391 112.417L2.37945 114.148L1.77117 113.977C0.429375 113.587 0 113.539 0 113.734C0 113.856 0.679844 114.221 1.50281 114.538C2.91617 115.074 3.04141 115.196 3.64969 116.317L4.31164 117.512L3.6318 117.341C3.25609 117.268 2.30789 116.659 1.5207 116.001C0.178906 114.904 0.0894531 114.855 0.0357813 115.367C-0.0178906 115.708 0.161016 116.098 0.5725 116.561L1.16289 117.244L0.554609 117.073C0.161016 116.976 -0.0178906 117 0.0536719 117.171C0.125234 117.317 0.518828 117.487 0.948203 117.536C1.48492 117.634 2.02164 117.951 2.6657 118.609L3.59602 119.559L2.96984 119.632C2.55836 119.681 2.00375 119.462 1.27023 118.974C0.679844 118.56 0.143125 118.219 0.0894531 118.219C0.0357813 118.219 0 118.609 0 119.072V119.925H112.443C213.024 119.925 224.903 119.876 224.993 119.559C225.154 118.999 226.996 117.951 228.052 117.804L229 117.658V112.905C229 109.176 228.946 108.201 228.785 108.42C228.66 108.591 228.428 108.712 228.249 108.712C227.998 108.712 227.944 108.591 228.016 108.152C228.732 104.008 229 101.351 228.982 98.4994C228.964 96.8175 228.911 95.6719 228.875 95.94C228.821 96.33 228.589 96.5494 228.016 96.7444C226.96 97.11 226.978 97.11 227.086 96.2081L227.193 95.4281L226.907 96.2812C226.585 97.305 226.728 97.1587 225.833 97.3781L225.064 97.5487V95.2331C225.064 92.7225 225.154 92.1375 225.529 92.1375C225.833 92.1375 226.066 91.5281 226.191 90.3581C226.263 89.7487 226.227 89.505 226.102 89.6025C225.994 89.7 225.941 89.6269 225.994 89.4319C226.066 89.115 227.032 88.4812 228.535 87.75C229.519 87.2869 228.875 87.2625 227.64 87.75C226.96 88.0181 226.388 88.2375 226.37 88.2375C226.12 88.2375 226.531 87.36 227.658 85.4587C228.517 84.0206 229 82.9725 229 82.6069C228.982 82.1194 228.642 82.5094 226.943 84.8981L224.921 87.7744L224.814 85.995C224.76 85.02 224.688 82.0706 224.67 79.4625C224.617 75.3431 224.653 74.5875 224.939 73.7344C225.171 73.0031 225.189 72.8812 224.975 73.2225C224.831 73.4906 224.688 73.8319 224.67 73.9537C224.67 74.1 224.599 73.7344 224.527 73.125C224.402 72.0281 224.402 72.0281 224.384 73.5394C224.348 74.9531 224.205 75.4406 221.361 83.1675L218.355 91.2844L218.248 88.8469C218.176 87.2625 218.212 85.8244 218.373 84.7031C218.498 83.7525 218.695 82.29 218.802 81.4369C218.999 79.9987 219.16 79.6087 221.164 75.9525C223.543 71.6381 223.508 71.4919 221.039 75.4162C220.162 76.83 219.375 77.9756 219.321 77.9756C219.25 78 219.268 77.5856 219.357 77.0737C219.733 74.8312 221.146 64.7644 221.074 64.6912C221.039 64.6425 220.341 68.0306 219.536 72.2231C218.713 76.3912 217.944 80.0475 217.818 80.3156C217.693 80.5837 217.317 81.2419 216.978 81.7781L216.351 82.7287L216.119 78C215.994 75.3919 215.833 72.8569 215.743 72.3937C215.636 71.8087 215.618 72.2719 215.672 73.8562C215.743 75.7331 215.815 82.2412 215.761 83.5331C215.761 83.7037 215.689 83.85 215.6 83.85C215.51 83.85 215.332 82.8994 215.206 81.705C214.956 79.365 214.705 78.1462 214.705 79.2187C214.705 79.56 214.813 80.8762 214.938 82.1437C215.135 84.0206 215.153 84.5325 214.956 84.7762C214.777 85.0444 214.723 84.4837 214.616 81.8512C214.401 75.6844 214.419 75.1481 215.027 73.2469C215.403 72.1012 215.797 70.395 215.707 70.2975C215.672 70.2487 215.367 70.98 215.027 71.955L214.437 73.7344L214.312 71.6625C214.24 70.5169 214.115 66.4706 214.043 62.6437C213.882 54.8681 213.686 55.3068 213.614 63.6187C213.596 66.3731 213.525 70.0537 213.453 71.8331L213.346 75.0506L211.843 76.7812C211.02 77.7319 210.322 78.4631 210.286 78.4387C210.233 78.3656 211.718 64.6425 211.932 63.2531C212.004 62.8387 212.004 62.5706 211.95 62.6437C211.897 62.7169 211.288 66.2269 210.591 70.4437C209.159 79.0969 208.945 80.2425 208.676 80.3644C208.569 80.4131 208.229 79.6331 207.907 78.6094L207.334 76.7569L207.531 72.7106C207.782 67.1044 207.657 67.1287 207.156 72.735C206.941 75.1237 206.941 75.1481 206.673 74.4412C206.118 73.0275 206.1 71.9062 206.565 70.6387C206.798 70.005 206.959 69.4687 206.905 69.4687C206.869 69.4687 206.69 69.81 206.547 70.2244C206.386 70.6387 206.225 70.9312 206.172 70.8825C206.136 70.8094 205.903 67.3969 205.671 63.2775C205.241 55.9406 205.009 53.43 205.134 57.6956C205.17 58.8656 205.241 62.1319 205.277 64.9594C205.349 69.3712 205.313 69.9806 205.098 69.4687C204.776 68.6644 204.794 68.9325 205.116 70.2C205.617 72.1256 205.51 72.6375 203.917 76.0744C203.094 77.805 202.397 79.2187 202.343 79.2187C202.128 79.2187 201.466 77.5369 201.663 77.4637C201.914 77.3419 201.699 75.3187 201.359 74.685C201.073 74.1244 200.93 74.295 200.715 75.3675C200.572 76.1231 200.572 76.0987 200.643 75.1725C200.733 74.1975 201.806 68.8837 202.898 64.1062C203.738 60.3769 203.488 60.9862 202.11 65.9587C201.395 68.5181 200.733 70.7606 200.625 70.9556C200.518 71.1506 200.286 71.8819 200.107 72.5887L199.803 73.905L198.711 70.7119C198.121 68.9569 197.602 67.5675 197.566 67.6162C197.53 67.665 197.835 68.835 198.228 70.2C198.622 71.5894 198.908 72.7594 198.872 72.8081C198.836 72.8569 198.568 72.3694 198.264 71.7356C197.96 71.1019 197.405 70.005 197.029 69.3225L196.35 68.0794L196.564 63.2287C196.672 60.5718 196.815 57.0131 196.868 55.3312C196.94 52.6743 196.94 52.5037 196.779 53.9906C196.582 56.0137 195.723 65.8369 195.723 66.3244C195.706 66.7387 194.829 65.4225 194.829 65.0081C194.829 64.8375 194.668 64.5694 194.471 64.3987C194.131 64.1306 194.131 64.1306 194.31 64.545C194.489 64.935 194.328 65.4469 193.29 67.8356C192.61 69.3956 192.02 70.6631 191.966 70.6631C191.913 70.6631 191.626 70.2244 191.322 69.6637L190.75 68.6644L191.126 67.7869L191.483 66.9094L191.036 67.6162L190.589 68.3231L189.408 66.2756C188.746 65.1544 188.209 64.0819 188.209 63.9112C188.209 63.7406 188.567 61.62 189.014 59.1825C189.462 56.7694 189.802 54.7462 189.766 54.6975C189.73 54.6487 189.283 56.4281 188.782 58.6706C188.281 60.9375 187.798 63.0825 187.691 63.4969C187.583 63.8869 187.064 66.2512 186.528 68.7375C185.991 71.2237 185.436 73.6612 185.311 74.1487L185.079 75.075L183.844 72.2231L182.61 69.3712L182.789 68.1281C183.021 66.5925 182.95 66.4462 182.628 67.7869L182.377 68.8106L180.069 63.4237C178.799 60.45 177.725 58.0856 177.672 58.1343C177.636 58.2075 177.69 58.4025 177.797 58.5487C177.922 58.7194 178.012 59.0362 178.012 59.2556C178.012 59.4994 178.083 59.7187 178.155 59.7675C178.244 59.7919 179.175 62.1806 180.23 65.0325L182.144 70.2487L181.715 71.9794L181.268 73.6856L181.16 72.6131C181.017 71.3212 180.66 69.42 180.588 69.5419C180.552 69.5662 180.642 70.6387 180.785 71.9062C181.107 74.7825 181.107 75.1237 180.821 75.66C180.624 76.0256 180.516 75.1969 180.087 70.0294C179.801 66.7144 179.532 63.9112 179.461 63.8137C179.407 63.7162 179.443 66.69 179.568 70.395L179.783 77.1469L179.049 78.0487C177.797 79.56 177.797 79.4869 177.922 71.4431C177.976 67.6162 178.065 63.4237 178.119 62.1562C178.316 57.7444 178.012 60.1575 177.564 66.5681C177.314 70.1025 177.028 73.8075 176.938 74.7825C176.831 75.7575 176.759 76.7081 176.759 76.8544C176.742 77.2687 175.901 74.2462 173.271 64.4231C172 59.6944 170.945 55.8675 170.909 55.9162C170.855 55.9893 171.195 57.5494 173.736 69.03C174.791 73.7831 174.881 74.6119 174.684 76.3425C174.577 77.22 174.559 77.22 174.165 76.8787C173.682 76.44 173.253 74.0756 173.539 73.3687C173.79 72.7106 173.754 72.54 173.45 72.8812C173.307 73.0519 173.181 73.0762 173.181 72.9544C173.181 72.8569 172.662 69.3956 172.036 65.325C171.41 61.23 170.802 57.1106 170.677 56.1843C170.551 55.2337 170.372 54.1368 170.301 53.7468C169.997 52.3575 170.247 54.99 171.392 65.2519L172.501 75.2944L171.571 77.3662C171.07 78.5119 170.587 79.5112 170.48 79.5844C170.176 79.8525 170.301 77.7075 170.641 77.1712C170.927 76.6837 170.927 76.6837 170.623 77.0006C170.337 77.3175 170.319 77.2444 170.39 75.9037C170.444 75.1237 170.444 74.7094 170.39 75.0019C170.337 75.3187 170.211 75.5625 170.122 75.5625C170.033 75.5625 169.961 75.9281 169.961 76.3912C169.961 77.5125 169.639 78.6337 169.406 78.3169C169.299 78.1706 169.335 77.7562 169.514 77.1225L169.8 76.1719L169.353 76.9031C168.78 77.805 168.619 77.61 168.977 76.3912L169.263 75.4406L168.834 76.0987C168.619 76.4887 168.369 76.7812 168.315 76.7812C168.172 76.7812 168.512 74.8312 169.514 69.81C169.979 67.5919 170.301 65.715 170.265 65.6662C170.229 65.6175 169.854 66.9337 169.442 68.6156C169.013 70.2731 168.404 72.5887 168.1 73.7587L167.51 75.855L166.812 74.7581C166.419 74.1487 165.953 73.2712 165.757 72.8081C165.417 71.955 165.417 71.9306 165.9 69.81C166.454 67.2994 166.419 66.8119 165.828 68.9569C165.345 70.7606 165.238 70.785 165.578 68.9812C165.721 68.25 165.81 67.6162 165.775 67.5919C165.739 67.5431 165.506 68.2256 165.274 69.1275L164.826 70.7606L164.433 69.9806C164.039 69.225 164.039 69.225 164.218 63.7162C164.522 55.0144 164.433 54.1612 163.968 61.425C163.628 67.0069 163.538 67.8112 163.306 67.6162C163.198 67.5187 163.198 67.6406 163.324 67.9331C163.449 68.2987 163.395 69.8344 163.127 73.515C162.93 76.3181 162.733 78.6581 162.697 78.7069C162.429 79.1212 162.268 76.245 162.518 75.3187C162.662 74.8069 162.644 74.7825 162.411 75.0994C162.268 75.2944 162.089 75.7087 162.035 76.05C161.767 77.415 161.606 77.4637 160.837 76.3669C160.211 75.465 160.139 75.2456 160.3 74.8069C160.497 74.3194 160.407 72.7837 160.139 72.1987C159.871 71.5894 159.423 72.1744 159.352 73.1981C159.316 73.7587 159.28 73.0031 159.262 71.4919C159.227 69.2006 159.423 64.6425 159.835 58.2562C159.906 57.3056 159.889 57.135 159.781 57.6712C159.71 58.0856 159.584 58.5243 159.531 58.6706C159.477 58.7925 159.298 60.5475 159.137 62.595C158.994 64.6181 158.744 66.6412 158.618 67.08C158.493 67.5187 158.278 68.445 158.171 69.1275C158.046 69.8344 157.76 70.6144 157.545 70.9069C157.169 71.3944 157.133 71.3944 156.883 71.0044C156.722 70.7606 156.471 69.9319 156.293 69.1519C156.114 68.3719 155.935 67.7869 155.881 67.86C155.827 67.9331 155.881 68.3231 155.988 68.7619C156.096 69.2006 156.185 69.6637 156.185 69.7856C156.185 69.9319 155.398 68.9812 154.414 67.6894C153.448 66.3975 152.607 65.325 152.535 65.325C152.464 65.325 153.251 66.5681 154.289 68.1037L156.167 70.8825L155.809 72.1987C155.487 73.4175 154.986 74.1975 153.859 75.3187C153.412 75.7575 153.394 75.7575 153.376 75.27C153.341 74.6362 152.822 73.5637 152.625 73.7344C152.392 73.905 152.285 72.8812 152.07 68.0062C151.587 57.4519 151.587 57.4031 151.551 65.1544C151.534 70.59 151.48 72.4181 151.319 72.345C151.051 72.2231 150.603 70.4437 150.711 69.8831C150.746 69.6637 150.711 69.5175 150.621 69.615C150.532 69.6881 150.46 69.9075 150.46 70.1025C150.46 70.2975 150.389 70.4194 150.299 70.3219C150.21 70.2487 150.174 69.1275 150.21 67.8112C150.299 65.1787 150.192 65.0569 150.013 67.5919C149.906 69.1519 149.87 69.225 149.637 68.7619C149.423 68.3719 149.423 68.1281 149.566 67.7137C149.745 67.2019 149.745 67.2019 149.512 67.5919C149.261 67.9819 149.244 67.9819 148.957 67.3969C148.671 66.8119 148.689 66.7387 149.083 65.8856C149.315 65.3737 149.601 64.7156 149.727 64.3987C150.102 63.4237 149.798 63.8381 149.208 65.0812C148.886 65.7394 148.582 66.3 148.51 66.3C148.456 66.3 148.063 65.4956 147.651 64.5206C146.614 62.1075 146.184 61.425 146.989 63.4969C147.347 64.4231 147.812 65.5687 148.009 66.0075L148.367 66.8362L147.329 68.8594C146.775 69.9806 145.934 71.3456 145.469 71.8575L144.628 72.8325L144.198 71.7844L143.769 70.7362L145.057 64.5694C145.755 61.1812 146.31 58.3781 146.274 58.3293C146.238 58.2806 145.415 61.2056 143.501 68.1769C143.34 68.7619 143.179 69.225 143.125 69.225C143.071 69.225 142.892 68.9081 142.714 68.5181C142.338 67.665 142.409 67.3969 143.554 64.74C144.485 62.5706 144.646 61.9369 143.823 63.6919C143.501 64.3256 143.232 64.8131 143.197 64.7644C143.161 64.7156 143.662 62.4 144.306 59.6212C144.95 56.8181 145.433 54.4781 145.379 54.4294C145.343 54.3806 145.254 54.5756 145.182 54.8925C145.111 55.2094 144.413 57.8175 143.626 60.6937C142.839 63.57 142.123 66.1537 142.052 66.3975C141.944 66.8119 141.855 66.7144 141.443 65.7394C140.746 64.1306 140.656 64.3012 141.318 65.9587C141.622 66.7144 141.819 67.4456 141.765 67.5675C141.694 67.6894 141.175 66.5925 140.567 65.1056C139.976 63.6187 139.457 62.4487 139.422 62.4975C139.386 62.5462 139.833 63.9112 140.424 65.4956L141.479 68.4206L140.209 70.9069C138.652 73.9294 138.724 74.1 139.01 67.1531C139.118 64.4719 139.243 60.7425 139.314 58.89C139.386 56.5012 139.511 55.0875 139.744 54.1612C140.137 52.5769 140.155 52.2356 139.797 53.2594C139.547 53.9418 139.547 53.7712 139.636 51.2362C139.69 49.7494 139.708 48.5062 139.654 48.5062C139.583 48.5062 139.547 48.6768 139.547 48.8718ZM29.2154 57.3056C29.4301 58.2562 29.448 58.7194 29.287 59.3044C29.1259 59.9625 29.0902 60.0112 28.9649 59.5725C28.8218 59.085 28.7502 56.0625 28.8755 56.0625C28.9291 56.0625 29.0723 56.6231 29.2154 57.3056ZM57.5005 60.6937C58.0909 66.5194 58.6991 73.4419 58.6097 73.5394C58.5739 73.6125 58.6097 73.9781 58.717 74.3437C58.8602 74.9287 58.8065 75.2212 58.4308 76.0987C57.9656 77.1469 57.9298 77.1225 57.7152 75.7575C57.6257 75.2456 57.6973 75.0262 57.9835 74.8312C58.1803 74.6606 58.3056 74.49 58.2519 74.4169C58.1982 74.3437 58.0372 74.4169 57.8941 74.5631C57.6973 74.8069 57.6257 74.7581 57.5363 74.4169C57.4647 74.0756 56.7133 68.4694 56.2302 64.6912C56.1229 63.7406 56.9101 57.135 57.089 57.5737C57.1606 57.7444 57.3395 59.1581 57.5005 60.6937ZM97.325 63.375C97.7186 66.3975 98.0406 68.9812 98.0406 69.0787C98.0406 69.1762 97.9154 69.225 97.7723 69.1275C97.5576 69.03 97.5397 69.0787 97.6649 69.42C97.7723 69.6881 97.7544 70.0294 97.5934 70.4194C97.4324 70.8581 97.3429 70.9069 97.2713 70.6631C97.2177 70.4681 97.164 70.6387 97.164 71.0287C97.1461 71.3944 96.8599 72.4669 96.502 73.3931C95.858 75.0506 95.8401 75.075 95.5717 74.5387C95.3213 74.0512 95.3391 73.32 95.7864 66.4462C96.2695 59.0606 96.4305 57.1594 96.5378 57.6469C96.5736 57.7931 96.9314 60.3525 97.325 63.375ZM35.817 61.1081C35.8707 61.815 35.8528 62.4 35.7813 62.4C35.6202 62.4 35.4234 60.9131 35.4234 59.8406C35.4413 58.695 35.7276 59.6212 35.817 61.1081ZM138.295 64.3987C138.098 66.7144 137.829 70.005 137.722 71.7112C137.597 73.4419 137.472 74.8312 137.418 74.8312C137.364 74.8312 137.06 74.295 136.738 73.6369C136.362 72.8325 136.237 72.3694 136.344 72.1256C136.434 71.9306 136.488 71.4431 136.488 71.0531C136.47 70.3462 136.452 70.3706 136.237 71.2969C136.094 71.8331 135.987 72.0525 135.987 71.8087C135.969 71.5406 136.541 68.7131 137.221 65.5444C137.919 62.3512 138.491 59.6456 138.491 59.5481C138.509 59.4506 138.545 59.5237 138.599 59.7675C138.634 59.9869 138.509 62.0587 138.295 64.3987ZM29.931 60.6937C30.0741 61.5956 29.8773 63.6431 29.6805 63.4969C29.4659 63.3019 29.287 61.3031 29.4301 60.4743C29.5732 59.5725 29.7879 59.67 29.931 60.6937ZM41.6315 65.2519C41.6136 66.3 41.5778 65.4956 41.5778 63.4969C41.5778 61.4737 41.6136 60.6206 41.6315 61.5956C41.6673 62.5706 41.6673 64.2037 41.6315 65.2519ZM78.0031 60.2062C78.0031 60.3525 78.4862 61.8394 79.0587 63.4969C79.9353 66.0319 80.15 66.8606 80.2573 68.3231L80.3647 70.0781L79.828 69.3469C79.5059 68.9325 78.844 67.3237 78.2715 65.5931L77.2696 62.5706L77.4843 61.2544C77.6095 60.5475 77.7706 59.9625 77.86 59.9625C77.9316 59.9625 78.0031 60.0844 78.0031 60.2062ZM131.049 67.7381C132.051 73.7587 132.248 75.5137 131.514 71.8575C131.281 70.7362 130.87 68.835 130.602 67.6406C130.297 66.3487 130.065 64.6181 129.993 63.375C129.94 62.2294 129.94 61.4006 129.975 61.5469C130.029 61.6687 130.512 64.4719 131.049 67.7381ZM34.8867 64.35C34.5826 65.1544 34.5289 64.8619 34.7615 63.4969C34.9583 62.3756 34.9762 62.3512 35.0298 63.0581C35.0656 63.4969 34.9941 64.0819 34.8867 64.35ZM31.2907 67.0312C32.0063 70.3462 32.0421 71.76 31.3444 69.4444C31.076 68.6156 30.8792 68.25 30.7182 68.3231C30.3425 68.5181 30.0563 66.4706 30.1815 64.6181C30.253 63.7162 30.3425 63.2287 30.432 63.3994C30.5035 63.5944 30.8792 65.2275 31.2907 67.0312ZM124.787 69.0056C124.894 70.0537 124.841 70.2731 124.233 71.5406L123.553 72.9056L122.837 71.7356C122.426 71.1019 121.835 70.1756 121.495 69.7125L120.887 68.8594L121.334 69.7125C121.567 70.1756 122.121 71.1994 122.551 71.9794C123.427 73.5637 123.427 73.4419 122.211 75.7331L121.549 77.0006L120.654 75.6112C119.134 73.2712 119.152 73.6612 120.44 70.0781C121.066 68.3231 121.889 66.0806 122.265 65.0812L122.962 63.2531L123.803 65.5687C124.286 66.8362 124.716 68.3962 124.787 69.0056ZM54.9242 67.7625C54.6022 69.4931 54.298 70.98 54.2265 71.0531C54.1549 71.1019 54.0118 70.6631 53.9045 70.0781C53.7434 69.1031 53.7971 68.8106 54.5485 66.2512C55.5683 62.8631 55.6935 63.375 54.9242 67.7625ZM77.7527 66.69C77.699 66.8606 77.7706 67.1287 77.9137 67.275C78.0389 67.4212 78.3252 68.1525 78.5398 68.9325C78.7545 69.6881 79.0945 70.785 79.2913 71.37C79.8638 73.1737 79.8816 73.6856 79.327 74.8069C78.6293 76.245 78.4504 75.8062 78.7009 73.3687C78.9156 71.37 78.8619 70.3462 78.6472 72.0769C78.5756 72.5887 78.4325 73.4175 78.3431 73.9537L78.1641 74.9044L77.5559 74.1C77.2159 73.6612 77.0013 73.1737 77.0549 73.0275C77.1086 72.8812 77.0907 72.8325 77.0191 72.9544C76.9297 73.0519 76.715 72.9544 76.5361 72.7106C76.232 72.345 76.2498 72.2475 77.0191 70.2487C77.9495 67.9087 77.7348 67.9331 76.6613 70.2975C76.2677 71.175 75.892 71.8819 75.8205 71.9062C75.5342 71.9062 75.6952 70.98 76.1425 69.8344C76.4824 68.9569 76.5182 68.7375 76.2856 69.0056C75.9994 69.2981 75.9815 69.2981 76.0709 68.9812C76.1246 68.7862 76.3572 67.5431 76.5898 66.2025L77.0191 63.7894L77.4306 65.0812C77.6632 65.7881 77.8063 66.5194 77.7527 66.69ZM29.108 66.105C29.0723 66.4219 29.0365 66.1781 29.0365 65.5687C29.0365 64.9594 29.0723 64.7156 29.108 65.0081C29.1438 65.325 29.1438 65.8125 29.108 66.105ZM189.301 66.69C190.267 68.5425 190.374 68.835 190.195 69.2981C189.873 70.1025 189.319 71.0531 189.247 70.9312C189.193 70.8581 188.907 69.6394 188.603 68.2012C188.084 65.8369 187.905 64.5937 188.102 64.5937C188.156 64.5937 188.692 65.5444 189.301 66.69ZM87.1989 66.5194C87.3063 67.47 87.2884 67.5675 87.0379 67.275C86.859 67.08 86.7695 66.5681 86.7695 65.8369C86.7874 64.5206 87.02 64.8862 87.1989 66.5194ZM100.474 66.8606L100.849 68.5912L100.205 70.59C99.5971 72.5156 99.5613 72.5644 99.4182 71.8819C99.3109 71.3456 99.3645 70.98 99.615 70.4925C100.313 69.1275 100.402 68.5669 99.7581 69.5662L99.1498 70.5412L98.9709 69.6394C98.8099 68.8594 98.8636 68.4937 99.3466 66.8119C99.6687 65.7394 99.9549 64.935 100.009 64.9837C100.062 65.0569 100.259 65.91 100.474 66.8606ZM34.4573 68.0794L33.9922 69.3469L34.0995 68.1281C34.1532 67.47 34.3321 66.495 34.4931 65.9344L34.7973 64.9594L34.8509 65.8856C34.8867 66.495 34.7615 67.2262 34.4573 68.0794ZM195.133 66.3244L195.616 67.2994L195.276 71.1262C195.097 73.2225 194.9 75.0994 194.847 75.2456C194.775 75.4406 194.274 74.7581 193.541 73.4662L192.342 71.37L193.451 68.3475C194.06 66.69 194.578 65.325 194.596 65.325C194.632 65.325 194.865 65.7637 195.133 66.3244ZM35.7813 72.5156L35.4413 73.7344L35.4592 69.5906V65.4469L35.7991 68.3719C36.1391 71.2237 36.1391 71.2969 35.7813 72.5156ZM40.5581 67.9331C40.5223 67.9819 40.3434 67.7869 40.1823 67.5431C39.9677 67.2019 39.8961 66.885 40.0034 66.495C40.1108 65.9831 40.1466 66.0075 40.3791 66.885C40.5044 67.4212 40.5938 67.8844 40.5581 67.9331ZM188.299 68.8837C188.549 70.3462 188.746 71.6869 188.746 71.9062C188.746 72.2475 186.868 76.1962 186.581 76.4156C186.51 76.4887 186.402 76.1962 186.331 75.7819C186.241 75.27 186.456 73.6369 186.993 70.5656C187.404 68.1037 187.78 66.1294 187.816 66.1781C187.852 66.2025 188.066 67.4212 188.299 68.8837ZM45.7821 69.4687C44.9591 72.6131 44.9234 72.3694 45.5495 68.1769C45.6927 67.2506 45.8 66.4462 45.8 66.3487C45.8179 66.2512 45.9252 66.4706 46.0684 66.8119C46.3009 67.3969 46.2652 67.6406 45.7821 69.4687ZM47.1597 67.1775C47.0881 67.3969 46.9987 67.5431 46.9629 67.47C46.9092 67.3969 46.9092 67.1531 46.9808 66.9337C47.0523 66.7144 47.1418 66.5681 47.1776 66.6412C47.2313 66.7144 47.2313 66.9581 47.1597 67.1775ZM16.1016 67.1531C16.2268 67.3725 16.2447 67.5187 16.1373 67.5187C16.0479 67.5187 15.9227 67.3481 15.8511 67.1531C15.7974 66.9581 15.7795 66.7875 15.8153 66.7875C15.8511 66.7875 15.9763 66.9581 16.1016 67.1531ZM14.5272 68.5669C14.9923 69.1031 15.4038 69.6881 15.4575 69.8831C15.5112 70.0781 14.9923 69.5419 14.3125 68.6887C13.6148 67.86 13.0602 67.1287 13.0602 67.08C13.0602 66.9581 13.3285 67.2262 14.5272 68.5669ZM28.0346 67.8112C27.9809 68.0062 27.9273 67.9331 27.9273 67.665C27.9094 67.3969 27.963 67.2506 28.0167 67.3481C28.0704 67.4212 28.0883 67.6406 28.0346 67.8112ZM56.1766 71.5162C56.4986 74.9287 56.5344 75.66 56.3197 75.8306C56.1945 75.9525 56.0692 75.9525 56.0513 75.855C55.6935 73.8562 55.4252 72.8812 55.2463 73.0275C55.1031 73.1494 55.0852 72.93 55.1568 72.2475C55.2284 71.7356 55.3715 70.395 55.4788 69.2737C55.6041 68.1769 55.7114 67.2994 55.7472 67.3237C55.7651 67.3725 55.9619 69.2494 56.1766 71.5162ZM87.843 71.6869C88.487 76.2937 88.4513 76.4887 87.5031 73.905C86.9484 72.3937 86.6264 71.8819 86.9484 72.9787C87.0379 73.2956 87.342 74.2219 87.6283 75.0019C88.0934 76.2694 88.1292 76.4887 87.9324 77.2444L87.7356 78.0975L87.4315 76.635C87.0558 74.88 86.8769 74.4656 86.5906 74.7094C86.4117 74.8556 86.3938 74.3194 86.4833 72.2475C86.5548 70.785 86.6443 69.0544 86.698 68.3962C86.8769 66.3731 87.2884 67.5187 87.843 71.6869ZM21.2898 68.0306C21.2898 68.1769 21.2183 68.2012 21.1109 68.1281C21.0215 68.055 20.932 67.86 20.932 67.7381C20.932 67.5919 21.0215 67.5675 21.1109 67.6406C21.2183 67.7137 21.2898 67.9087 21.2898 68.0306ZM40.5044 69.8344C40.4507 70.4925 40.3613 71.1019 40.3255 71.1506C40.2897 71.1994 40.0929 71.0531 39.8782 70.785C39.5562 70.395 39.5204 70.1512 39.6277 69.1275C39.7709 67.5187 39.8782 67.3481 40.2897 68.0306C40.5581 68.4937 40.5938 68.8594 40.5044 69.8344ZM45.1559 68.8106C44.9949 69.4931 44.7981 69.8831 44.6908 69.7856C44.5656 69.6881 44.5477 69.7612 44.6192 69.9319C44.7087 70.1025 44.7087 70.6387 44.6371 71.1262C44.5477 71.76 44.4761 71.9062 44.3688 71.6625C43.993 70.6631 44.0288 70.2731 44.655 68.9081C45.0128 68.1281 45.3348 67.5431 45.3706 67.5919C45.4064 67.6406 45.317 68.2012 45.1559 68.8106ZM63.5475 68.8594C64.1021 69.81 64.1379 69.9319 64.0842 71.5162C64.0484 72.4181 63.9769 73.125 63.9411 73.0519C63.798 72.8569 62.6172 68.2012 62.6172 67.8112C62.6172 67.3725 62.6709 67.4212 63.5475 68.8594ZM148.814 68.1037C148.975 68.5912 148.85 69.0056 147.705 71.4431C146.989 72.9787 146.31 74.1975 146.184 74.1487C146.059 74.1244 145.826 74.2219 145.665 74.3925C145.451 74.6606 145.451 74.5387 145.719 73.8562C146.488 71.7844 148.349 67.5187 148.474 67.5187C148.546 67.5187 148.707 67.7869 148.814 68.1037ZM67.8949 70.6144C67.8413 71.0531 67.716 71.4187 67.6266 71.4187C67.3761 71.4187 67.4119 70.4681 67.6623 68.9325L67.8949 67.6406L67.9486 68.7375C67.9844 69.3225 67.9665 70.1756 67.8949 70.6144ZM106.378 71.9794C106.664 74.3194 106.664 74.4412 106.288 77.5856C106.074 79.3406 105.877 80.8275 105.841 80.8519C105.805 80.9006 105.68 80.1206 105.573 79.1212C105.447 78.1462 105.251 77.1225 105.107 76.8787C104.642 76.0256 104.785 74.4169 105.465 72.6862C106.145 71.0287 106.199 70.2487 105.537 71.76C105.322 72.2475 105.125 72.6375 105.107 72.5887C105.036 72.4669 105.519 68.6644 105.662 68.1281C105.823 67.5919 105.787 67.3725 106.378 71.9794ZM19.0177 70.4437C20.288 71.8819 20.3953 72.0769 20.3953 72.93C20.3953 73.4419 20.3416 73.8562 20.2522 73.8562C19.8586 73.8562 18.6957 72.15 18.0516 70.6144C17.6402 69.6394 17.175 68.64 17.014 68.3962C16.7277 67.9087 16.7277 67.9087 17.1929 68.3962C17.4434 68.64 18.2663 69.5662 19.0177 70.4437ZM46.4083 68.835C46.3546 69.2006 46.2652 69.4444 46.2115 69.3956C46.1757 69.3225 46.1936 68.9812 46.2652 68.64C46.3188 68.2744 46.4083 68.0306 46.462 68.0794C46.4977 68.1525 46.4798 68.4937 46.4083 68.835ZM158.493 70.4194C158.368 71.6381 158.189 72.6375 158.099 72.6375C158.01 72.6375 157.974 72.4912 158.028 72.2962C158.082 72.1012 158.225 71.0531 158.35 69.9806C158.457 68.8837 158.583 68.0306 158.636 68.0794C158.672 68.1525 158.6 69.1762 158.493 70.4194ZM61.7227 71.6137C61.5795 72.8812 61.4364 73.5637 61.3648 73.3444C61.2038 72.9787 61.4364 69.5419 61.669 68.6644C61.9195 67.6894 61.9552 69.3712 61.7227 71.6137ZM74.5681 72.1987C74.4608 72.5887 74.3177 72.93 74.2461 73.0031C74.0135 73.1981 72.618 69.5662 72.7612 69.1031C72.8506 68.7862 73.0653 68.9812 73.7988 70.1025C74.6397 71.3944 74.7113 71.5894 74.5681 72.1987ZM142.678 69.4931C142.839 69.9075 142.928 70.2975 142.875 70.3706C142.803 70.4681 142.23 69.1762 142.23 68.8594C142.23 68.5425 142.427 68.8106 142.678 69.4931ZM21.7013 70.4925C21.7729 70.8337 21.8623 71.3212 21.9339 71.5894C21.9876 71.8331 21.8266 71.5406 21.5761 70.9312C21.3256 70.3219 21.1288 69.615 21.1109 69.3469C21.1109 68.8837 21.1109 68.8837 21.3614 69.3469C21.4866 69.615 21.6477 70.1269 21.7013 70.4925ZM34.5289 70.5656C34.4216 71.76 34.3858 71.8575 34.3679 71.0531C34.35 70.1512 34.511 68.8837 34.6184 69.03C34.6541 69.0787 34.6184 69.7612 34.5289 70.5656ZM149.673 71.9306C149.53 74.1731 149.136 75.5137 148.278 76.7081C147.616 77.6344 147.061 78.1219 147.311 77.5612C147.437 77.2687 146.793 76.0012 146.632 76.2206C146.435 76.4887 147.186 74.2462 148.242 71.37L149.1 69.0056L149.44 69.6637C149.709 70.2 149.745 70.6144 149.673 71.9306ZM198.013 72.4425L199.48 75.5381L198.836 77.8537C198.479 79.1456 198.121 80.1206 198.031 80.0475C197.942 79.9744 197.87 80.1694 197.87 80.4862C197.87 80.9494 197.763 80.8519 197.262 79.8769C196.886 79.17 196.69 78.5362 196.743 78.2437C196.851 77.6587 196.457 76.0012 196.242 76.1719C195.884 76.4887 196.117 74.9775 196.564 74.1487L197.047 73.2469L196.546 73.8562L196.028 74.4656L196.153 72.7594C196.206 71.8087 196.26 70.5656 196.26 69.9562C196.26 69.3712 196.332 68.9812 196.403 69.1031C196.493 69.2494 197.208 70.7362 198.013 72.4425ZM88.8985 71.2969C89.1669 73.2469 88.8448 73.3931 88.4691 71.4919C88.2902 70.59 88.1113 69.6637 88.0577 69.4687C88.004 69.225 88.0934 69.2494 88.3439 69.5906C88.5586 69.8587 88.8091 70.6144 88.8985 71.2969ZM191.609 71.37C191.609 71.5406 191.269 72.3937 190.857 73.2712L190.124 74.88L189.802 73.4662C189.623 72.6619 189.462 71.9794 189.462 71.9062C189.462 71.8331 189.712 71.1994 190.016 70.4925L190.553 69.1762L191.072 70.1269C191.358 70.6387 191.609 71.1994 191.609 71.37ZM104.946 70.9312C104.75 72.0281 104.696 72.1256 104.678 71.4919C104.66 70.8094 105 69.3469 105.125 69.5419C105.161 69.5662 105.072 70.2 104.946 70.9312ZM47.1955 70.6387C47.3386 71.1994 47.3207 71.3456 47.1239 71.3456C46.9629 71.3456 46.8734 71.0775 46.8734 70.6387C46.8734 70.2731 46.9092 69.9562 46.945 69.9562C46.9808 69.9562 47.0881 70.2731 47.1955 70.6387ZM52.0259 71.2237C51.9365 71.4675 51.8113 71.6625 51.7218 71.6625C51.3998 71.6625 51.3819 71.3212 51.6502 70.59C51.9186 69.9075 51.9544 69.8831 52.0617 70.3219C52.1333 70.59 52.1154 71.0044 52.0259 71.2237ZM73.1548 73.905C72.9043 75.7575 72.7612 76.0256 72.3139 75.4894C72.135 75.27 71.9024 75.075 71.813 75.075C71.7235 75.075 71.8488 75.2944 72.0813 75.5381C72.3676 75.8306 72.4749 76.1231 72.4034 76.3912C72.296 76.7569 72.2066 76.7325 71.652 76.1475C71.312 75.8062 71.0258 75.3919 71.0258 75.2456C71.0258 75.1237 71.3657 73.8319 71.7772 72.4181L72.5286 69.8587L72.958 71.1262C73.3337 72.2962 73.3516 72.4912 73.1548 73.905ZM80.5078 71.5162C80.4899 71.9306 80.4363 71.8575 80.15 71.175C79.7027 70.0781 79.7027 69.6881 80.15 70.4194C80.3468 70.7362 80.5078 71.2237 80.5078 71.5162ZM101.44 74.5875C101.118 75.1237 100.832 75.5625 100.76 75.5625C100.706 75.5625 100.742 75.4406 100.867 75.27C100.993 75.0994 101.082 74.7581 101.082 74.4656C101.064 73.905 100.563 72.5887 100.545 73.1006C100.545 73.2956 100.51 73.3931 100.456 73.32C100.402 73.2469 100.527 72.4425 100.742 71.5162L101.136 69.8344L101.565 71.7356L101.994 73.6369L101.44 74.5875ZM142.159 73.2956C141.926 74.1975 141.551 75.6112 141.318 76.4156L140.907 77.8781L140.781 77.025C140.674 76.3669 140.799 75.4406 141.3 73.0762L141.962 69.9806L142.266 70.785C142.57 71.5894 142.57 71.6625 142.159 73.2956ZM53.5824 72.1012C53.4214 72.345 53.1352 71.0775 53.2425 70.6144C53.3677 70.1512 53.4035 70.2244 53.5109 71.0531C53.5824 71.5894 53.6003 72.0769 53.5824 72.1012ZM164.469 71.6137C164.433 72.4912 164.111 74.0269 163.985 73.8319C163.968 73.7831 163.968 72.93 164.021 71.955C164.075 70.6631 164.146 70.2244 164.29 70.4194C164.397 70.5656 164.486 71.1019 164.469 71.6137ZM27.3727 71.8331C27.3727 72.6375 27.319 72.9056 27.1759 72.7106C27.0148 72.4912 27.1222 70.6875 27.3011 70.6875C27.3369 70.6875 27.3727 71.1994 27.3727 71.8331ZM125.234 71.37C125.234 71.5894 125.431 72.8812 125.682 74.2219C125.914 75.5381 126.093 76.6594 126.075 76.6837C126.057 76.7081 125.664 76.1475 125.199 75.3919L124.34 74.0756L124.823 73.1737L125.306 72.2719L124.733 72.9787C124.429 73.3687 124.107 73.6125 124.036 73.515C123.857 73.2712 124.877 70.6631 125.073 70.8337C125.163 70.9069 125.234 71.1506 125.234 71.37ZM65.2113 72.7594C65.0145 74.4656 64.7641 74.3194 64.7641 72.4912C64.782 70.9312 64.7999 70.8337 65.0503 71.2969C65.2471 71.6381 65.3008 72.0769 65.2113 72.7594ZM98.3984 71.6381C98.3984 71.8575 98.2732 72.2719 98.1122 72.54C97.8438 72.9787 97.8438 72.9787 97.9333 72.3937C97.987 72.0525 98.0406 71.5894 98.0406 71.3456C98.0406 71.1019 98.1301 70.98 98.2195 71.0531C98.3269 71.1262 98.3984 71.3944 98.3984 71.6381ZM183.576 73.9537L184.703 76.9762L184.273 78.8531C184.041 79.8769 183.79 80.7544 183.719 80.8275C183.647 80.8762 183.522 80.5837 183.468 80.145C183.397 79.7062 183.272 79.1944 183.182 78.975C182.86 78.2194 181.948 74.4656 181.948 73.9537C181.948 73.3444 182.305 70.9312 182.395 70.9312C182.413 70.9312 182.95 72.2962 183.576 73.9537ZM81.8317 71.565C81.9212 71.9062 81.9033 71.9306 81.6707 71.6625C81.3666 71.3212 81.3308 71.175 81.5634 71.175C81.6528 71.175 81.7781 71.3456 81.8317 71.565ZM117.846 72.2231L118.4 73.2469L117.953 74.295C117.47 75.4162 117.273 75.5137 116.826 74.9531C116.557 74.6119 116.54 74.4169 116.736 73.1494C116.933 71.8819 117.112 71.175 117.255 71.175C117.273 71.175 117.541 71.6381 117.846 72.2231ZM156.543 71.8575C156.543 72.1012 156.382 72.4181 156.185 72.5887C155.774 72.93 155.774 72.93 156.024 71.955C156.221 71.1506 156.543 71.1019 156.543 71.8575ZM157.652 71.7112C157.527 71.8819 157.438 71.9062 157.438 71.76C157.438 71.4187 157.652 71.1262 157.777 71.2969C157.813 71.37 157.76 71.565 157.652 71.7112ZM23.2399 72.6375C23.2399 72.8569 23.1326 72.735 22.9895 72.3937C22.6495 71.5894 22.6495 71.1994 22.9895 71.8087C23.1326 72.0525 23.2399 72.4425 23.2399 72.6375ZM40.1108 73.0519L40.0213 73.7344L39.7888 73.0031C39.6635 72.5887 39.5562 72.0525 39.5562 71.7844C39.5562 71.3212 39.5562 71.3212 39.8782 71.8331C40.0929 72.1987 40.1823 72.5887 40.1108 73.0519ZM91.4211 72.1744C91.4211 72.6619 91.1527 72.8081 90.9917 72.4181C90.8486 72.1012 91.0633 71.3944 91.2601 71.565C91.3495 71.6381 91.4211 71.9062 91.4211 72.1744ZM43.9573 72.1987C43.9036 72.3937 43.8499 72.3206 43.8499 72.0525C43.832 71.7844 43.8857 71.6381 43.9394 71.7356C43.993 71.8087 44.0109 72.0281 43.9573 72.1987ZM50.9525 73.2225C50.058 74.8069 50.0222 74.8069 50.6305 73.1494C51.042 72.0525 51.2388 71.6869 51.3461 71.9062C51.4534 72.1256 51.3103 72.5887 50.9525 73.2225ZM63.2076 74.49L63.6549 76.4887L62.9392 77.5369L62.2415 78.6094L62.3309 77.0494C62.3846 76.1962 62.4383 74.6606 62.4383 73.6369C62.4562 71.5162 62.5635 71.6381 63.2076 74.49ZM143.93 72.6619C144.091 73.0762 144.198 73.4662 144.163 73.515C144.109 73.5637 143.948 73.2225 143.787 72.7594C143.411 71.7112 143.554 71.6137 143.93 72.6619ZM67.4477 73.0519C67.4477 73.6856 67.1614 73.3444 67.1256 72.6862C67.1077 72.1744 67.1256 72.1256 67.2688 72.3937C67.3582 72.5887 67.4477 72.9056 67.4477 73.0519ZM84.247 73.905C84.8731 75.3431 84.569 75.0019 83.8176 73.4175C83.4598 72.6619 83.3167 72.2475 83.4956 72.5156C83.6924 72.7837 84.0323 73.4175 84.247 73.905ZM145.343 72.7594C145.182 73.1006 145.021 73.3687 144.968 73.3687C144.878 73.3687 145.057 72.93 145.326 72.4425C145.63 71.9062 145.648 72.1256 145.343 72.7594ZM193.29 74.4656C194.131 76.0744 194.453 76.8787 194.346 77.1225C194.149 77.61 191.77 80.925 191.626 80.925C191.412 80.925 191.126 78.8775 191.197 77.8537C191.251 77.1469 191.197 76.7812 191 76.5619C190.768 76.2937 190.714 76.2937 190.714 76.5375C190.714 76.7325 190.66 76.8056 190.607 76.7081C190.517 76.5862 191.931 72.15 192.056 72.15C192.074 72.15 192.628 73.1981 193.29 74.4656ZM90.294 72.93C90.2403 73.125 90.1866 73.0519 90.1866 72.7837C90.1688 72.5156 90.2224 72.3694 90.2761 72.4669C90.3298 72.54 90.3477 72.7594 90.294 72.93ZM140.03 73.6369C139.815 74.3194 139.618 74.7581 139.583 74.6119C139.529 74.3925 140.209 72.3937 140.334 72.3937C140.388 72.3937 140.245 72.9544 140.03 73.6369ZM150.192 74.1C149.888 74.49 149.87 74.295 150.049 73.1006L150.174 72.2719L150.317 73.0031C150.406 73.515 150.371 73.8319 150.192 74.1ZM157.438 73.0762C157.438 73.4419 157.402 73.4419 157.259 73.125C157.026 72.6375 157.026 72.3206 157.259 72.5156C157.366 72.5887 157.438 72.8569 157.438 73.0762ZM53.1531 74.2706C53.332 74.8556 53.4572 75.3187 53.4214 75.3187C53.3856 75.3187 53.1531 74.88 52.8847 74.3437C52.5984 73.7587 52.4732 73.2225 52.5448 72.9544C52.6342 72.6375 52.6879 72.6131 52.7416 72.9056C52.7952 73.0762 52.9741 73.71 53.1531 74.2706ZM68.1275 74.2219L68.1454 74.7094L67.9844 74.2219C67.8949 73.9537 67.8413 73.4662 67.8413 73.125V72.5156L67.9844 73.125C68.0559 73.4662 68.1275 73.9537 68.1275 74.2219ZM156.829 73.2956C156.883 73.6856 156.954 74.1 156.99 74.2706C157.115 74.8069 155.792 79.4625 155.452 79.7306C155.183 79.9256 155.13 79.8769 155.219 79.5356C155.309 79.17 155.273 79.17 155.022 79.5844C154.79 79.9744 154.718 79.9987 154.593 79.7306C154.414 79.365 154.45 79.0969 155.058 76.2937C155.452 74.49 156.203 72.7106 156.579 72.6619C156.65 72.6375 156.758 72.93 156.829 73.2956ZM98.6668 75.4894C98.5237 76.635 98.3269 76.4887 98.1122 75.0994C97.9691 74.1487 97.987 73.8075 98.2017 73.3687C98.47 72.8081 98.4879 72.8081 98.631 73.7587C98.7026 74.2706 98.7205 75.075 98.6668 75.4894ZM103.801 74.1487C103.766 74.8069 103.658 75.2456 103.569 75.1725C103.354 75.0019 103.372 74.295 103.587 73.4662C103.837 72.5887 103.891 72.7837 103.801 74.1487ZM131.228 76.0256C131.478 77.415 131.675 78.5606 131.639 78.6094C131.603 78.6337 131.407 78.78 131.192 78.9262C130.834 79.1944 130.816 79.1456 130.709 77.805C130.297 72.1744 130.423 71.7356 131.228 76.0256ZM30.0026 74.0269C29.9489 74.2706 29.9131 74.1244 29.9131 73.7344C29.9131 73.32 29.9489 73.1494 30.0026 73.2956C30.0384 73.4662 30.0384 73.8075 30.0026 74.0269ZM73.7631 73.4419C73.8167 73.6125 73.7452 73.9537 73.602 74.2219C73.3695 74.6362 73.3516 74.6362 73.3516 73.905C73.3516 73.125 73.602 72.8569 73.7631 73.4419ZM76.1604 74.3194C76.0173 74.5387 75.9457 74.5631 75.892 74.3681C75.8563 74.2219 75.7489 74.1487 75.6595 74.2462C75.4448 74.4169 75.4627 74.1731 75.6952 73.5881C75.8741 73.1006 75.892 73.1006 76.1246 73.5394C76.3035 73.8562 76.3214 74.0512 76.1604 74.3194ZM91.0633 74.1C91.0633 74.5875 90.7591 75.2212 90.616 75.0262C90.5445 74.9531 90.5624 74.4656 90.6339 73.9781C90.7234 73.3444 90.7949 73.1737 90.9023 73.4175C90.9917 73.5881 91.0633 73.905 91.0633 74.1ZM166.186 75.4162L167.098 77.7075L166.759 78.9994C166.079 81.6562 165.828 82.3387 165.542 82.29C165.202 82.2169 165.166 81.9975 165.005 79.2675C164.934 78 164.791 77.0981 164.647 76.8787C164.415 76.5619 164.433 76.2937 164.755 74.8312C164.969 73.8806 165.166 73.125 165.202 73.125C165.256 73.125 165.685 74.1487 166.186 75.4162ZM189.265 74.8556C189.569 77.0737 189.337 77.4881 188.675 75.9525C188.209 74.88 188.209 74.8312 188.514 74.0025C188.675 73.515 188.871 73.125 188.925 73.125C188.997 73.125 189.158 73.905 189.265 74.8556ZM22.0413 74.2706C22.1665 74.88 21.9518 75.5869 21.7192 75.3675C21.6119 75.27 21.4688 74.7825 21.3972 74.2706C21.272 73.3931 21.2898 73.3444 21.6119 73.5881C21.8087 73.7344 22.0055 74.0269 22.0413 74.2706ZM69.1294 73.7587C69.1831 73.9537 69.1652 74.0512 69.0578 73.9781C68.9505 73.905 68.8789 73.7344 68.8789 73.5881C68.8789 73.2469 69.0042 73.32 69.1294 73.7587ZM143.125 74.9044C142.785 75.3675 142.731 75.3675 142.839 75.0019C142.892 74.7337 143 74.2462 143.071 73.905L143.179 73.2712L143.358 73.8075C143.519 74.2706 143.465 74.4656 143.125 74.9044ZM83.102 75.3187C83.7281 77.0006 83.7639 77.5856 83.263 77.8537C82.9946 78 82.7978 77.5125 82.5831 76.1719C82.4221 75.0262 82.2969 73.6125 82.3863 73.6125C82.44 73.6125 82.7441 74.3681 83.102 75.3187ZM89.2742 74.0756C89.2742 74.3194 89.31 74.9044 89.3637 75.3431C89.4352 76.0256 89.4352 76.0744 89.31 75.5625C88.988 74.2706 88.9164 73.6125 89.0953 73.6125C89.1848 73.6125 89.2742 73.8075 89.2742 74.0756ZM126.988 74.3681C126.934 74.5631 126.862 74.4412 126.791 74.1244C126.719 73.71 126.737 73.6125 126.88 73.8075C126.97 73.9294 127.023 74.1975 126.988 74.3681ZM137.257 75.9769C137.4 76.3912 137.328 76.7081 136.845 77.6587C136.273 78.8044 136.255 78.8287 136.13 78.2437C136.058 77.9025 136.005 76.7081 135.987 75.5869L135.969 73.5394L136.523 74.49C136.828 75.0262 137.167 75.6844 137.257 75.9769ZM151.337 75.1725C151.605 76.635 151.498 76.9031 151.194 75.5137C150.782 73.5394 150.764 73.4906 150.961 73.7344C151.051 73.8562 151.229 74.5144 151.337 75.1725ZM158.01 74.685C157.903 75.855 157.795 75.8062 157.795 74.5631C157.795 74.0269 157.867 73.6369 157.938 73.71C158.01 73.7831 158.046 74.2219 158.01 74.685ZM77.86 77.3175C77.6453 78.5119 77.2338 79.4625 76.9118 79.4625C76.3035 79.4625 75.9278 75.7819 76.393 74.5875L76.6077 74.0269L77.3412 75.0262L78.0747 76.0256L77.86 77.3175ZM123.803 74.295C123.803 74.4169 123.642 74.7094 123.427 74.9775C123.052 75.4406 123.052 75.4406 123.284 74.7581C123.499 74.1244 123.803 73.8562 123.803 74.295ZM152.553 74.88C152.5 75.0506 152.464 74.9287 152.464 74.5875C152.464 74.2462 152.5 74.1244 152.553 74.2706C152.589 74.4412 152.589 74.7337 152.553 74.88ZM205.438 78.3169L205.528 82.4362L205.116 81.7294C204.132 80.0962 203.971 79.9012 204.49 80.9981C204.991 82.0219 205.044 82.29 204.866 82.7775C204.758 83.0944 204.615 83.3625 204.526 83.3625C204.293 83.3625 203.774 81.9975 203.774 81.3394C203.774 80.73 203.381 80.0719 203.184 80.3644C203.112 80.4375 203.059 80.3887 203.059 80.2181C203.059 80.0475 203.327 79.5844 203.649 79.1944C203.953 78.78 204.078 78.5362 203.899 78.6337C203.631 78.78 203.613 78.7069 203.774 78.1219C204.007 77.3175 205.259 74.0756 205.313 74.1731C205.331 74.1975 205.384 76.0744 205.438 78.3169ZM67.072 75.3187C67.072 75.5625 67.0183 75.5137 66.9109 75.1969C66.6963 74.5387 66.6963 74.1487 66.9109 74.5875C67.0004 74.7825 67.072 75.1237 67.072 75.3187ZM93.2102 74.8556C93.2102 75.0019 93.1386 75.0262 93.0313 74.9531C92.9418 74.88 92.8523 74.685 92.8523 74.5631C92.8523 74.4169 92.9418 74.3925 93.0313 74.4656C93.1386 74.5387 93.2102 74.7337 93.2102 74.8556ZM101.798 75.8306C101.243 76.8544 101.154 76.5375 101.655 75.3431C101.905 74.7581 102.084 74.49 102.12 74.7094C102.155 74.9044 102.012 75.4162 101.798 75.8306ZM120.082 76.245C120.869 77.7075 121.048 78.195 120.887 78.4631C120.744 78.6825 120.672 78.7069 120.619 78.5119C120.583 78.3656 120.475 78.2437 120.386 78.2437C120.207 78.2437 118.257 76.3181 118.257 76.1475C118.257 75.9281 118.865 74.3437 118.955 74.3437C119.008 74.3681 119.527 75.1969 120.082 76.245ZM150.711 75.8062C150.782 76.4887 150.872 77.1956 150.925 77.3662C150.997 77.5856 150.818 77.8781 150.478 78.0975C150.192 78.3169 149.923 78.4875 149.888 78.4875C149.852 78.4875 149.87 77.6831 149.888 76.7325C149.977 74.1 150.496 73.5394 150.711 75.8062ZM47.7143 75.1237C47.6606 75.3187 47.607 75.2456 47.607 74.9775C47.5891 74.7094 47.6427 74.5631 47.6964 74.6606C47.7501 74.7337 47.768 74.9531 47.7143 75.1237ZM70.1313 75.0994C70.1313 75.2456 70.0597 75.27 69.9523 75.1969C69.8629 75.1237 69.7734 74.9287 69.7734 74.8069C69.7734 74.6606 69.8629 74.6362 69.9523 74.7094C70.0597 74.7825 70.1313 74.9775 70.1313 75.0994ZM73.8167 75.66C73.6736 76.1475 73.4589 76.5375 73.3516 76.5375C73.2442 76.5375 73.3158 76.1231 73.5484 75.5625C74.0314 74.3925 74.1924 74.4412 73.8167 75.66ZM115.77 75.1481C115.591 75.3675 115.573 75.3431 115.681 75.0019C115.734 74.7581 115.842 74.6362 115.895 74.7094C115.949 74.7825 115.895 74.9775 115.77 75.1481ZM20.2343 75.2456C20.4669 75.6356 20.449 75.66 20.1806 75.3431C20.0017 75.1725 19.8586 74.9775 19.8586 74.9287C19.8586 74.7337 20.0017 74.8556 20.2343 75.2456ZM51.8828 75.7331C51.686 76.1475 51.686 76.1475 51.7755 75.7331C51.8291 75.4894 51.8828 75.1481 51.9007 75.0019C51.9007 74.7825 51.9365 74.7825 51.9902 75.0019C52.0438 75.1725 51.9902 75.4894 51.8828 75.7331ZM53.2067 77.7562L53.0636 78.6094L52.9563 77.5125L52.831 76.4156L52.7773 77.3906L52.7416 78.3656L52.5806 77.3906C52.509 76.8544 52.4374 76.0256 52.4374 75.5625L52.4195 74.7094L52.8847 75.8062C53.2604 76.6837 53.3141 77.0494 53.2067 77.7562ZM80.8477 77.7562C80.8656 78.3412 80.8477 78.3412 80.2037 77.4637L79.5417 76.5619L79.8638 75.6356L80.2037 74.7094L80.5257 75.9281C80.6867 76.5862 80.8477 77.415 80.8477 77.7562ZM85.0699 75.075C85.0163 75.1969 84.8552 75.3187 84.7479 75.3187C84.6227 75.3187 84.6406 75.2212 84.8016 75.075C85.1415 74.7825 85.2131 74.7825 85.0699 75.075ZM125.127 76.6837L126.165 78.5606L125.878 80.0475C125.7 80.8762 125.503 81.705 125.431 81.8756C125.127 82.5337 124.877 81.8269 124.859 80.2425C124.841 79.3406 124.805 78.8775 124.751 79.2187C124.716 79.56 124.644 80.1937 124.59 80.6325L124.501 81.4125L124.089 80.7544C123.624 79.9744 123.302 78.9262 123.213 77.8781C123.159 77.22 123.141 77.1956 122.98 77.6344C122.801 78.195 122.372 78.39 122.372 77.9269C122.372 77.5856 123.803 74.8312 123.982 74.8312C124.054 74.8312 124.572 75.66 125.127 76.6837ZM154.664 76.1962C154.414 76.9519 154.217 77.6344 154.217 77.7075C154.217 77.805 154.092 77.61 153.931 77.2931C153.645 76.7569 153.663 76.7081 154.325 75.7819C154.7 75.27 155.022 74.8312 155.058 74.8312C155.076 74.8312 154.915 75.4406 154.664 76.1962ZM22.6316 76.245C22.4706 76.4644 22.1844 75.9769 22.1844 75.4894C22.2023 74.9775 22.2023 74.9775 22.4527 75.5625C22.578 75.9037 22.6674 76.2206 22.6316 76.245ZM116.897 76.5862C116.522 77.5612 116.2 77.1469 116.361 75.9281C116.486 75.0506 116.504 75.0506 116.826 75.4406C117.148 75.8306 117.148 75.9281 116.897 76.5862ZM143.894 75.6356C143.626 76.2694 142.356 78.4875 142.284 78.4875C142.23 78.4875 142.248 78.195 142.302 77.8294C142.463 77.025 143.644 75.0262 143.859 75.2212C143.948 75.2944 143.966 75.4894 143.894 75.6356ZM175.471 76.8544L175.829 78.5119L175.453 78.1706C175.131 77.9025 175.042 77.5369 175.006 76.3912C174.97 75.6112 174.988 75.0262 175.024 75.075C175.078 75.1481 175.274 75.9525 175.471 76.8544ZM188.567 77.3419C188.567 78.1706 188.514 78.4631 188.353 78.3412C188.209 78.2194 188.191 78.2925 188.263 78.585C188.335 78.8531 188.209 79.3406 187.941 79.9012C187.547 80.6812 187.494 80.73 187.494 80.2425C187.494 79.5112 187.172 78.6825 186.939 78.8531C186.635 79.1212 186.778 78.4875 187.422 76.7325C188.066 75.0019 188.066 74.9775 188.317 75.5869C188.442 75.9037 188.549 76.7081 188.567 77.3419ZM97.8438 76.3425C97.8617 76.4644 97.7902 76.5375 97.6828 76.5375C97.5934 76.5375 97.5039 76.245 97.5218 75.855C97.5218 75.27 97.5397 75.2456 97.6828 75.6844C97.7723 75.9525 97.8438 76.245 97.8438 76.3425ZM129.349 80.4131C129.349 80.535 129.224 80.7056 129.063 80.7787C128.866 80.8762 128.741 80.7544 128.669 80.3887C128.616 80.0719 128.312 79.17 127.99 78.3412C127.435 76.9275 127.31 76.3669 127.363 75.5625C127.381 75.1969 129.349 79.9987 129.349 80.4131ZM182.449 77.8781C182.967 80.1937 183.003 80.5106 182.789 81.2175C182.556 81.9975 182.538 81.9731 182.144 79.2187C181.93 77.6831 181.697 76.1719 181.644 75.855C181.59 75.5625 181.626 75.3187 181.697 75.3187C181.787 75.3187 182.127 76.4644 182.449 77.8781ZM67.5371 77.3662C67.3761 78.1462 67.1972 78.7312 67.1614 78.6825C67.1256 78.6094 67.1793 77.8781 67.2866 77.0494C67.4119 76.0987 67.555 75.6112 67.6623 75.7575C67.7697 75.9037 67.716 76.5131 67.5371 77.3662ZM212.308 80.4619C211.682 82.3875 210.948 84.5081 210.698 85.1906L210.233 86.4094L210.322 83.7769C210.376 82.0219 210.358 81.1687 210.233 81.1687C210.125 81.1687 210.036 80.925 210.036 80.6325C210.036 80.2669 210.591 79.3162 211.7 77.805C213.292 75.6112 213.346 75.5625 213.399 76.245C213.435 76.6837 213.042 78.195 212.308 80.4619ZM71.4194 76.7081C71.8488 77.3175 71.8666 77.4394 71.652 77.8537C71.4015 78.2925 71.3836 78.2925 71.2047 77.6587C71.1152 77.2931 70.9363 76.7812 70.8469 76.5131C70.5785 75.8306 70.8827 75.9525 71.4194 76.7081ZM115.395 76.83C115.395 77.4394 115.341 77.5369 115.216 77.2687C115.09 77.0006 115.037 77.1712 115.037 77.9269C115.037 78.9019 114.786 79.2919 114.446 78.8287C114.357 78.7069 115.198 76.05 115.341 76.05C115.377 76.05 115.395 76.4156 115.395 76.83ZM173.145 83.2406C172.931 83.5331 172.108 82.2169 172.108 81.5831C172.108 80.925 171.768 80.1937 171.482 80.1937C171.106 80.1937 171.124 80.0962 171.875 77.9025L172.555 75.9769L172.931 79.4869C173.181 81.7781 173.271 83.07 173.145 83.2406ZM56.7133 77.0737C56.7133 77.805 56.6954 77.8294 56.427 77.4637C56.266 77.2444 56.1766 76.8787 56.2302 76.6837C56.427 76.0256 56.7133 76.2694 56.7133 77.0737ZM149.226 77.7319C149.154 78.4387 148.975 79.1456 148.85 79.2919C148.671 79.5356 148.653 79.4381 148.743 78.8531C149.208 76.0987 149.494 75.4162 149.226 77.7319ZM206.673 78.0487C206.512 78.2681 206.458 78.0731 206.476 77.2444L206.494 76.1719L206.69 76.9762C206.816 77.5612 206.816 77.8537 206.673 78.0487ZM102.692 77.025C102.692 77.2931 102.585 77.4881 102.478 77.4394C102.352 77.415 102.263 77.5856 102.281 77.8537C102.299 78.1219 102.245 78.2194 102.138 78.0731C102.03 77.9269 102.03 77.5856 102.173 77.1956C102.424 76.4156 102.692 76.3425 102.692 77.025ZM111.387 76.9031C111.459 77.1225 111.28 77.5856 110.94 78.0487L110.403 78.8044L110.224 78.2194C110.099 77.7562 110.153 77.5125 110.439 77.0737C110.868 76.44 111.244 76.3669 111.387 76.9031ZM160.783 79.8525C160.479 80.6569 160.211 81.1444 160.121 81.0225C160.032 80.9006 159.924 79.8281 159.889 78.6337L159.817 76.4887L160.55 77.4881L161.266 78.4875L160.783 79.8525ZM224.17 82.875L224.08 89.0906L223.454 89.3587L222.828 89.6512L222.738 88.5056L222.649 87.3844L222.506 88.6275C222.398 89.7244 222.309 89.895 221.915 90.0169C221.486 90.1144 221.468 90.09 221.558 89.3587C221.611 88.9444 221.79 87.4087 221.951 85.9462C222.219 83.4356 222.416 82.5825 224.009 77.0494C224.098 76.7325 224.205 76.5131 224.223 76.5619C224.241 76.6106 224.223 79.4625 224.17 82.875ZM73.2084 77.5612C73.0474 77.7806 72.9938 77.7319 72.9938 77.2687C72.9938 76.8056 73.0474 76.7569 73.2084 76.9762C73.3695 77.1956 73.3695 77.3419 73.2084 77.5612ZM107.147 78.8775C107.165 79.6087 107.075 79.95 106.879 80.0475C106.628 80.1694 106.592 80.0719 106.7 79.2919C106.753 78.78 106.807 77.9756 106.825 77.5125C106.843 76.7325 106.861 76.7081 106.986 77.2687C107.058 77.61 107.129 78.3412 107.147 78.8775ZM119.814 78.7069C120.136 79.0725 120.404 79.4381 120.404 79.5356C120.404 80.0962 119.778 79.8769 118.722 78.975C117.631 78.0244 117.577 77.9269 117.756 77.3662L117.953 76.7812L118.597 77.4394C118.955 77.805 119.509 78.3656 119.814 78.7069ZM144.342 78.9019C143.912 80.0231 143.876 80.0475 143.519 79.7306C143.34 79.5844 143.429 79.2187 143.876 78.1462C144.413 76.8787 144.467 76.8056 144.61 77.3175C144.717 77.7319 144.646 78.1462 144.342 78.9019ZM174.469 79.0969L174.326 80.3156L174.201 79.2187C174.112 78.6094 174.004 77.8537 173.951 77.5125L173.861 76.9031L174.219 77.3906C174.541 77.805 174.577 78.0487 174.469 79.0969ZM188.871 77.805C188.818 77.9756 188.782 77.8537 188.782 77.5125C188.782 77.1712 188.818 77.0494 188.871 77.1956C188.907 77.3662 188.907 77.6587 188.871 77.805ZM88.5586 79.4625C88.0934 80.9981 87.8966 79.5112 88.326 77.6344C88.4334 77.22 88.4691 77.2687 88.6123 77.9269C88.7375 78.4875 88.7196 78.9262 88.5586 79.4625ZM93.0313 79.0237C93.0313 79.4137 92.9955 79.7062 92.9597 79.7062C92.9239 79.7062 92.7629 79.755 92.6377 79.8281C92.4409 79.95 92.3693 79.6575 92.3514 78.5606L92.3156 77.1469L92.6734 77.7562C92.8702 78.0975 93.0313 78.6581 93.0313 79.0237ZM157.455 78.3169C157.223 78.6337 157.187 78.2925 157.384 77.5856C157.509 77.1712 157.527 77.1712 157.581 77.61C157.616 77.8537 157.563 78.1706 157.455 78.3169ZM162.035 77.805C161.982 78 161.928 77.9269 161.928 77.6587C161.91 77.3906 161.964 77.2444 162.018 77.3419C162.071 77.415 162.089 77.6344 162.035 77.805ZM201.091 80.8031C201.091 80.8762 200.769 81.1444 200.375 81.4125C199.981 81.6806 199.659 81.8269 199.677 81.7294C199.731 81.2419 199.641 80.9006 199.48 81.0469C199.248 81.2419 199.248 80.9494 199.48 80.0475C199.57 79.6575 199.731 78.8531 199.838 78.2681L200.053 77.1712L200.572 78.9506C200.858 79.9256 201.091 80.7544 201.091 80.8031ZM23.2399 78.585C23.5083 78.975 23.6156 79.3406 23.5441 79.6087C23.4546 79.95 23.3473 79.9012 22.9716 79.1944C22.7211 78.7312 22.4348 78.1706 22.3454 77.9269C22.1844 77.5369 22.2023 77.5125 22.4885 77.7075C22.6674 77.8537 23.0073 78.2437 23.2399 78.585ZM116.361 77.8781C116.289 78.0731 116.218 78.2437 116.182 78.2437C116.146 78.2437 116.11 78.0731 116.11 77.8781C116.11 77.6831 116.182 77.5125 116.289 77.5125C116.379 77.5125 116.414 77.6831 116.361 77.8781ZM148.206 78.585C148.009 79.1456 147.848 79.365 147.759 79.17C147.633 78.9262 148.295 77.415 148.439 77.61C148.474 77.6587 148.367 78.0975 148.206 78.585ZM58.9854 78.2925C58.9317 78.4875 58.8781 78.4144 58.8781 78.1462C58.8602 77.8781 58.9138 77.7319 58.9675 77.8294C59.0212 77.9025 59.0391 78.1219 58.9854 78.2925ZM79.4702 78.1706C79.8638 78.8044 80.2216 81.8512 79.9532 82.29C79.5596 82.9481 79.2734 82.7044 79.4523 81.8512C79.667 80.8031 79.6491 80.7056 79.3449 81.2662C79.0766 81.7294 79.0766 81.7294 79.0766 81.1931C79.0766 80.5594 78.6293 79.8525 78.3609 80.0719C78.2715 80.145 78.3609 79.6575 78.5756 78.975C78.9871 77.6344 79.0766 77.5612 79.4702 78.1706ZM83.8891 78.39C83.585 78.9019 83.3345 78.8044 83.585 78.2681C83.7102 78 83.8713 77.8537 83.9428 77.9269C84.0323 77.9756 84.0144 78.195 83.8891 78.39ZM179.711 80.8519C179.586 82.0219 179.515 82.0706 178.978 81.4612C178.316 80.7056 178.334 79.8281 179.067 78.6825L179.711 77.6587L179.765 78.7312C179.801 79.3406 179.783 80.2912 179.711 80.8519ZM194.382 81.3394C194.221 83.1919 194.06 84.8981 194.006 85.1419C193.845 85.8731 193.487 85.4587 193.523 84.5569L193.559 83.7281L193.344 84.4106C193.058 85.3856 192.771 85.0687 192.843 83.8012C192.861 83.0456 192.789 82.5825 192.593 82.29C192.324 81.9244 192.324 81.8512 192.7 81.12C193.684 79.1944 194.525 77.7562 194.596 77.8537C194.65 77.9025 194.543 79.4869 194.382 81.3394ZM19.2145 79.5844C19.3577 79.8525 19.5187 80.5594 19.5723 81.12C19.7691 82.875 19.3219 82.2169 18.7494 79.9256C18.2484 77.8294 18.32 77.7562 19.2145 79.5844ZM109.705 79.2675C109.544 79.4869 109.491 79.365 109.509 78.7069C109.509 77.9269 109.526 77.9025 109.705 78.4387C109.848 78.8531 109.848 79.0725 109.705 79.2675ZM156.364 78.9019C156.167 79.3162 156.167 79.3162 156.257 78.9019C156.31 78.6581 156.364 78.3169 156.382 78.1706C156.382 77.9512 156.418 77.9512 156.471 78.1706C156.525 78.3412 156.471 78.6581 156.364 78.9019ZM181.554 79.7062C181.572 80.2669 181.554 80.2669 181.411 79.8281C181.322 79.56 181.268 78.9994 181.268 78.6094C181.268 77.9025 181.268 77.9025 181.411 78.4875C181.483 78.8287 181.554 79.365 181.554 79.7062ZM63.5117 79.7062C63.3328 80.3156 63.2613 80.3644 62.9571 80.1206C62.5098 79.7306 62.5277 79.56 63.1181 78.8287C63.5296 78.2925 63.6191 78.2437 63.6549 78.6094C63.6906 78.8287 63.6191 79.3162 63.5117 79.7062ZM99.1677 78.6094C99.1141 78.8287 99.0246 78.9506 98.9888 78.8775C98.9352 78.8044 98.9531 78.6581 99.0246 78.5119C99.1856 78.1219 99.293 78.195 99.1677 78.6094ZM151.176 78.4631C151.176 78.8044 150.263 79.7306 150.084 79.56C149.816 79.3406 149.906 79.0969 150.424 78.6825C150.979 78.195 151.176 78.1462 151.176 78.4631ZM176.044 79.4625C176.044 79.7062 174.988 81.0225 174.881 80.9006C174.845 80.8275 174.845 80.2181 174.917 79.5356L175.024 78.2681L175.525 78.8044C175.811 79.0725 176.044 79.3894 176.044 79.4625ZM84.8016 80.5837C84.8016 80.8519 84.6763 81.2906 84.5332 81.5587C84.3185 81.9487 84.2827 81.9487 84.2649 81.6319C84.2649 81.4125 84.0681 80.8519 83.8355 80.3887L83.4061 79.5112L83.7818 78.9994L84.1575 78.4875L84.4795 79.2675C84.6406 79.7062 84.7837 80.2912 84.8016 80.5837ZM111.029 79.6331C110.707 80.4375 110.654 80.0475 110.94 79.0481C111.047 78.6825 111.172 78.4875 111.226 78.6581C111.262 78.8044 111.172 79.2431 111.029 79.6331ZM119.348 80.2425L119.778 80.6325L119.313 81.2906C118.615 82.2656 118.15 81.9731 117.989 80.4862C117.917 79.8525 117.774 79.1944 117.667 78.9994C117.47 78.6581 118.418 79.365 119.348 80.2425ZM157.616 79.0725C157.616 79.2675 157.545 79.5112 157.438 79.5844C157.348 79.6575 157.259 79.5112 157.259 79.2431C157.259 78.9506 157.348 78.7312 157.438 78.7312C157.545 78.7312 157.616 78.8775 157.616 79.0725ZM81.0803 80.5106C81.1877 80.8275 81.1877 81.0712 81.0266 81.315C80.6688 81.9 80.3647 81.705 80.2573 80.73C80.1858 80.2425 80.0784 79.6087 80.0248 79.3406C79.9353 78.9019 79.9711 78.9262 80.4184 79.4625C80.6867 79.8037 80.973 80.2669 81.0803 80.5106ZM103.104 79.7306C102.961 79.9256 102.871 79.9012 102.782 79.6819C102.674 79.4869 102.71 79.4381 102.871 79.5844C103.05 79.7306 103.086 79.6819 102.978 79.3162C102.871 78.9506 102.889 78.9019 103.068 79.1456C103.229 79.3894 103.247 79.5356 103.104 79.7306ZM131.943 80.2912C132.122 82.1925 131.872 82.5094 131.389 81.0469C131.013 79.9256 130.995 79.8037 131.264 79.4137C131.711 78.7312 131.818 78.8775 131.943 80.2912ZM189.82 81.0469C189.82 81.8512 189.766 82.7775 189.694 83.0944C189.605 83.5819 189.533 83.4356 189.247 82.2412C188.943 80.8762 188.943 80.7544 189.229 79.8769C189.605 78.6825 189.82 79.0969 189.82 81.0469ZM72.0634 79.7062C71.9382 79.95 71.813 80.1206 71.7593 80.0719C71.6877 79.9744 72.0813 79.2187 72.2066 79.2187C72.2423 79.2187 72.1887 79.4381 72.0634 79.7062ZM161.892 79.56C162.018 79.755 162.089 80.3887 162.053 80.9737C162 82.095 161.695 82.3875 161.141 81.8512C160.855 81.5587 160.855 81.4612 161.159 80.3644C161.481 79.1212 161.57 79.0237 161.892 79.56ZM207.46 81.8512C207.191 82.2169 207.173 82.1437 207.191 80.8031L207.209 79.3406L207.478 80.3887C207.728 81.3637 207.728 81.4856 207.46 81.8512ZM114.715 79.8525C114.786 79.9256 114.661 80.6569 114.464 81.4612L114.089 82.9481L113.766 82.1194C113.337 81.0469 113.355 80.9981 113.874 80.3156C114.303 79.7062 114.536 79.5844 114.715 79.8525ZM126.934 81.3394C127.041 82.29 127.023 82.3875 126.523 82.7287C125.914 83.1675 125.932 83.3381 126.326 80.9494C126.558 79.5112 126.719 79.6331 126.934 81.3394ZM145.451 80.34C145.451 80.535 145.415 80.6812 145.379 80.6812C145.343 80.6812 145.165 80.7544 145.004 80.8275C144.753 80.9737 144.753 80.9006 144.932 80.3644C145.147 79.7062 145.451 79.7062 145.451 80.34ZM156.078 80.6569C156.006 81.0712 155.917 81.3881 155.881 81.315C155.827 81.2662 155.845 80.8519 155.917 80.4375C156.078 79.4381 156.221 79.6331 156.078 80.6569ZM167.743 80.34C167.671 80.5594 167.581 80.7056 167.546 80.6325C167.492 80.5594 167.492 80.3156 167.564 80.0962C167.635 79.8769 167.725 79.7306 167.76 79.8037C167.814 79.8769 167.814 80.1206 167.743 80.34ZM75.9994 80.3887C76.0352 80.5594 75.9457 80.6812 75.7847 80.6812C75.6237 80.6812 75.4984 80.5106 75.4984 80.2912C75.4984 79.8769 75.892 79.95 75.9994 80.3887ZM92.8702 81.8269C92.7271 82.1681 92.6734 82.095 92.584 81.315C92.4766 80.6325 92.5124 80.3156 92.6913 80.1694C92.8881 80.0231 92.9597 80.145 92.9955 80.6812C93.0313 81.0712 92.9776 81.5831 92.8702 81.8269ZM143.662 80.4375C143.662 80.8762 143.304 80.925 143.286 80.5106C143.268 80.2669 143.197 80.4619 143.125 80.925L143 81.7781L142.964 81.0225C142.964 80.6081 143 80.2181 143.053 80.1206C143.197 79.95 143.662 80.1937 143.662 80.4375ZM148.868 80.7056C148.778 81.0225 148.689 81.1444 148.689 80.9737C148.671 80.8031 148.6 80.73 148.492 80.8031C148.224 81.0469 148.278 80.7544 148.6 80.3156C148.975 79.8037 149.083 79.9744 148.868 80.7056ZM151.355 80.6081C151.337 81.1931 151.319 81.2419 151.158 80.8519C151.068 80.6325 151.033 80.3156 151.086 80.1937C151.265 79.7794 151.355 79.9256 151.355 80.6081ZM157.241 81.8756C157.008 83.5087 156.829 83.655 156.865 82.2169C156.901 80.7787 157.098 79.8769 157.294 80.145C157.402 80.2912 157.384 80.9006 157.241 81.8756ZM176.115 81.705C175.919 81.9731 175.561 82.4119 175.292 82.68L174.791 83.1431V82.5581C174.791 82.2412 175.096 81.51 175.453 80.925L176.115 79.8769L176.276 80.535C176.402 81.0469 176.366 81.315 176.115 81.705ZM196.761 81.2906C197.548 82.7775 197.566 83.46 196.851 83.9231C196.511 84.1425 196.385 84.1181 196.242 83.8256C196.117 83.5575 196.081 83.5575 196.081 83.8987C196.081 84.1425 196.01 84.3375 195.902 84.3375C195.795 84.3375 195.723 83.7037 195.723 82.8994C195.723 81.5587 195.884 79.95 196.01 79.95C196.028 79.95 196.385 80.5594 196.761 81.2906ZM110.188 80.73C110.188 81.0469 110.117 81.51 110.045 81.7781C109.92 82.1925 109.884 82.1194 109.813 81.4125C109.705 80.5106 109.759 80.1937 110.045 80.1937C110.135 80.1937 110.206 80.4375 110.188 80.73ZM155.344 80.8031C155.291 81.0225 155.201 81.1444 155.165 81.0712C155.112 80.9981 155.13 80.8519 155.201 80.7056C155.362 80.3156 155.47 80.3887 155.344 80.8031ZM182.019 83.3625C182.198 84.8981 181.858 84.3131 181.644 82.6556C181.536 81.9487 181.5 81.12 181.554 80.8275C181.661 80.2912 181.697 80.5106 182.019 83.3625ZM186.295 81.6319C186.152 81.8756 185.669 80.9494 185.794 80.6812C185.884 80.4862 185.991 80.5837 186.134 80.9737C186.259 81.2662 186.331 81.5831 186.295 81.6319ZM212.791 82.7531C212.523 83.7769 212.29 84.5569 212.254 84.5081C212.219 84.4594 212.415 83.5331 212.684 82.4119C212.934 81.315 213.185 80.535 213.22 80.6812C213.256 80.8275 213.077 81.7537 212.791 82.7531ZM151.301 81.9487C151.426 82.3387 151.48 82.6312 151.39 82.6312C151.176 82.6312 150.639 80.9981 150.782 80.8031C150.854 80.73 150.925 80.8031 150.979 80.9737C151.015 81.1444 151.158 81.5831 151.301 81.9487ZM102.656 82.1437C103.104 83.2406 103.05 83.9475 102.478 84.3619C102.281 84.5081 102.102 84.5812 102.066 84.5325C102.012 84.4594 101.923 82.1194 101.959 81.4612C101.994 80.925 102.245 81.1687 102.656 82.1437ZM106.879 81.8269C106.718 82.7287 106.449 83.1187 106.449 82.4606C106.449 81.7781 106.628 81.1687 106.825 81.1687C106.914 81.1687 106.932 81.4612 106.879 81.8269ZM183.361 82.3875C183.361 82.7287 183.254 83.265 183.128 83.5819L182.896 84.1669L182.806 83.4844C182.681 82.6556 183.021 81.0225 183.236 81.4612C183.307 81.6319 183.379 82.0462 183.361 82.3875ZM70.9542 82.1925C70.6322 82.8262 70.5606 82.6069 70.8648 81.8512C70.9721 81.5831 71.0974 81.4369 71.151 81.4856C71.2047 81.5587 71.1152 81.8756 70.9542 82.1925ZM120.762 82.1437C120.44 82.4119 120.368 82.3144 120.511 81.8025C120.601 81.4856 120.69 81.4612 120.833 81.6562C120.976 81.8512 120.959 81.9731 120.762 82.1437ZM150.729 82.1194C150.872 82.5337 150.925 82.8994 150.836 82.9969C150.746 83.07 150.639 82.875 150.603 82.5825C150.568 82.2169 150.442 82.0462 150.228 82.0462C149.977 82.095 149.959 82.0219 150.12 81.7537C150.389 81.2906 150.406 81.315 150.729 82.1194ZM168.798 82.2169C169.102 83.0212 169.102 83.0456 168.691 83.8987L168.261 84.7762L167.957 83.6794C167.689 82.68 167.671 82.5337 167.939 81.9975C168.297 81.2175 168.404 81.2662 168.798 82.2169ZM190.517 82.5825C190.535 82.7531 190.464 82.8262 190.356 82.7531C190.267 82.68 190.177 82.3144 190.195 81.9487C190.195 81.3637 190.213 81.3394 190.356 81.7781C190.446 82.0462 190.517 82.4119 190.517 82.5825ZM200.804 82.8506C200.321 83.85 200.017 83.9475 200.017 83.1187C200.017 82.6312 201.144 81.2662 201.234 81.6562C201.27 81.7781 201.073 82.3144 200.804 82.8506ZM116.951 82.4362C116.897 82.6312 116.844 82.5581 116.844 82.29C116.826 82.0219 116.879 81.8756 116.933 81.9731C116.987 82.0462 117.005 82.2656 116.951 82.4362ZM161.624 83.1675C161.57 83.4356 161.373 84.0937 161.195 84.63L160.89 85.5806L160.765 84.5812C160.694 83.9231 160.586 83.6306 160.443 83.7525C160.3 83.8744 160.282 83.8012 160.354 83.5087C160.425 83.265 160.533 82.8019 160.586 82.485C160.694 81.9244 160.712 81.9244 161.23 82.29C161.642 82.5825 161.731 82.7775 161.624 83.1675ZM186.51 82.2169C186.814 82.5337 186.796 82.6312 186.152 84.0694C185.329 85.8731 185.132 86.1169 185.454 84.8737C185.579 84.3862 185.687 83.6794 185.705 83.3137C185.705 82.5581 185.866 81.9 186.045 81.9C186.116 81.9 186.313 82.0462 186.51 82.2169ZM75.7668 82.6069C75.8205 82.7287 75.7847 82.8994 75.6952 82.9725C75.6058 83.0456 75.4984 82.9481 75.4269 82.7531C75.3195 82.3631 75.5879 82.2412 75.7668 82.6069ZM121.281 83.6062C121.281 83.8256 121.209 83.8012 121.12 83.4844C121.03 83.2162 120.959 82.8262 120.959 82.6312C120.959 82.4119 121.03 82.4362 121.12 82.7531C121.209 83.0212 121.281 83.4112 121.281 83.6062ZM122.622 83.5575C122.604 83.7281 122.587 84.1181 122.587 84.4594C122.551 84.9956 122.497 85.0444 122.211 84.8494C122.032 84.7031 121.817 84.2887 121.764 83.9231C121.692 83.5331 121.585 83.0212 121.531 82.7775C121.442 82.3144 121.442 82.3144 122.032 82.7775C122.372 83.0456 122.64 83.3869 122.622 83.5575ZM179.264 83.1919C179.246 83.3625 179.139 83.8012 179.014 84.2156L178.781 84.9469L178.674 84.0937C178.495 82.68 178.566 82.3875 178.942 82.6556C179.121 82.7775 179.264 83.0212 179.264 83.1919ZM8.67695 84.4106C10.8954 86.4094 10.8954 86.4825 8.85586 85.1906C6.85211 83.8987 6.88789 83.9475 6.70898 83.1431C6.56586 82.4606 6.44063 82.3875 8.67695 84.4106ZM110.743 82.9969C110.743 83.1919 110.671 83.3625 110.564 83.3625C110.475 83.3625 110.385 83.1919 110.385 82.9969C110.385 82.8019 110.475 82.6312 110.564 82.6312C110.671 82.6312 110.743 82.8019 110.743 82.9969ZM176.294 83.7281C176.205 84.4594 176.133 84.5569 176.008 84.24C175.919 84.0206 175.758 83.9231 175.632 84.0206C175.525 84.0937 175.614 83.8256 175.847 83.3869C176.348 82.4362 176.473 82.5337 176.294 83.7281ZM205.563 83.6306C205.563 83.85 205.438 84.1669 205.295 84.3375C204.919 84.7762 204.74 84.0206 205.009 83.1675C205.188 82.6556 205.259 82.6069 205.402 82.8994C205.492 83.07 205.563 83.4112 205.563 83.6306ZM118.078 82.9725C118.078 83.0456 118.007 83.1675 117.899 83.2406C117.81 83.3137 117.72 83.265 117.72 83.1431C117.72 82.9969 117.81 82.875 117.899 82.875C118.007 82.875 118.078 82.9237 118.078 82.9725ZM145.576 83.4112C145.522 83.6062 145.469 83.5331 145.469 83.265C145.451 82.9969 145.504 82.8506 145.558 82.9481C145.612 83.0212 145.63 83.2406 145.576 83.4112ZM207.979 83.3381C207.925 83.4844 207.782 83.6062 207.674 83.6062C207.567 83.6062 207.567 83.46 207.71 83.2406C207.961 82.8262 208.175 82.9237 207.979 83.3381ZM117.309 84.0206C117.255 84.2644 117.219 84.1181 117.219 83.7281C117.219 83.3137 117.255 83.1431 117.309 83.2894C117.345 83.46 117.345 83.8012 117.309 84.0206ZM213.256 85.3125V87.5306L212.523 88.5544C212.022 89.2612 211.825 89.4319 211.897 89.0906C212.129 87.7744 213.149 83.1187 213.203 83.1187C213.22 83.1187 213.256 84.1181 213.256 85.3125ZM216.96 84.7275C216.727 85.8244 216.709 85.8487 216.584 85.2394C216.512 84.8006 216.566 84.3619 216.763 83.9719C217.192 83.0944 217.264 83.3625 216.96 84.7275ZM20.3416 84.1425C20.288 84.3375 20.2343 84.2644 20.2343 83.9962C20.2164 83.7281 20.2701 83.5819 20.3238 83.6794C20.3774 83.7525 20.3953 83.9719 20.3416 84.1425ZM146.292 84.3862C146.238 84.5569 146.202 84.435 146.202 84.0937C146.202 83.7525 146.238 83.6306 146.292 83.7769C146.327 83.9475 146.327 84.24 146.292 84.3862ZM171.893 84.2156C171.839 84.2887 171.732 84.1669 171.678 83.9231C171.571 83.5819 171.589 83.5575 171.768 83.7769C171.893 83.9475 171.947 84.1425 171.893 84.2156ZM123.964 84.5569C124.161 84.7275 124.089 84.8737 123.642 85.1662L123.088 85.5806V84.7031C123.088 83.8012 123.123 83.7769 123.964 84.5569ZM145.379 85.5075C145.111 85.8731 145.093 85.8487 145.093 85.2394C145.093 84.8737 145.182 84.5812 145.272 84.5812C145.379 84.5812 145.469 84.3862 145.469 84.1425C145.487 83.9231 145.54 84.045 145.576 84.435C145.63 84.8737 145.558 85.2881 145.379 85.5075ZM151.444 84.825L151.319 85.3612L151.051 84.825C150.818 84.3619 150.818 84.24 151.015 84.0694C151.355 83.7769 151.587 84.1912 151.444 84.825ZM201.556 84.7519C201.413 85.1175 201.287 85.3612 201.27 85.2637C201.27 84.9712 201.681 83.85 201.753 83.9475C201.806 83.9962 201.717 84.3619 201.556 84.7519ZM202.754 87.1162C202.826 87.9206 202.379 87.7987 201.914 86.8725C201.484 85.995 201.484 85.9462 201.753 85.215L202.039 84.4594L202.379 85.5562C202.558 86.1412 202.737 86.8481 202.754 87.1162ZM12.6129 89.1637C12.5771 89.2369 8.60539 88.1156 8.03289 87.8719C7.87188 87.7987 7.65719 87.2869 7.53195 86.7019C7.40672 86.1412 7.28149 85.4831 7.22781 85.2637C7.17414 84.9956 8.06867 85.5562 9.91141 86.97C11.4321 88.14 12.6487 89.115 12.6129 89.1637ZM187.816 85.4344C188.048 86.0925 187.959 86.5556 187.458 87.555C187.029 88.3837 186.85 88.4081 186.742 87.6525C186.653 87.0431 187.243 84.825 187.494 84.825C187.565 84.825 187.708 85.0931 187.816 85.4344ZM120.01 86.0437C119.903 86.6044 119.778 86.9944 119.724 86.9212C119.599 86.7262 119.867 85.0687 120.028 85.0687C120.118 85.0687 120.1 85.5075 120.01 86.0437ZM164.773 85.2881C164.773 85.4344 164.701 85.605 164.594 85.6781C164.504 85.7512 164.415 85.6537 164.415 85.4587C164.415 85.2394 164.504 85.0687 164.594 85.0687C164.701 85.0687 164.773 85.1662 164.773 85.2881ZM172.645 85.9219C172.484 86.19 172.358 86.2387 172.233 86.0681C172.108 85.8975 172.126 85.7025 172.287 85.4344C172.448 85.1662 172.573 85.1175 172.698 85.2881C172.823 85.4587 172.806 85.6537 172.645 85.9219ZM121.245 85.8487C121.567 86.1656 121.835 86.4825 121.835 86.5556C121.835 86.6531 121.424 86.9456 120.941 87.2137L120.046 87.7256L120.136 87.1162C120.458 84.9712 120.386 85.0687 121.245 85.8487ZM170.319 86.4581C170.319 86.6287 170.247 86.775 170.14 86.775C170.05 86.775 169.961 86.4825 169.961 86.0925C169.961 85.5806 169.997 85.5075 170.14 85.8C170.229 85.995 170.319 86.3119 170.319 86.4581ZM163.914 86.8237C163.807 86.97 163.789 86.8237 163.842 86.3606C163.932 85.8487 163.968 85.8 164.021 86.1412C164.057 86.385 164.021 86.6775 163.914 86.8237ZM221.003 88.6762C220.806 89.7975 220.609 90.4312 220.448 90.4312C220.323 90.4312 220.234 90.3337 220.269 90.2362C220.305 90.1387 220.52 89.31 220.752 88.4081C221.003 87.5062 221.218 86.8237 221.253 86.8481C221.271 86.8969 221.164 87.7256 221.003 88.6762ZM6.01125 87.7012C6.11859 87.7987 6.27961 88.2619 6.35117 88.725C6.42273 89.1881 6.45852 89.5294 6.40484 89.4562C5.45664 87.8719 5.27773 87.0187 6.01125 87.7012ZM215.6 89.0419C215.761 90.2362 215.743 90.5287 215.457 91.1625C214.992 92.2594 214.831 92.04 214.92 90.48C215.027 88.8956 215.242 87.4331 215.332 87.5794C215.367 87.6281 215.493 88.2862 215.6 89.0419ZM7.4425 88.9687C7.88977 90.8944 7.90766 91.1625 7.53195 91.1625C7.19203 91.1625 6.95945 90.6019 6.63742 88.8956C6.47641 88.0181 6.4943 87.9694 6.85211 88.0425C7.12047 88.0912 7.29938 88.3837 7.4425 88.9687ZM10.6449 89.6025C11.5395 89.9681 12.3445 90.3581 12.4519 90.4556C12.5592 90.5775 12.6845 90.6019 12.7381 90.5531C12.8991 90.3094 13.7221 90.9431 13.7221 91.3087C13.7221 91.7719 13.5969 91.7475 13.1138 91.1137C12.7023 90.5775 12.5234 90.8212 12.917 91.3575C13.0602 91.5525 13.0602 91.65 12.9349 91.65C12.8276 91.65 12.6308 91.455 12.5055 91.2112C12.3624 90.9919 12.273 90.8212 12.2909 90.8944C12.3088 90.9431 12.2193 91.1381 12.0762 91.3331C11.8615 91.6012 11.5573 91.6256 10.3408 91.4062C9.5357 91.2844 8.80219 91.1625 8.74852 91.1625C8.62328 91.1625 8.05078 89.0906 8.05078 88.7006C8.05078 88.6031 8.26547 88.6031 8.55172 88.725C8.82008 88.8469 9.76828 89.2369 10.6449 89.6025ZM4.0075 91.0406C5.33141 93.2831 5.36719 93.3562 4.88414 93.3562C3.79281 93.3562 3.6318 93.1612 3.13086 91.26C2.88039 90.2606 2.61203 89.2612 2.55836 89.0662C2.36156 88.3594 2.68359 88.7981 4.0075 91.0406ZM205.51 89.8706C205.456 90.1144 205.42 89.9194 205.42 89.4562C205.42 88.9931 205.456 88.7981 205.51 89.0175C205.545 89.2612 205.545 89.6512 205.51 89.8706ZM126.845 89.5781C126.719 89.7731 126.54 89.8706 126.433 89.7731C126.326 89.6756 126.379 89.505 126.576 89.31C126.988 88.8956 127.149 89.0662 126.845 89.5781ZM127.972 89.7244C127.864 90.285 127.56 90.09 127.56 89.4562C127.56 89.1637 127.65 89.0419 127.811 89.115C127.954 89.1881 128.025 89.4319 127.972 89.7244ZM225.386 89.8462C225.261 90.2119 225.136 90.3581 225.1 90.2119C225.064 90.0412 225.136 89.7731 225.243 89.5781C225.565 89.0419 225.619 89.1394 225.386 89.8462ZM147.955 90.4312C147.955 90.7481 147.938 90.7481 147.777 90.4312C147.687 90.2362 147.598 89.895 147.598 89.7C147.598 89.3831 147.616 89.3831 147.777 89.7C147.866 89.895 147.955 90.2362 147.955 90.4312ZM122.193 90.4312C122.193 90.5287 121.978 90.7481 121.71 90.87C121.424 90.9919 121.048 91.1869 120.851 91.2844C120.636 91.4062 120.744 91.1869 121.12 90.7481C121.674 90.0656 122.193 89.9194 122.193 90.4312ZM5.18828 91.9425L6.31539 93.7219L5.13461 92.1375C4.09695 90.7725 3.75703 90.1875 4.0075 90.1875C4.02539 90.1875 4.58 90.9919 5.18828 91.9425ZM222.219 91.3331C222.13 91.5769 221.862 92.0156 221.629 92.3325L221.182 92.8687L221.271 92.1131C221.325 91.65 221.486 91.2844 221.736 91.1625C222.309 90.8456 222.416 90.87 222.219 91.3331ZM8.05078 92.1862C8.05078 92.4787 8.03289 92.6494 7.99711 92.6006C7.97922 92.5519 7.83609 92.3081 7.71086 92.0644C7.49617 91.7231 7.51406 91.65 7.76453 91.65C7.94344 91.65 8.05078 91.845 8.05078 92.1862ZM220.252 92.8931C220.073 93.4781 220.073 93.4781 220.073 92.9175C220.055 92.625 219.947 92.3812 219.84 92.3569C219.715 92.3569 219.768 92.2594 219.965 92.1619C220.395 91.9181 220.484 92.1131 220.252 92.8931ZM12.5592 92.9419C12.7381 93.2344 12.8813 93.5512 12.8813 93.6487C12.8813 93.7706 12.3982 93.8437 11.8257 93.8437C10.8417 93.8437 10.7165 93.7706 10.1261 92.9662L9.46414 92.0644L10.8596 92.235C12.0046 92.3812 12.3088 92.5031 12.5592 92.9419ZM127.256 93.1125C127.202 93.3806 127.077 93.6731 126.97 93.7706C126.845 93.8681 126.827 93.7706 126.898 93.5025C126.97 93.2587 127.023 92.9175 127.023 92.7225C127.023 92.5031 127.095 92.4056 127.184 92.4787C127.274 92.5519 127.31 92.8444 127.256 93.1125ZM122.014 92.8444C122.014 92.9662 121.889 93.1125 121.746 93.21C121.477 93.3319 121.388 93.0881 121.603 92.7956C121.764 92.5519 122.014 92.5762 122.014 92.8444ZM2.88039 93.5025C3.29188 93.6 3.39922 93.8681 3.82859 95.8425C4.09695 97.0369 4.27586 98.085 4.25797 98.1337C4.2043 98.2069 2.30789 95.2575 1.35969 93.6244L1.00188 93.0394L1.7175 93.21C2.0932 93.3075 2.62992 93.4294 2.88039 93.5025ZM223.347 96.3056C222.971 97.5 222.595 98.475 222.506 98.475C222.398 98.475 222.38 97.695 222.434 96.5737C222.542 94.7944 222.577 94.6481 223.221 93.8437C223.901 92.9906 223.901 92.9906 223.955 93.5756C223.991 93.8925 223.722 95.1356 223.347 96.3056ZM121.298 93.4537C121.298 93.5269 121.227 93.6487 121.12 93.7219C121.03 93.795 120.941 93.7462 120.941 93.6244C120.941 93.4781 121.03 93.3562 121.12 93.3562C121.227 93.3562 121.298 93.405 121.298 93.4537ZM219.607 95.2819L219.142 95.9156L219.321 95.2575C219.411 94.8919 219.607 94.38 219.733 94.0875L219.965 93.5756L220.019 94.1119C220.055 94.4531 219.912 94.8919 219.607 95.2819ZM5.06305 93.99C5.79656 94.1362 5.95758 94.3069 6.79844 95.7206L7.72875 97.305L8.33703 101.327C8.67695 103.545 8.92742 105.397 8.89164 105.446C8.87375 105.495 8.08656 104.301 7.15625 102.789C5.51031 100.157 5.43875 99.9619 4.63367 96.9637C4.11484 94.965 3.88227 93.8437 4.02539 93.8437C4.15063 93.8437 4.61578 93.9169 5.06305 93.99ZM121.96 94.2337C122.068 94.6481 121.37 95.7937 120.994 95.7937C120.654 95.7937 120.708 95.2087 121.137 94.4775C121.549 93.7462 121.799 93.6731 121.96 94.2337ZM7.29938 95.0137C7.65719 95.7694 7.31727 95.6719 6.90578 94.8919C6.69109 94.5019 6.65531 94.3069 6.79844 94.38C6.92367 94.4287 7.15625 94.7212 7.29938 95.0137ZM131.085 95.2331C131.031 95.4769 130.995 95.3306 130.995 94.9406C130.995 94.5262 131.031 94.3556 131.085 94.5019C131.12 94.6725 131.12 95.0137 131.085 95.2331ZM8.55172 95.5012C8.90953 96.2325 8.74852 96.1837 8.2118 95.4037C7.97922 95.0381 7.88977 94.7944 8.03289 94.8675C8.17602 94.9162 8.40859 95.2087 8.55172 95.5012ZM134.198 95.3794C134.019 95.5987 134.001 95.5744 134.108 95.2331C134.162 94.9894 134.269 94.8675 134.323 94.9406C134.376 95.0137 134.323 95.2087 134.198 95.3794ZM12.6666 96.7931C13.7758 98.0362 14.062 98.7187 13.4716 98.7187C13.2033 98.7187 13.2033 98.7675 13.4001 98.9381C13.6684 99.1819 13.8473 99.9375 13.6327 99.9375C13.2927 99.9131 12.1298 98.1825 11.6289 96.9394C10.9133 95.1844 11.1638 95.1356 12.6666 96.7931ZM13.3285 96.3787C13.6327 96.6956 13.8116 97.0369 13.7579 97.11C13.7042 97.1831 13.3822 96.915 13.0423 96.525C12.3088 95.6719 12.5592 95.55 13.3285 96.3787ZM8.98109 97.5975C9.16 98.0606 9.12422 98.0362 8.69484 97.5244C8.44438 97.1831 8.22969 96.8175 8.22969 96.6956C8.22969 96.3787 8.74852 96.9881 8.98109 97.5975ZM221.593 98.67C221.379 98.9381 221.325 98.5481 221.45 97.5975L221.575 96.6469L221.629 97.5975C221.665 98.1094 221.647 98.5969 221.593 98.67ZM186.241 97.4025C186.241 97.5975 185.902 97.7194 185.812 97.5487C185.758 97.4269 185.83 97.3294 185.973 97.3294C186.116 97.3294 186.241 97.3781 186.241 97.4025ZM204.74 97.6462C204.901 98.2312 204.866 98.4019 204.579 98.4019C204.418 98.4019 204.311 98.1581 204.311 97.8169C204.311 97.1831 204.579 97.0612 204.74 97.6462ZM186.778 98.7675C186.778 98.9137 186.653 98.8894 186.51 98.7187C186.367 98.5481 186.241 98.3044 186.241 98.1825C186.241 98.0362 186.367 98.0606 186.51 98.2312C186.653 98.4019 186.778 98.6456 186.778 98.7675ZM227.175 99.6206L226.334 100.742L226.513 99.7912C226.674 98.9869 226.799 98.7675 227.265 98.5725C227.587 98.4506 227.873 98.3775 227.927 98.4262C227.962 98.4506 227.622 99.0112 227.175 99.6206ZM185.884 99.9375C185.544 100.23 185.257 99.8644 185.418 99.3037C185.526 98.8894 185.562 98.8894 185.848 99.3037C186.116 99.6694 186.116 99.7425 185.884 99.9375ZM10.1082 103.301C10.5555 105.836 10.5913 106.884 10.1977 106.056C10.0366 105.69 8.76641 99.7181 8.76641 99.3281C8.76641 99.1819 8.9632 99.4012 9.19578 99.8156C9.49992 100.303 9.78617 101.449 10.1082 103.301ZM15.7616 101.449L16.1373 102.472L15.7438 102.107C15.4933 101.887 15.3144 101.473 15.3144 101.083C15.2965 100.717 15.3144 100.425 15.3323 100.425C15.3502 100.425 15.547 100.888 15.7616 101.449ZM221.128 102.96C220.824 104.057 220.735 103.545 220.985 102.107C221.182 100.986 221.218 100.888 221.271 101.546C221.307 101.936 221.235 102.594 221.128 102.96ZM226.978 105.007C226.513 107.494 226.155 108.956 226.012 108.956C225.726 108.956 225.851 108.006 226.477 105.349C226.925 103.496 226.925 103.204 226.424 103.326C226.281 103.374 226.603 102.716 227.444 101.205C227.533 101.034 227.64 100.937 227.676 100.986C227.712 101.01 227.39 102.838 226.978 105.007ZM225.44 101.912C225.279 102.448 225.261 102.448 225.261 101.985C225.243 101.717 225.297 101.4 225.368 101.327C225.583 101.034 225.619 101.327 225.44 101.912ZM223.186 105.763C222.577 106.616 222.559 106.616 222.559 106.031C222.577 104.934 222.935 103.228 223.329 102.448L223.722 101.644L223.776 103.277C223.83 104.861 223.812 104.934 223.186 105.763ZM214.688 103.228C214.688 103.35 214.598 103.301 214.509 103.106C214.419 102.911 214.33 102.619 214.33 102.497C214.33 102.351 214.419 102.424 214.509 102.619C214.598 102.814 214.688 103.082 214.688 103.228ZM198.425 103.667C198.246 103.886 198.228 103.862 198.335 103.521C198.389 103.277 198.497 103.155 198.55 103.228C198.604 103.301 198.55 103.496 198.425 103.667ZM209.553 104.081C209.392 104.471 209.231 104.764 209.195 104.739C209.088 104.569 209.589 103.155 209.714 103.252C209.803 103.326 209.732 103.691 209.553 104.081ZM16.2626 104.179C16.4415 104.471 16.4236 104.52 16.1016 104.398C15.9048 104.325 15.6543 104.057 15.547 103.789C15.3859 103.374 15.4038 103.35 15.708 103.569C15.8869 103.691 16.1373 103.984 16.2626 104.179ZM7.72875 106.08C9.23156 108.81 9.39258 109.395 7.96133 106.884C7.58563 106.202 7.12047 105.471 6.94156 105.227C6.65531 104.837 6.51219 104.325 6.69109 104.325C6.72688 104.325 7.19203 105.129 7.72875 106.08ZM13.0602 106.933C13.4895 108.517 13.4895 108.444 13.0602 108.298C12.595 108.127 12.5592 108.054 12.1477 106.104L11.8257 104.496L12.2551 105.056C12.5055 105.373 12.8634 106.202 13.0602 106.933ZM16.2805 105.032C16.2805 105.471 15.9584 105.544 15.7438 105.178C15.5648 104.861 15.5827 104.812 15.9048 104.812C16.1016 104.812 16.2805 104.91 16.2805 105.032ZM219.965 106.519C219.894 106.811 219.804 106.982 219.751 106.933C219.697 106.86 219.715 106.567 219.786 106.275C219.858 105.982 219.947 105.812 220.001 105.861C220.055 105.934 220.037 106.226 219.965 106.519ZM3.95383 108.469C4.9557 109.224 5.02727 109.395 4.16852 108.932C3.04141 108.347 4.04328 109.102 5.49242 109.931C7.04891 110.809 7.04891 110.809 7.26359 111.93L7.46039 113.051L6.61953 112.344C6.15438 111.954 5.67133 111.467 5.54609 111.272C5.42086 111.077 5.22406 110.906 5.11672 110.906C4.99148 110.906 4.43688 110.199 3.86438 109.322C3.30977 108.444 2.88039 107.737 2.91617 107.737C2.95195 107.737 3.41711 108.054 3.95383 108.469ZM13.418 109.858C13.418 110.346 12.9886 110.126 12.917 109.614C12.8813 109.322 12.9349 109.249 13.1317 109.346C13.2927 109.419 13.418 109.663 13.418 109.858ZM9.83984 113.88C10.0903 114.319 10.144 114.587 10.0009 114.684C9.7325 114.928 9.14211 114.002 8.83797 112.783L8.5875 111.759L9.03477 112.491C9.28524 112.881 9.64305 113.514 9.83984 113.88ZM5.45664 114.757C5.77867 115.074 5.76078 115.074 5.18828 114.928C4.18641 114.636 3.88227 114.416 3.22031 113.466L2.59414 112.539L3.84648 113.466C4.54422 113.977 5.25984 114.562 5.45664 114.757ZM215.117 115.416C215.171 115.611 215.135 115.781 215.045 115.781C214.938 115.781 214.866 115.611 214.866 115.416C214.866 115.221 214.902 115.05 214.938 115.05C214.974 115.05 215.045 115.221 215.117 115.416ZM6.79844 116.756C6.85211 116.756 6.99523 117 7.13836 117.268C7.37094 117.78 7.35305 117.804 6.70898 117.658C6.2975 117.561 5.83234 117.219 5.51031 116.781L4.97359 116.025L5.83234 116.391C6.31539 116.586 6.74477 116.756 6.79844 116.756ZM7.6393 119.096C7.58563 119.169 7.42461 119.194 7.29938 119.121C7.15625 119.047 7.20992 118.974 7.40672 118.974C7.60352 118.95 7.71086 119.023 7.6393 119.096Z" fill="#4CAF50"/>
<path d="M80.0427 76.5618C79.989 76.7081 80.0606 77.0006 80.2216 77.22C80.4899 77.5856 80.5078 77.5612 80.5078 76.9518C80.5078 76.2937 80.2752 76.0743 80.0427 76.5618Z" fill="#4CAF50"/>
<path d="M11.5216 90.6506C11.8973 91.2113 11.9867 91.2844 11.9867 90.9188C11.9867 90.7969 11.8078 90.5531 11.5931 90.4069C11.1816 90.1144 11.1816 90.1144 11.5216 90.6506Z" fill="#4CAF50"/>
<path d="M94.8382 50.8462C94.8382 51.1144 94.8919 51.1875 94.9456 50.9925C94.9992 50.8219 94.9813 50.6025 94.9277 50.5294C94.874 50.4319 94.8203 50.5781 94.8382 50.8462Z" fill="#4CAF50"/>
<path d="M86.6085 53.7712C86.6085 54.0394 86.6622 54.1125 86.7159 53.9175C86.7695 53.7469 86.7517 53.5275 86.698 53.4544C86.6443 53.3569 86.5906 53.5031 86.6085 53.7712Z" fill="#4CAF50"/>
<path d="M127.399 53.7712C127.399 54.0394 127.453 54.1125 127.507 53.9175C127.56 53.7469 127.542 53.5275 127.489 53.4544C127.435 53.3569 127.381 53.5031 127.399 53.7712Z" fill="#4CAF50"/>
<path d="M98.5952 66.2025C98.5952 66.4706 98.6489 66.5438 98.7026 66.3488C98.7563 66.1781 98.7384 65.9588 98.6847 65.8856C98.631 65.7881 98.5774 65.9344 98.5952 66.2025Z" fill="#4CAF50"/>
<path d="M227.748 119.169L226.585 119.803L227.73 119.876C228.356 119.925 228.893 119.9 228.946 119.827C228.982 119.779 229 119.462 228.964 119.145L228.911 118.56L227.748 119.169Z" fill="#4CAF50"/>
</g>
<defs>
<clipPath id="clip0_7_27">
<rect width="229" height="156" fill="white"/>
</clipPath>
</defs>
</svg>
