<svg width="75" height="81" viewBox="0 0 75 81" fill="none" xmlns="http://www.w3.org/2000/svg">
<path d="M36.8392 0.0346222C36.0856 0.10427 34.4592 0.395524 34.0228 0.547482C33.8245 0.610799 33.5627 0.680447 33.4278 0.705773C33.2056 0.743763 32.682 0.88939 32.0235 1.10466C31.8649 1.15532 31.6506 1.26929 31.5475 1.3516C31.4444 1.44024 31.1191 1.61119 30.8097 1.73149C30.3733 1.90878 30.0322 2.13039 29.1992 2.78887C28.017 3.71329 27.5331 4.22615 26.8191 5.30252C26.1447 6.31558 25.8591 7.221 25.8353 8.40501C25.8194 9.21546 25.8274 9.27244 26.0416 9.61435C26.3272 10.0956 26.8191 10.4311 27.4538 10.5894C28.2154 10.773 28.739 10.735 29.4213 10.4501C30.3813 10.0512 30.5637 9.77897 30.8414 8.36069C30.9763 7.67054 31.0556 7.44261 31.3571 6.93608C31.6586 6.43588 31.8173 6.25226 32.4123 5.77106C33.0708 5.23921 33.1818 5.16956 34.2687 4.73901C35.5619 4.21982 36.387 4.04886 37.8786 3.98555C39.0527 3.93489 40.9727 4.24514 41.7978 4.61871C41.9485 4.68836 42.3055 4.84665 42.5911 4.97328C43.2258 5.25187 44.2334 6.01166 44.6539 6.52452C45.1537 7.13236 45.6059 8.36702 45.6059 9.12682C45.6059 9.4244 46.074 10.0512 46.4707 10.2855C47.4703 10.8743 48.6842 10.8364 49.6997 10.1842C50.5962 9.60802 50.7152 8.94953 50.2788 7.06904C50.1122 6.37256 49.7393 5.53046 49.4775 5.26453C49.3982 5.18222 49.2633 4.98594 49.176 4.83398C48.6842 3.95389 47.7083 3.0738 46.2406 2.20003C44.9157 1.40858 43.8208 0.895721 43.21 0.769089C42.1706 0.547482 41.6312 0.420851 41.4646 0.351203C40.8933 0.10427 38.1483 -0.0793467 36.8392 0.0346222Z" fill="#4CAF50"/>
<path d="M18.9092 3.18144C18.211 3.26375 17.1876 3.35872 16.6322 3.39671C16.0055 3.4347 15.4739 3.50435 15.2439 3.58033C15.0296 3.64364 14.5616 3.74495 14.1966 3.80827C13.07 3.99188 11.158 4.54907 10.6344 4.84665C10.4995 4.9163 10.3567 4.97961 10.3012 4.97961C10.1981 4.97961 9.57924 5.30253 9.22223 5.54946C9.08735 5.6381 8.59547 5.88503 8.12739 6.08765C7.46889 6.3789 7.15948 6.55619 6.739 6.91076C6.15984 7.39829 6.09637 7.52492 6.09637 8.2024C6.09637 8.65195 6.46132 9.24712 6.96114 9.62068C7.34989 9.91194 8.27812 10.2222 8.52407 10.1462C8.58754 10.1272 8.88108 10.0829 9.16669 10.0449C9.59511 9.98792 9.82518 9.90561 10.5789 9.51938C11.6975 8.95587 11.9355 8.83556 12.2211 8.7026C12.3481 8.64562 12.5147 8.55697 12.594 8.49999C12.6734 8.443 12.7765 8.39868 12.84 8.39868C12.8955 8.39868 13.1573 8.31637 13.4271 8.21507C13.6889 8.11376 14.0935 7.99346 14.3077 7.94914C14.5298 7.91115 14.7996 7.83517 14.9186 7.78452C15.3708 7.60723 17.3859 7.3413 20.8926 6.9994C22.5666 6.84111 22.8919 6.7398 23.3917 6.23327C23.7725 5.85338 23.9391 5.56845 24.0264 5.1379C24.0819 4.86565 24.0581 4.75801 23.8598 4.34645C23.59 3.80194 23.1378 3.40938 22.4793 3.16877C22.1303 3.03581 21.9716 3.01682 21.1306 3.02315C20.5673 3.02948 19.655 3.09279 18.9092 3.18144Z" fill="#4CAF50"/>
<path d="M53.8965 3.51699C53.3808 3.70061 52.7223 4.2198 52.5637 4.57437C52.3415 5.08723 52.3019 5.61275 52.4764 5.99265C52.6827 6.44852 53.3253 7.00571 53.8251 7.15133C54.0393 7.21465 54.9596 7.33495 55.8799 7.41726C58.7836 7.68952 60.6322 7.93645 61.5128 8.17072C61.8222 8.25303 62.2982 8.37333 62.5759 8.43665C63.0678 8.54429 64.1071 8.9875 64.4562 9.23443C64.5435 9.29775 64.6545 9.3484 64.6942 9.3484C64.7339 9.3484 65.0512 9.50669 65.4003 9.70297C66.2809 10.1905 66.6459 10.3298 67.3996 10.4501L68.0422 10.5577L68.669 10.3678C69.4385 10.1272 69.7162 9.91192 70.0415 9.29142C70.581 8.24037 70.1525 7.37294 68.7642 6.70812C68.4151 6.5435 67.8915 6.27124 67.5979 6.10029C67.3044 5.93566 67.0426 5.8027 67.0029 5.8027C66.9632 5.8027 66.7887 5.72039 66.6062 5.61908C66.1857 5.39748 64.3689 4.68834 64.0516 4.62502C63.9246 4.59969 63.6866 4.53005 63.5359 4.47306C63.3772 4.40975 62.8774 4.29578 62.4252 4.2198C61.965 4.14382 61.3779 4.02352 61.1161 3.9602C60.4735 3.80191 58.744 3.58664 58.0855 3.58664C57.784 3.58664 57.189 3.54232 56.7526 3.49166C55.6261 3.3587 54.3011 3.37136 53.8965 3.51699Z" fill="#4CAF50"/>
<path d="M1.45521 10.7034C1.23307 10.7857 0.955391 10.9376 0.84432 11.0453C0.550776 11.3239 0.257232 11.8494 0.162028 12.2609C0.114426 12.4699 0.0588907 14.7049 0.0271562 17.9024C-0.0283793 23.9238 -0.0680475 23.4996 0.64598 24.0124C1.35207 24.5189 1.76462 24.6709 2.42311 24.6709C2.75633 24.6709 3.13714 24.6266 3.33548 24.5696C3.7639 24.443 4.35892 23.9364 4.65246 23.4679L4.86667 23.1197L4.93808 17.5922C4.99361 13.2803 4.98568 12.0077 4.91427 11.8051C4.79527 11.5011 4.16851 10.944 3.66869 10.7097C3.37515 10.5704 3.24028 10.5514 2.58972 10.5514C1.98676 10.5514 1.78049 10.5767 1.45521 10.7034Z" fill="#4CAF50"/>
<path d="M72.2233 11.919C71.1681 12.128 70.5572 12.5015 70.224 13.1474C70.0891 13.4133 70.0812 13.7362 70.0812 18.7192V24.0061L70.2954 24.3543C70.4144 24.5443 70.5572 24.7469 70.6127 24.8039C70.7952 24.9748 71.3585 25.2281 71.8742 25.3674C73.0246 25.6776 74.286 25.2218 74.8255 24.3037L75 24.0061V18.7508C75 13.6539 74.9921 13.4829 74.8414 13.1474C74.6351 12.6852 74.0321 12.204 73.4926 12.0583C73.0484 11.938 72.4613 11.8747 72.2233 11.919Z" fill="#4CAF50"/>
<path d="M11.0073 12.6979C10.4203 12.7929 9.8411 13.2551 9.52376 13.9009C9.30162 14.3568 9.29368 14.3758 9.39682 14.8506C9.6269 15.927 10.1584 16.2689 12.602 16.9084C14.6172 17.4403 17.2511 18.0101 18.0445 18.0861C18.3856 18.1177 18.8696 18.1874 19.1076 18.2444C19.3456 18.295 19.7026 18.3393 19.901 18.3393C20.0993 18.3393 20.6308 18.409 21.091 18.4976C21.5512 18.5863 22.0906 18.6559 22.2969 18.6559C22.5032 18.6559 22.9078 18.6939 23.2093 18.7446C23.5028 18.7952 24.1454 18.8522 24.6215 18.8775C25.1054 18.8965 25.6766 18.9472 25.8908 18.9788C26.954 19.1371 33.9594 19.2828 35.2129 19.1688C36.0935 19.0865 41.6947 18.9535 44.2175 18.9598C46.8991 18.9598 52.1591 19.0865 52.8652 19.1688C53.6268 19.2511 55.3722 19.2131 56.8717 19.0801C58.0221 18.9788 58.4505 18.9092 59.0138 18.7256C59.6564 18.5166 60.2356 18.3457 60.4815 18.3014C60.6164 18.276 60.8623 18.1811 61.0369 18.0861C61.2114 17.9911 61.7509 17.7315 62.2269 17.5099C62.8299 17.2313 63.2741 16.9654 63.6708 16.6551C64.3452 16.1169 64.4483 15.9017 64.3848 15.1229C64.3293 14.3884 64.0596 13.9705 63.4249 13.6286C62.9806 13.388 62.9171 13.3754 62.2507 13.35C61.2431 13.312 60.6243 13.502 59.4819 14.1985C59.2359 14.3504 58.9186 14.5151 58.7678 14.5657C57.8555 14.876 57.0621 15.0722 56.475 15.1356C55.6102 15.2242 52.6431 15.2179 49.9694 15.1166C47.4703 15.0216 37.3153 15.0659 36.4823 15.1735C36.149 15.2179 34.7369 15.2305 32.5551 15.2179C28.3423 15.1862 26.0495 15.0849 24.2645 14.8443C23.9788 14.8063 23.479 14.7557 23.1537 14.7303C21.8288 14.6227 21.0672 14.5214 19.0838 14.1542C18.5205 14.0528 17.9572 13.9705 17.8144 13.9705C17.505 13.9705 15.1884 13.4387 13.8317 13.0525C13.2684 12.8942 12.6575 12.7359 12.483 12.7042C12.1181 12.6346 11.4199 12.6346 11.0073 12.6979Z" fill="#4CAF50"/>
<path d="M10.333 18.9915C9.80145 19.1371 9.50791 19.3017 9.23816 19.6373C8.76215 20.2071 8.75421 20.2325 8.75421 20.9353C8.75421 21.5431 8.77008 21.6254 8.96842 21.885C9.4127 22.4929 10.4361 22.8981 12.7131 23.3729C13.8555 23.6135 14.2046 23.6959 14.5061 23.8035C14.8631 23.9301 16.7751 24.291 17.0925 24.291C17.3225 24.291 19.2663 24.6013 19.9406 24.7469C20.1152 24.7786 20.5595 24.8356 20.9323 24.8609C21.3052 24.8925 21.8447 24.9432 22.1462 24.9812C22.4397 25.0192 22.9157 25.0825 23.2172 25.1141C23.5108 25.1521 24.32 25.2281 25.0182 25.2788C25.7163 25.3294 26.827 25.4117 27.4776 25.4624C28.1361 25.5194 29.5245 25.589 30.5717 25.6207C31.6189 25.6587 32.8725 25.7156 33.3485 25.7536C33.9118 25.798 36.6171 25.8106 40.9648 25.7916C47.9384 25.7663 52.6589 25.6777 53.6982 25.5637C54.0235 25.5257 54.69 25.4687 55.166 25.4307C56.832 25.3041 57.6571 25.1838 58.9027 24.8862C59.2518 24.8039 59.6326 24.7342 59.7516 24.7342C59.8706 24.7342 60.1007 24.6899 60.2673 24.6329C60.426 24.576 60.8623 24.4493 61.2273 24.348C61.5922 24.2467 61.973 24.1264 62.0682 24.0758C62.1634 24.0251 62.4411 23.9365 62.6871 23.8795C62.9489 23.8225 63.3297 23.6515 63.6312 23.4743C64.0437 23.221 64.1944 23.0817 64.4007 22.7398C64.6546 22.3346 64.6625 22.2839 64.6229 21.7837C64.5673 20.9923 64.1944 20.5617 63.2583 20.2008C62.3142 19.8336 61.7985 19.8906 59.4025 20.6377C58.9027 20.796 58.2998 20.9416 58.0617 20.9669C57.8237 20.9923 57.5381 21.0429 57.4271 21.0809C56.951 21.2329 55.2691 21.4291 53.7379 21.5051C53.0398 21.5431 52.2702 21.6001 52.0322 21.6381C51.3975 21.7394 34.959 21.79 32.4361 21.7014C29.8894 21.6064 28.0329 21.5241 27.6363 21.4735C27.4617 21.4545 26.7874 21.3975 26.1289 21.3468C24.915 21.2519 24.082 21.1695 23.1538 21.0556C22.8681 21.0176 22.3366 20.9669 21.9637 20.9353C21.5908 20.9036 21.1624 20.8466 21.0117 20.8086C20.8609 20.777 20.5912 20.7453 20.4087 20.7453C19.7106 20.7453 13.6017 19.555 13.0542 19.3144C12.3799 19.0168 10.9122 18.8458 10.333 18.9915Z" fill="#4CAF50"/>
<path d="M6.13606 26.0449C5.44584 26.1652 4.62867 26.6781 4.34306 27.1719C4.20026 27.4189 4.19232 28.0394 4.19232 47.1672C4.19232 63.8889 4.20819 66.9408 4.30339 67.1117C4.43826 67.365 5.3427 68.0741 5.64418 68.1628C5.93772 68.2514 7.28644 68.2514 7.57998 68.1628C7.88146 68.0741 8.77796 67.365 8.92077 67.0991C9.01597 66.9154 9.03184 64.1359 9.03184 47.1545C9.03184 28.0394 9.02391 27.4189 8.8811 27.1719C8.65102 26.773 7.95286 26.2728 7.42131 26.1272C7.00083 26.0069 6.50894 25.9753 6.13606 26.0449Z" fill="#4CAF50"/>
<path d="M17.2828 26.3488C17.0845 26.3931 16.8385 26.4564 16.7274 26.4944C16.3942 26.5957 15.6802 27.1529 15.5295 27.4252C15.3867 27.6658 15.3787 28.4699 15.3787 48.3068C15.3787 66.7571 15.3946 68.9605 15.4977 69.1695C15.6961 69.5367 16.5291 70.1762 16.9893 70.2965C17.497 70.4295 18.4728 70.3915 18.9092 70.2205C19.3059 70.0686 19.9088 69.4671 20.1072 69.0365C20.25 68.7136 20.2579 68.1564 20.2817 48.5728C20.2976 34.6242 20.2738 28.3179 20.2182 28.0457C20.0992 27.4948 19.885 27.1276 19.5042 26.83C18.9568 26.4058 17.9651 26.1905 17.2828 26.3488Z" fill="#4CAF50"/>
<path d="M68.0184 26.887C67.1775 27.0263 66.6935 27.3238 66.3048 27.9443L66.035 28.3749V47.8763V67.3776L66.2572 67.7385C66.6856 68.435 67.3917 68.7706 68.4548 68.7706C69.0181 68.7706 69.2006 68.7452 69.5734 68.6059C70.1367 68.3907 70.5493 68.0551 70.7714 67.6056L70.9539 67.251L70.9777 48.0662C70.9936 34.8585 70.9698 28.7865 70.9142 28.5712C70.7793 28.0646 70.3668 27.4631 70.0177 27.2605C69.4862 26.9503 68.6135 26.792 68.0184 26.887Z" fill="#4CAF50"/>
<path d="M55.4753 28.3369C54.444 28.5459 53.8093 29.1221 53.6189 29.9958C53.5554 30.2807 53.5395 35.9729 53.5554 49.6175L53.5792 68.8339L53.7617 69.1948C53.9838 69.6254 54.6344 70.2269 55.0311 70.3535C55.396 70.4801 56.6019 70.4801 56.9589 70.3598C57.308 70.2395 58.2442 69.4671 58.387 69.1822C58.4822 68.9922 58.4981 66.0163 58.4981 49.3642C58.4981 30.2364 58.4981 29.7615 58.3473 29.464C57.9744 28.7042 56.4909 28.128 55.4753 28.3369Z" fill="#4CAF50"/>
<path d="M29.1039 28.8244C28.3899 28.9764 28.0011 29.2043 27.5806 29.7362L27.2078 30.211V50.8204L27.1998 71.4298L27.4854 71.7781C27.8901 72.2719 28.2947 72.5948 28.6914 72.7341C29.1674 72.8988 30.1511 72.8988 30.6272 72.7341C31.0952 72.5695 31.8251 71.949 32.0076 71.5565C32.1504 71.2525 32.1584 70.6257 32.1584 50.7888V30.3377L31.9759 30.0274C31.4364 29.103 30.2305 28.5965 29.1039 28.8244Z" fill="#4CAF50"/>
<path d="M41.9088 28.9067C41.766 28.9321 41.4248 29.0587 41.1392 29.1853C40.6632 29.4006 40.6077 29.4512 40.322 29.9071L40.0126 30.401V51.1054V71.8097L40.33 72.3162C40.6235 72.7911 40.6791 72.8354 41.163 73.057C42.0436 73.4623 42.8211 73.4813 43.7018 73.1204C44.2175 72.9114 44.5745 72.5252 44.8125 71.911C44.9712 71.5185 44.9712 71.2525 44.9712 51.1433C44.9712 37.6507 44.9394 30.6859 44.8839 30.5023C44.7807 30.1351 44.4317 29.5779 44.1857 29.3753C43.7256 29.008 42.5673 28.7674 41.9088 28.9067Z" fill="#4CAF50"/>
<path d="M69.748 70.6954C68.9784 70.8474 68.2961 71.2779 67.7804 71.9364C67.6931 72.0504 67.3203 72.367 66.9474 72.6455C66.4396 73.0254 66.0747 73.2344 65.4876 73.4813C65.0512 73.6586 64.6625 73.8042 64.6228 73.8042C64.5752 73.8042 64.3451 73.8802 64.0992 73.9688C63.8533 74.0575 63.5121 74.1905 63.3376 74.2538C63.163 74.3171 62.5998 74.4564 62.0841 74.564C61.5684 74.6653 61.0527 74.792 60.9337 74.8426C60.5291 75.0136 58.0934 75.4441 57.1493 75.5201C56.8003 75.5454 56.0704 75.6404 55.5309 75.729C54.9914 75.8177 54.4122 75.8937 54.2456 75.8937C54.079 75.8937 53.7062 75.9316 53.4047 75.9823C53.1111 76.033 52.4368 76.0899 51.9131 76.1153C51.3895 76.1343 50.6834 76.1976 50.3344 76.2482C49.9932 76.2989 49.541 76.3369 49.3188 76.3369C49.1046 76.3369 48.6921 76.3685 48.3985 76.4002C47.7559 76.4825 46.2247 76.5711 44.2572 76.6535C43.448 76.6851 42.4721 76.7421 42.0754 76.7801C41.1155 76.8751 37.347 76.989 35.0542 76.989C32.9676 76.9954 30.5796 76.8877 29.6117 76.7484C29.2626 76.6978 28.7945 76.6535 28.5803 76.6535C28.3661 76.6535 27.5648 76.5521 26.8032 76.4318C26.0416 76.3115 24.2486 76.0266 22.8205 75.805C21.3925 75.5771 20.1389 75.3618 20.0437 75.3175C19.9485 75.2795 19.5519 75.1782 19.171 75.0959C17.3939 74.716 17.0369 74.6337 16.3943 74.4437C14.7917 73.9878 14.3712 73.8739 14.03 73.8106C13.8317 73.7662 13.5144 73.6839 13.316 73.6143C13.1177 73.551 12.7448 73.437 12.483 73.3737C11.9752 73.2344 11.3485 73.0508 10.3409 72.7279C9.99182 72.6139 9.43647 72.4493 9.11119 72.367C8.78591 72.2846 8.34163 72.1453 8.11948 72.063C7.18332 71.7085 6.58036 71.5059 6.13608 71.3982C5.87427 71.3412 5.49345 71.2209 5.30304 71.145C5.0571 71.0436 4.76356 70.9867 4.34307 70.9677C3.81152 70.9423 3.67665 70.9613 3.29583 71.1006C2.77221 71.2906 2.19306 71.7021 1.92332 72.0757C1.77258 72.272 1.70911 72.4746 1.67737 72.8165C1.62977 73.2724 1.64564 73.304 1.93125 73.7219C2.08992 73.9562 2.32 74.2348 2.43107 74.3298C2.70875 74.564 3.46244 74.8996 4.08126 75.0642C4.34307 75.1339 4.87463 75.2922 5.25544 75.4125C5.64419 75.5391 6.0012 75.6404 6.04881 75.6404C6.09641 75.6404 6.35028 75.729 6.60416 75.8303C6.86597 75.938 7.31025 76.0773 7.59586 76.1469C7.88148 76.2229 8.19882 76.3179 8.29402 76.3685C8.38923 76.4192 8.63517 76.4888 8.84144 76.5268C9.04772 76.5648 9.3968 76.6661 9.62687 76.7484C9.84902 76.8371 10.087 76.9067 10.1505 76.9067C10.214 76.9067 10.3488 76.9637 10.4599 77.0333C10.571 77.103 10.7138 77.16 10.7852 77.16C10.9994 77.16 13.6334 77.8755 13.9904 78.0274C14.0776 78.0654 14.3633 78.1287 14.6251 78.173C14.8869 78.2174 15.1963 78.2933 15.3153 78.3377C15.4343 78.3883 15.8072 78.4833 16.1483 78.5466C16.8465 78.6859 17.6716 78.8758 18.5522 79.0975C18.8775 79.1798 19.6153 79.3191 20.1786 79.4077C20.7498 79.4963 21.4083 79.623 21.6463 79.6926C21.8843 79.7623 22.8522 79.9332 23.7884 80.0725C24.7246 80.2118 25.6449 80.3574 25.8274 80.3891C26.0098 80.4271 26.3272 80.4524 26.5414 80.4524C26.7477 80.4524 27.2078 80.4967 27.5569 80.5537C27.906 80.6044 28.5486 80.6804 28.9849 80.712C29.4213 80.75 30.0798 80.8007 30.4527 80.8323C32.3091 80.9906 35.0542 81.0413 37.4184 80.9653C40.9013 80.845 41.9723 80.8007 43.8605 80.674C44.7967 80.617 45.7646 80.5537 46.0026 80.5411C46.2406 80.5347 46.8832 80.4904 47.4306 80.4524C47.9781 80.4144 49.065 80.3448 49.8504 80.2941C50.6358 80.2435 51.4371 80.1738 51.6355 80.1422C51.8338 80.1042 52.1908 80.0789 52.4288 80.0725C52.6668 80.0725 53.008 80.0409 53.1825 80.0092C53.3571 79.9775 53.8807 79.9206 54.3408 79.8826C54.801 79.8509 55.515 79.7623 55.9276 79.6926C56.3401 79.6166 56.9748 79.5343 57.3477 79.5027C58.0379 79.4457 59.5294 79.2114 60.6084 78.9961C60.9416 78.9265 61.4732 78.8315 61.7985 78.7745C62.1237 78.7239 62.5442 78.6226 62.7426 78.5593C62.9409 78.4896 63.4566 78.3567 63.8929 78.2617C64.3293 78.1667 64.8132 78.0401 64.964 77.9831C65.1147 77.9198 65.4003 77.8375 65.5987 77.7931C65.9398 77.7235 66.9632 77.3436 67.1616 77.217C67.2092 77.179 67.4789 77.0587 67.7566 76.9447C68.9467 76.4445 69.2243 76.3115 69.5417 76.0773C69.7242 75.9443 69.9304 75.8303 69.986 75.8303C70.1129 75.8303 71.7155 74.4754 72.0804 74.0638C72.5644 73.513 72.6834 73.247 72.6913 72.6962C72.6993 72.234 72.6755 72.1517 72.4057 71.7148C72.1677 71.3349 72.0328 71.2083 71.771 71.0753C71.0649 70.7397 70.2795 70.5941 69.748 70.6954Z" fill="#4CAF50"/>
</svg>
