<?xml version="1.0" standalone="no"?>
<!DOCTYPE svg PUBLIC "-//W3C//DTD SVG 20010904//EN"
 "http://www.w3.org/TR/2001/REC-SVG-20010904/DTD/svg10.dtd">
<svg version="1.0" xmlns="http://www.w3.org/2000/svg"
 width="1024.000000pt" height="1024.000000pt" viewBox="0 0 1024.000000 1024.000000"
 preserveAspectRatio="xMidYMid meet">

<g transform="translate(0.000000,1024.000000) scale(0.100000,-0.100000)"
fill="#000000" stroke="none">
<path d="M5210 7050 c0 -5 7 -10 15 -10 30 0 14 -20 -17 -21 -31 -2 -31 -2 7
-8 31 -5 41 -3 44 9 2 8 8 19 15 23 6 5 1 6 -11 2 -14 -4 -23 -2 -23 4 0 6 -7
11 -15 11 -8 0 -15 -4 -15 -10z"/>
<path d="M6031 6926 c-18 -21 2 -26 75 -17 12 1 15 31 2 31 -4 0 -8 -4 -8 -10
0 -5 -15 -10 -32 -10 -25 0 -29 3 -18 10 8 5 10 10 4 10 -6 0 -17 -6 -23 -14z"/>
<path d="M6130 6916 c0 -9 5 -16 10 -16 6 0 10 4 10 9 0 6 -4 13 -10 16 -5 3
-10 -1 -10 -9z"/>
<path d="M5055 6652 c-48 -36 -50 -40 -53 -90 -3 -43 -6 -52 -21 -52 -29 0
-59 -31 -74 -73 l-13 -38 -53 35 c-64 43 -92 52 -129 38 -15 -6 -40 -13 -55
-17 -60 -13 -93 -77 -66 -127 10 -18 8 -24 -15 -41 -35 -26 -34 -61 4 -89 37
-27 38 -41 4 -63 -23 -15 -28 -15 -49 -1 -22 14 -28 14 -79 -9 -71 -32 -87
-60 -62 -112 16 -35 16 -36 -4 -57 -15 -17 -20 -36 -20 -78 l0 -56 35 16 c31
14 33 18 20 32 -8 9 -15 23 -15 32 0 17 31 48 47 48 20 0 32 24 18 37 -7 6
-15 9 -19 6 -11 -11 -36 19 -36 43 0 18 9 28 37 39 29 12 34 18 23 25 -17 10
-13 15 17 24 27 9 38 -7 39 -59 0 -22 10 -61 22 -87 17 -36 20 -57 15 -93 -3
-26 -12 -49 -19 -52 -20 -7 -17 -37 5 -57 19 -18 39 -7 26 15 -11 17 4 57 23
63 9 2 27 7 40 11 16 5 22 2 22 -10 0 -9 -7 -16 -17 -14 -10 1 -27 1 -38 0
-17 -1 -18 -3 -5 -11 8 -5 11 -10 6 -10 -5 0 3 -11 18 -25 15 -14 31 -23 35
-20 14 8 40 -29 50 -73 5 -24 11 -45 13 -46 104 -72 182 -147 191 -183 4 -19
-6 -15 -79 30 -46 28 -84 57 -84 63 0 25 -39 47 -72 40 -18 -4 -56 -9 -85 -12
-38 -5 -50 -10 -46 -20 3 -9 -2 -14 -12 -14 -10 0 -15 5 -12 14 3 8 -5 19 -18
26 -21 11 -39 51 -34 76 4 25 -3 44 -16 44 -8 0 -15 -8 -15 -17 0 -10 -5 -25
-10 -33 -9 -13 -11 -13 -20 0 -8 13 -10 13 -10 -2 0 -9 -5 -20 -12 -24 -7 -4
-8 -3 -4 4 4 7 2 12 -5 12 -8 0 -8 4 1 15 11 13 10 14 -1 10 -10 -4 -15 1 -15
15 0 11 4 20 9 20 5 0 2 10 -6 23 -8 13 -17 34 -19 47 -1 12 -13 29 -24 37
-19 12 -25 11 -53 -12 -57 -49 -35 -137 39 -151 19 -4 30 -14 34 -30 6 -24 16
-27 73 -24 26 1 35 -4 48 -29 27 -53 122 -83 143 -45 8 14 12 14 47 -1 22 -8
51 -13 65 -10 15 3 38 -2 60 -15 19 -11 65 -35 101 -54 39 -21 79 -51 98 -75
l32 -40 -3 -123 -3 -123 -395 2 c-217 1 -415 -2 -440 -6 -25 -5 -83 -14 -130
-21 -47 -6 -141 -25 -209 -41 -68 -17 -133 -28 -144 -25 -10 2 -16 2 -13 -1
10 -11 -38 -30 -51 -21 -7 6 -13 2 -18 -11 -7 -23 -77 -51 -83 -33 -4 13 -85
-13 -123 -39 -26 -18 -27 -18 -43 0 -16 18 -16 20 4 34 16 11 19 21 14 41 -3
14 -9 26 -13 26 -4 0 -7 8 -8 18 -4 44 -16 98 -24 109 -6 7 -6 12 2 15 8 3 2
30 -19 88 -17 47 -35 101 -40 120 -6 21 -11 29 -14 20 -42 -128 -58 -192 -53
-212 4 -16 1 -29 -9 -37 -10 -8 -14 -22 -10 -36 3 -13 1 -26 -5 -29 -5 -4 -8
-13 -4 -21 3 -9 0 -22 -7 -30 -7 -8 -10 -26 -8 -40 3 -14 -1 -30 -9 -36 -7 -7
-11 -20 -8 -29 6 -18 -18 -50 -35 -50 -18 0 -36 43 -49 120 -5 25 -13 57 -19
72 -7 17 -8 29 -2 33 6 4 5 15 -2 28 -7 12 -12 27 -13 32 0 6 -6 33 -12 60 -7
28 -15 68 -18 90 -7 39 -8 38 -40 -70 -19 -60 -32 -113 -29 -117 3 -4 -1 -18
-7 -30 -7 -13 -12 -36 -11 -51 2 -16 -5 -54 -15 -85 -14 -42 -15 -56 -5 -60
16 -5 15 -39 -2 -45 -10 -4 -12 -18 -9 -54 3 -26 6 -49 7 -49 0 -1 42 4 91 11
151 22 307 61 549 140 521 171 663 192 1166 175 416 -14 608 -26 855 -55 116
-13 282 -29 370 -35 428 -27 689 -70 951 -154 137 -44 253 -76 276 -76 40 0
13 18 -67 45 -101 33 -131 64 -94 94 l22 18 -16 84 c-10 46 -17 96 -17 111 0
15 -5 30 -11 34 -6 3 -8 16 -5 28 3 13 -9 59 -28 110 l-33 88 -12 -34 c-7 -18
-23 -58 -36 -90 -17 -41 -20 -59 -12 -67 8 -8 6 -21 -7 -45 -10 -19 -15 -39
-12 -45 4 -6 0 -24 -9 -40 -17 -34 -20 -101 -4 -101 6 0 4 -7 -5 -15 -18 -19
-37 -19 -82 0 -25 10 -34 20 -31 30 7 16 -17 45 -37 45 -7 0 -26 -6 -42 -14
-16 -7 -42 -12 -59 -11 -16 1 -40 3 -52 3 -28 2 -41 45 -22 70 13 15 12 16 -3
4 -9 -8 -22 -11 -28 -7 -16 10 -50 -4 -50 -21 0 -8 11 -14 28 -15 15 0 21 -3
13 -6 -7 -3 -45 -1 -85 5 -39 6 -97 14 -129 17 l-57 6 6 42 c4 23 10 46 15 52
15 15 10 28 -6 15 -20 -17 -38 -2 -32 27 3 16 -1 27 -10 30 -8 3 -12 12 -9 19
3 8 0 11 -10 7 -11 -4 -14 -26 -14 -95 l0 -91 -46 7 c-26 3 -54 6 -63 6 -10 0
-27 20 -42 50 -13 27 -32 52 -41 56 -10 3 -18 13 -18 22 -1 9 -7 2 -15 -17
-17 -37 -19 -53 -6 -33 6 10 11 5 20 -19 6 -18 19 -41 28 -51 9 -10 14 -20 12
-22 -5 -6 -138 7 -409 38 -118 13 -248 27 -289 31 l-73 7 4 117 c4 106 7 122
32 167 30 52 93 122 138 155 27 20 28 20 57 -2 43 -32 100 -30 140 4 l32 27
28 -21 c36 -26 71 -18 111 27 26 30 35 34 72 32 42 -3 43 -2 46 30 3 24 8 32
23 32 30 0 79 53 79 85 0 32 -49 85 -79 85 -15 0 -22 9 -27 34 -7 38 -26 60
-64 71 -42 13 -50 24 -44 64 9 54 -12 118 -44 138 -15 9 -29 18 -31 19 -2 2 6
15 18 30 26 34 26 45 0 79 -17 21 -28 26 -49 21 -22 -4 -29 -1 -33 13 -2 10
-1 25 4 32 17 27 10 75 -16 99 -20 19 -32 22 -70 17 -43 -4 -47 -3 -57 22 -30
77 -38 89 -71 104 -37 18 -67 14 -67 -8 0 -7 -7 -18 -15 -25 -12 -10 -20 -3
-47 37 -46 67 -93 113 -114 113 -11 0 -41 -17 -69 -38z m92 -48 c-3 -19 -1
-24 10 -20 10 4 11 1 4 -13 -16 -29 -29 -98 -21 -110 6 -11 40 76 40 105 0 8
7 14 15 14 8 0 15 -4 15 -10 0 -5 -5 -10 -11 -10 -17 0 0 -43 27 -67 33 -30
45 -28 69 9 11 17 25 33 32 35 16 6 68 -50 84 -90 21 -53 27 -57 58 -39 26 15
30 15 55 -2 22 -14 27 -24 24 -49 -2 -26 -11 -35 -50 -55 -66 -34 -61 -58 6
-32 35 13 47 6 79 -43 22 -32 27 -49 22 -74 -5 -29 -3 -33 20 -39 23 -6 55
-38 55 -56 0 -4 -21 2 -46 13 -26 11 -49 17 -52 14 -3 -3 7 -19 23 -35 25 -27
27 -32 16 -53 -40 -74 -106 -117 -180 -117 -36 0 -41 3 -46 28 -4 15 -11 35
-16 45 -6 10 -7 28 -3 39 4 15 2 19 -7 16 -23 -8 -17 -79 9 -109 30 -36 28
-67 -7 -107 -27 -30 -34 -33 -72 -28 -23 2 -45 8 -49 13 -14 14 -15 57 -2 80
7 12 12 31 12 42 0 12 11 26 28 35 25 13 26 15 7 21 -60 19 -70 30 -67 74 6
101 59 155 144 148 35 -3 48 0 53 11 7 19 -4 30 -14 14 -4 -7 -15 -10 -23 -7
-9 4 -36 1 -59 -6 -24 -7 -48 -12 -53 -10 -8 2 -55 -32 -92 -67 -20 -19 -57
-42 -69 -42 -3 0 1 12 8 28 18 34 35 110 40 180 4 56 3 60 -64 144 -26 33 -48
105 -29 93 13 -8 13 18 0 31 -12 12 2 59 27 86 23 25 57 6 50 -28z m-75 -205
c-1 -13 -7 -66 -13 -117 -10 -77 -9 -102 4 -146 15 -56 9 -157 -7 -108 -4 13
-14 22 -22 20 -20 -4 -20 -1 -5 -103 10 -66 11 -90 2 -93 -6 -2 -9 -8 -5 -13
3 -5 -3 -9 -12 -9 -10 0 -25 -6 -33 -14 -22 -19 -89 -28 -95 -13 -2 7 -5 3 -5
-8 -1 -17 -3 -17 -11 -5 -12 19 -13 53 -1 46 5 -4 15 7 23 24 7 17 21 33 30
36 10 3 18 11 18 19 0 7 5 15 11 17 5 2 7 11 3 21 -10 26 -48 18 -52 -10 -2
-13 -10 -23 -18 -23 -8 0 -15 10 -15 23 l-2 22 -4 -22 c-3 -15 -14 -25 -31
-29 -15 -3 -44 -10 -65 -16 -35 -8 -41 -6 -71 19 -17 16 -46 35 -63 42 -17 7
-39 29 -51 50 -24 42 -27 55 -12 46 6 -3 10 -1 10 4 0 6 16 21 35 33 43 29 49
43 31 80 -13 26 -13 30 1 35 8 3 45 1 82 -4 36 -6 67 -9 69 -8 1 1 -5 16 -13
32 -11 23 -27 34 -60 44 -24 7 -41 17 -39 21 3 4 -4 8 -14 8 -11 0 -25 7 -32
15 -7 8 -17 12 -22 9 -5 -4 -2 9 7 27 11 23 12 28 2 17 -21 -26 -28 -22 -15 7
10 22 16 25 47 19 20 -4 33 -3 28 1 -4 5 4 16 19 25 21 15 31 15 59 5 40 -13
61 -31 28 -23 -14 4 -27 0 -35 -10 -11 -14 -10 -15 6 -9 12 5 22 3 27 -5 6
-10 13 -10 26 -2 10 6 27 8 38 3 31 -12 55 -10 55 4 0 8 11 19 25 25 17 8 25
20 25 36 l0 24 58 -22 c49 -20 57 -26 54 -47z m-369 -151 c20 -11 15 -13 -48
-24 -38 -6 -71 -11 -72 -10 -2 1 4 12 13 24 17 25 71 30 107 10z m937 -28 c0
-19 -28 -10 -33 10 -4 17 -2 18 14 9 10 -5 19 -14 19 -19z m-451 -331 c-17
-50 -27 -56 -39 -25 -13 34 -3 74 18 78 25 6 33 -16 21 -53z m531 30 c0 -5 -8
-9 -17 -7 -10 1 -24 -1 -31 -6 -16 -10 -27 -2 -17 13 8 14 65 14 65 0z m75
-125 c15 -21 28 -29 50 -29 36 0 46 -28 16 -45 -18 -9 -25 -7 -45 13 -34 34
-57 15 -55 -47 2 -50 -16 -75 -55 -76 -11 0 -28 -7 -38 -17 -10 -9 -18 -11
-18 -5 0 8 -7 8 -27 -1 -21 -9 -27 -9 -31 1 -6 19 -32 14 -64 -13 -34 -29
-107 -35 -127 -11 -9 11 -2 21 36 49 26 19 63 42 81 51 17 9 32 19 32 21 0 2
-15 9 -32 14 -32 9 -32 9 -5 10 27 1 37 16 16 23 -18 6 -2 42 23 53 13 6 22
17 21 25 -4 25 32 61 68 69 28 6 42 2 84 -24 28 -18 59 -45 70 -61z m-1037 64
c16 -16 15 -38 -2 -38 -13 0 -26 20 -26 41 0 13 14 11 28 -3z m790 -10 c2 -12
-7 -20 -34 -27 -47 -13 -51 -9 -30 24 19 29 59 31 64 3z m-289 -108 c7 0 9 -4
6 -10 -3 -5 -1 -10 4 -10 6 0 11 5 11 11 0 5 5 7 10 4 6 -4 -9 -29 -34 -58
-28 -31 -58 -82 -77 -129 -17 -43 -36 -78 -41 -78 -6 0 -7 51 -3 143 7 138 8
143 33 165 l27 23 26 -31 c14 -16 31 -30 38 -30z m-931 0 c-1 -31 -23 -41 -45
-19 -18 18 -3 49 22 49 20 0 24 -5 23 -30z m715 -7 c15 -26 16 -42 10 -94 -4
-35 -12 -63 -17 -63 -5 1 -24 26 -43 55 l-33 54 21 43 c24 48 36 49 62 5z
m394 28 c-1 -3 8 -16 21 -29 23 -23 23 -24 5 -37 -25 -19 -43 -18 -59 3 -16
21 -18 44 -4 58 11 11 40 15 37 5z m73 -27 c0 -2 -7 -4 -15 -4 -8 0 -15 4 -15
10 0 5 7 7 15 4 8 -4 15 -8 15 -10z m-615 -38 c76 -45 144 -136 145 -191 0
-74 -12 -71 -82 17 -35 46 -73 98 -83 116 -11 17 -27 32 -35 32 -9 0 -29 14
-46 32 -16 17 -23 28 -16 24 6 -4 12 -2 12 4 0 18 41 5 105 -34z m475 -16 c19
-46 6 -71 -72 -130 -40 -30 -85 -68 -101 -84 l-28 -29 21 54 c35 89 129 219
159 219 5 0 14 -13 21 -30z m-2265 -870 c-3 -5 -12 -10 -20 -10 -8 0 -17 5
-20 10 -4 6 5 10 20 10 15 0 24 -4 20 -10z"/>
<path d="M5446 6034 c-4 -9 -4 -19 -1 -22 2 -3 7 3 11 12 4 9 4 19 1 22 -2 3
-7 -3 -11 -12z"/>
<path d="M3752 6489 c-23 -9 -59 -39 -47 -39 3 0 16 7 30 16 13 8 40 16 59 17
20 1 36 5 36 10 0 10 -50 8 -78 -4z"/>
<path d="M3885 6465 c4 -11 10 -29 13 -40 2 -11 9 -26 15 -32 7 -10 4 -13 -12
-13 -12 0 -21 -6 -21 -15 0 -8 -9 -15 -20 -15 -23 0 -26 10 -8 28 9 9 9 12 -1
12 -7 0 -9 4 -6 10 3 6 -1 7 -9 4 -9 -3 -16 -1 -16 5 0 6 -4 11 -10 11 -5 0
-10 -10 -10 -21 0 -19 -4 -21 -31 -15 -17 3 -46 6 -63 6 -18 0 -26 3 -19 8 7
4 9 13 4 21 -7 10 -9 10 -14 -2 -3 -8 -18 -17 -34 -21 -61 -14 -82 -28 -93
-61 -22 -66 -26 -65 255 -65 162 0 256 4 260 10 11 17 -15 79 -42 100 -17 13
-41 20 -69 20 -39 0 -44 3 -44 23 0 12 -8 31 -17 42 l-16 20 8 -20z m-235 -95
c0 -5 -9 -10 -21 -10 -11 0 -17 5 -14 10 3 6 13 10 21 10 8 0 14 -4 14 -10z
m-50 -4 c0 -2 -7 -9 -15 -16 -13 -11 -14 -10 -9 4 5 14 24 23 24 12z m84 -12
c4 -10 -3 -18 -24 -26 -17 -5 -30 -13 -30 -17 0 -4 -8 -7 -19 -7 -12 0 -17 5
-13 15 3 9 1 12 -6 7 -7 -4 -12 -16 -12 -26 0 -13 -5 -17 -15 -14 -8 4 -15 11
-15 17 0 6 3 7 6 4 4 -3 15 5 26 18 11 14 30 25 43 25 13 0 27 5 30 10 9 15
22 12 29 -6z"/>
<path d="M3608 6333 c6 -2 18 -2 25 0 6 3 1 5 -13 5 -14 0 -19 -2 -12 -5z"/>
<path d="M5912 6417 c14 -28 23 -37 15 -15 -3 9 -1 18 6 21 6 2 2 6 -11 9 -19
5 -21 4 -10 -15z"/>
<path d="M4458 5853 c7 -3 16 -2 19 1 4 3 -2 6 -13 5 -11 0 -14 -3 -6 -6z"/>
<path d="M3380 5799 c-13 -5 -38 -24 -55 -42 -17 -18 -39 -37 -50 -43 -11 -7
-18 -13 -15 -15 3 -2 69 -3 148 -1 159 3 163 5 110 65 -36 41 -92 55 -138 36z"/>
<path d="M4620 5769 c0 -5 5 -7 10 -4 6 3 10 8 10 11 0 2 -4 4 -10 4 -5 0 -10
-5 -10 -11z"/>
<path d="M7162 5223 c-12 -24 -54 -144 -57 -163 -1 -8 -9 -33 -19 -54 -9 -22
-14 -46 -12 -53 3 -7 1 -13 -5 -13 -6 0 -9 -6 -6 -14 3 -7 1 -18 -4 -23 -6 -6
-7 -26 -4 -45 5 -28 14 -38 48 -55 59 -27 117 -15 153 33 24 31 26 39 19 91
-4 32 -11 63 -16 69 -4 5 -10 26 -13 45 -3 28 -60 187 -71 197 -2 2 -8 -5 -13
-15z"/>
<path d="M6177 5173 c-4 -3 -7 -11 -7 -17 0 -6 5 -5 12 2 6 6 9 14 7 17 -3 3
-9 2 -12 -2z"/>
<path d="M3820 5085 c0 -5 5 -17 10 -25 5 -8 10 -10 10 -5 0 6 -5 17 -10 25
-5 8 -10 11 -10 5z"/>
<path d="M3635 5000 c3 -5 11 -10 16 -10 6 0 7 5 4 10 -3 6 -11 10 -16 10 -6
0 -7 -4 -4 -10z"/>
<path d="M5155 4899 c-124 -16 -372 -79 -548 -139 -95 -33 -264 -90 -377 -129
-116 -39 -279 -86 -375 -107 -165 -37 -176 -38 -375 -38 -133 -1 -229 4 -275
13 -137 26 -272 63 -388 107 -123 46 -147 51 -147 34 0 -6 25 -67 56 -135 66
-146 150 -292 214 -369 l45 -55 2104 2 2104 2 54 70 c55 72 193 332 193 363 0
18 -8 22 -220 98 -242 87 -384 112 -673 121 -220 6 -336 -2 -522 -38 -220 -43
-328 -79 -720 -239 -300 -123 -410 -160 -577 -194 -231 -48 -549 -52 -808 -11
-164 27 -410 85 -545 130 -139 46 -290 110 -240 101 191 -34 293 -39 500 -28
116 6 262 20 325 31 113 19 382 98 550 161 222 83 545 194 639 221 146 41 147
45 6 28z"/>
<path d="M2943 3911 c-152 -71 -128 -325 34 -370 50 -14 129 -13 173 2 33 12
34 13 31 59 -3 57 5 88 25 88 8 0 14 5 14 10 0 6 -31 10 -72 10 -72 0 -73 -1
-50 -18 20 -15 23 -26 20 -68 l-3 -49 -62 0 c-47 0 -66 5 -83 20 -61 55 -79
164 -38 236 23 42 64 64 118 63 65 0 87 -11 103 -53 25 -61 37 -60 37 4 0 51
-2 56 -27 67 -16 6 -62 13 -103 15 -59 3 -84 -1 -117 -16z"/>
<path d="M6185 3824 c-70 -151 -105 -232 -105 -243 0 -6 -9 -11 -19 -11 -11 0
-23 -4 -26 -10 -4 -6 21 -10 67 -10 68 0 71 1 50 16 -27 19 -29 64 -4 91 14
16 27 19 75 15 56 -4 60 -6 73 -38 19 -46 18 -59 -8 -72 -18 -8 -3 -11 72 -10
56 0 81 3 61 7 -33 6 -37 11 -108 166 -41 88 -78 164 -83 169 -5 5 -24 -24
-45 -70z m55 -68 c11 -25 20 -47 20 -50 0 -8 -75 -8 -83 0 -5 5 32 94 40 94 1
0 12 -20 23 -44z"/>
<path d="M6606 3889 c-85 -20 -136 -85 -136 -174 0 -76 48 -141 124 -165 55
-18 154 -8 205 21 40 22 58 49 24 34 -34 -15 -118 -35 -143 -35 -43 1 -106 36
-128 72 -42 67 -21 170 40 208 57 34 182 21 210 -24 12 -19 19 1 9 27 -16 42
-109 58 -205 36z"/>
<path d="M7285 3893 c-38 -10 -65 -44 -65 -84 0 -30 8 -44 43 -78 23 -23 59
-52 80 -63 29 -17 37 -28 37 -50 0 -63 -106 -77 -130 -17 -16 38 -25 37 -24
-4 1 -52 9 -57 80 -57 59 0 68 3 95 29 60 61 33 124 -87 196 -53 32 -66 62
-39 89 24 24 69 20 104 -10 l31 -26 0 25 c0 13 -7 30 -15 37 -16 13 -80 21
-110 13z"/>
<path d="M3250 3881 c0 -5 11 -12 25 -15 24 -6 25 -8 25 -100 0 -51 3 -114 6
-139 6 -44 6 -45 -25 -52 -53 -11 -24 -25 52 -24 68 0 71 1 50 16 -20 13 -23
24 -23 80 0 61 1 63 21 53 11 -6 32 -30 47 -52 15 -22 39 -54 54 -69 l26 -29
171 0 c158 0 171 1 181 19 5 11 10 22 10 25 0 9 -35 7 -46 -3 -9 -9 -58 -15
-106 -12 -28 1 -28 2 -28 71 l0 70 49 0 c39 0 51 -4 54 -17 3 -10 5 -2 6 18
l1 36 -55 -5 -55 -4 0 56 0 56 64 0 c51 0 65 -3 70 -17 6 -15 8 -15 16 -3 6 8
10 23 10 33 0 15 -13 17 -140 17 -80 0 -140 -4 -140 -9 0 -5 12 -11 28 -13
l27 -3 3 -143 3 -142 -26 -10 c-36 -14 -71 3 -91 42 -9 18 -28 48 -41 66 l-25
34 25 26 c56 61 57 100 4 133 -26 15 -51 19 -129 19 -54 0 -98 -4 -98 -9z
m200 -56 c17 -51 -3 -88 -53 -96 l-37 -6 0 69 0 68 39 0 c36 0 40 -3 51 -35z"/>
<path d="M3890 3881 c0 -5 14 -11 30 -14 l30 -6 0 -136 c0 -135 0 -136 -25
-145 -55 -21 -24 -30 105 -30 137 0 152 5 136 46 -6 15 -8 15 -32 0 -17 -12
-41 -16 -77 -14 l-52 3 -3 68 -3 67 50 0 c41 0 51 -4 56 -20 4 -11 11 -18 16
-15 12 8 12 72 -1 80 -5 3 -10 1 -10 -4 0 -7 -23 -11 -56 -11 l-55 0 3 53 3
52 75 0 c63 0 75 3 78 18 3 15 -8 17 -132 17 -75 0 -136 -4 -136 -9z"/>
<path d="M4190 3886 c0 -4 15 -13 34 -21 l33 -14 5 -112 c7 -130 1 -163 -30
-167 -45 -7 -20 -22 35 -22 44 0 54 3 45 12 -8 8 -12 49 -12 117 l0 105 114
-119 c68 -71 119 -116 127 -113 10 3 14 22 15 59 2 242 3 246 27 254 l22 7
-25 8 c-35 11 -132 12 -125 1 3 -5 19 -12 35 -16 l30 -7 0 -115 0 -115 -47 53
c-27 30 -80 87 -118 127 -64 67 -75 74 -118 79 -26 3 -47 3 -47 -1z"/>
<path d="M5294 3876 c-17 -8 -36 -26 -43 -44 -20 -49 6 -90 84 -135 93 -54
102 -111 21 -131 -44 -12 -68 -1 -76 34 -10 41 -30 36 -30 -8 0 -36 3 -40 31
-46 83 -16 132 -4 159 39 41 66 16 116 -81 166 -55 27 -59 32 -59 64 0 29 4
36 25 41 26 6 56 3 88 -11 12 -5 17 -3 17 9 0 35 -77 47 -136 22z"/>
<path d="M5532 3865 c-25 -21 -32 -34 -32 -63 0 -46 19 -70 93 -116 64 -40 75
-56 59 -90 -21 -46 -105 -37 -136 14 -10 17 -20 30 -22 27 -8 -7 18 -72 34
-84 23 -19 91 -15 140 7 41 19 42 20 42 67 0 58 -18 83 -80 113 -60 30 -80 49
-80 75 0 35 24 48 74 41 49 -8 62 -19 68 -55 1 -14 9 -26 16 -29 21 -7 14 51
-11 82 -20 24 -33 30 -78 34 -49 4 -59 1 -87 -23z"/>
<path d="M5790 3882 c0 -5 11 -14 25 -20 32 -15 36 -36 33 -167 -3 -102 -4
-110 -26 -121 -42 -21 -36 -24 41 -24 74 0 100 11 57 25 -16 5 -20 15 -20 50
l0 43 47 7 c119 18 154 174 45 204 -44 13 -202 15 -202 3z m194 -38 c9 -9 16
-32 16 -55 0 -47 -35 -89 -75 -89 -25 0 -25 1 -25 80 l0 80 34 0 c19 0 42 -7
50 -16z"/>
<path d="M6860 3878 c0 -4 10 -8 23 -10 19 -3 23 -11 29 -58 12 -108 9 -207
-8 -224 -8 -9 -20 -16 -25 -16 -6 0 -7 -4 -4 -10 7 -12 262 -14 268 -2 2 4 7
20 11 35 l7 28 -28 -20 c-36 -25 -122 -37 -145 -19 -19 14 -38 137 -22 139 64
9 95 5 91 -13 -1 -6 4 -13 11 -15 8 -3 12 8 12 37 0 37 -2 40 -19 30 -11 -5
-38 -10 -61 -10 l-41 0 3 53 3 52 62 3 c47 2 69 -2 89 -15 l28 -18 -7 25 c-4
14 -7 29 -7 33 0 10 -270 5 -270 -5z"/>
</g>
</svg>
